<svg xmlns="http://www.w3.org/2000/svg" width="491" height="311" style="width:100%;height:100%;transform:translate3d(0,0,0)"><defs><clipPath id="a"><path d="M0 0h491v311H0z"/></clipPath><clipPath id="b"><path d="M0 0h491v311H0z"/></clipPath></defs><g clip-path="url(#a)"><g clip-path="url(#b)" transform="translate(0 9.697)" style="display:block"><g opacity=".5" style="display:block"><g opacity="1"><path fill="#EA7E48" d="M185.323 138.864c-2.127-.174-4.118-.75-5.75-1.665l-.726-.388c-1.361-.72-2.901-1.534-3.722-3.047l-.119-.218c-.117-.22-.264-.494-.337-.582 0 0-.105-.018-.254-.032-1.757-.165-2.299-.582-3.239-1.935-.968-1.382-1.942-2.252-3.594-3.215-.45-.183-.908-.359-1.352-.827a2.524 2.524 0 0 1-.171-.207 1.482 1.482 0 0 1-.119.017 7.043 7.043 0 0 1-.382.022c-.307 0-.639-.043-.957-.089-.128-.02-.249-.04-.363-.048-2.746-.221-4.203-2.015-5.372-3.92l-.242-.406c-.332-.561-.515-.873-.945-1.185l-.327-.235c-.545-.39-1.162-.83-1.7-1.456a9.276 9.276 0 0 1-.755-1.04c-.229-.35-.428-.656-.663-.861a10.901 10.901 0 0 0-.424-.347c-.487-.386-.99-.783-1.411-1.732-.446-1-.64-2.05-.83-3.067-.204-1.093-.394-2.13-.868-2.815-.677-.986-1.26-1.833-1.196-3.387.055-1.408.723-1.94 1.343-2.33.162-.1.279-.173.412-.311.132-.137.155-.255-.083-1.115-.249-.903-.592-2.136.184-3.435.733-1.224 2.262-3.764 5.29-3.764.168 0 .344.008.525.026.924.085 1.658.417 2.303.709.341.153.68.314 1.057.408l.131.03c.061-.028.128-.056.201-.087.098-.041.206-.115.318-.185.416-.258.988-.611 1.74-.611 1.131.004 3.165 1.142 6.054 3.38.336.105.654.162.897.162a.666.666 0 0 0 .242-.031c.293-.144.611-.416.95-.704.524-.446 1.118-.952 1.912-1.279.851-.347 1.67-.518 2.503-.518.361 0 .72.033 1.089.092.151.024.345.07.551.12.149.035.306.081.432.094.133-.142.451-.306.897-.38.231-.037.453-.054.66-.054.43 0 .779.07 1.058.124.172.032.307.059.405.059 1.256-.33 1.855-.443 3.038-.485.437-.015.854-.27 1.496-.683.691-.447 1.476-.951 2.533-1.13 1.16-.199 2.315-.205 3.431-.212.426-.002.666-.021.916-.039.345-.024.7-.05 1.05-.05.741 0 1.335.107 1.868.338 1.462.624 2.228 1.833 2.903 2.901.332.523.646 1.019.993 1.359.796.792 2.075 1.224 3.427 1.683 2.194.744 4.681 1.588 5.539 4.25.258.797.711 1.662 1.194 2.576.645 1.226 1.313 2.497 1.613 3.825.281 1.258.235 2.46.189 3.623-.052 1.392-.098 2.595.414 3.63 1.133 2.267-1.026 6.64-2.077 7.998-1.105 1.43-2.852 2.097-4.259 2.634-.277.105-.547.21-.803.317-1.281.53-1.915 1.837-2.649 3.354-.764 1.573-1.629 3.358-3.44 4.513-1.577 1.006-3.6 1.307-5.384 1.573l-1.032.159c-1.045.18-2.136.267-3.328.267-.945 0-1.901-.055-2.885-.136z"/><path stroke="#A84420" stroke-width="3" d="M185.323 138.864c-2.127-.174-4.118-.75-5.75-1.665l-.726-.388c-1.361-.72-2.901-1.534-3.722-3.047l-.119-.218c-.117-.22-.264-.494-.337-.582 0 0-.105-.018-.254-.032-1.757-.165-2.299-.582-3.239-1.935-.968-1.382-1.942-2.252-3.594-3.215-.45-.183-.908-.359-1.352-.827a2.524 2.524 0 0 1-.171-.207 1.482 1.482 0 0 1-.119.017 7.043 7.043 0 0 1-.382.022c-.307 0-.639-.043-.957-.089-.128-.02-.249-.04-.363-.048-2.746-.221-4.203-2.015-5.372-3.92l-.242-.406c-.332-.561-.515-.873-.945-1.185l-.327-.235c-.545-.39-1.162-.83-1.7-1.456a9.276 9.276 0 0 1-.755-1.04c-.229-.35-.428-.656-.663-.861a10.901 10.901 0 0 0-.424-.347c-.487-.386-.99-.783-1.411-1.732-.446-1-.64-2.05-.83-3.067-.204-1.093-.394-2.13-.868-2.815-.677-.986-1.26-1.833-1.196-3.387.055-1.408.723-1.94 1.343-2.33.162-.1.279-.173.412-.311.132-.137.155-.255-.083-1.115-.249-.903-.592-2.136.184-3.435.733-1.224 2.262-3.764 5.29-3.764.168 0 .344.008.525.026.924.085 1.658.417 2.303.709.341.153.68.314 1.057.408l.131.03c.061-.028.128-.056.201-.087.098-.041.206-.115.318-.185.416-.258.988-.611 1.74-.611 1.131.004 3.165 1.142 6.054 3.38.336.105.654.162.897.162a.666.666 0 0 0 .242-.031c.293-.144.611-.416.95-.704.524-.446 1.118-.952 1.912-1.279.851-.347 1.67-.518 2.503-.518.361 0 .72.033 1.089.092.151.024.345.07.551.12.149.035.306.081.432.094.133-.142.451-.306.897-.38.231-.037.453-.054.66-.054.43 0 .779.07 1.058.124.172.032.307.059.405.059 1.256-.33 1.855-.443 3.038-.485.437-.015.854-.27 1.496-.683.691-.447 1.476-.951 2.533-1.13 1.16-.199 2.315-.205 3.431-.212.426-.002.666-.021.916-.039.345-.024.7-.05 1.05-.05.741 0 1.335.107 1.868.338 1.462.624 2.228 1.833 2.903 2.901.332.523.646 1.019.993 1.359.796.792 2.075 1.224 3.427 1.683 2.194.744 4.681 1.588 5.539 4.25.258.797.711 1.662 1.194 2.576.645 1.226 1.313 2.497 1.613 3.825.281 1.258.235 2.46.189 3.623-.052 1.392-.098 2.595.414 3.63 1.133 2.267-1.026 6.64-2.077 7.998-1.105 1.43-2.852 2.097-4.259 2.634-.277.105-.547.21-.803.317-1.281.53-1.915 1.837-2.649 3.354-.764 1.573-1.629 3.358-3.44 4.513-1.577 1.006-3.6 1.307-5.384 1.573l-1.032.159c-1.045.18-2.136.267-3.328.267-.945 0-1.901-.055-2.885-.136z" fill="none"/></g><path fill="#D23E0A" d="M193.106 118.815c1.004-.494 2.095-1.723 2.025-3.054-.084-1.673-1.773-1.212-2.848-2.306-2.452-2.505-1.534-9.247 2.011-10.244 1.437-.396 2.676.461 3.992.225 1.322-.238.633-.634 1.379-1.518.552-.655 1.075-.689 1.616-1.224.482-.029.993.04 1.472.196-1.831-.74-3.967-1.206-5.327-2.603-.507-.523-.895-1.194-1.299-1.853-.887-.781-1.687-1.566-2.539-1.695-.784-.117-3.82-.279-4.516.097-1.768.951-.084 2.273-.016 3.503.036.686-.977 2.518-1.791 2.732-1.168.309-3.275-1.319-4.566-.689-.816.395-1.77 2.894-1.175 3.7.586.781 2.762.394 3.791 1.229 1.139.919 1.341 2.098 1.43 3.513.125 1.927.786 4.017.633 5.931 3.303-.707 1.401 6.193 5.728 4.06z" opacity="1"/><path fill="#E4BC88" d="m203.914 101.525.043-.07c-.18-.099-.367-.196-.558-.286.186.106.36.223.515.356z" opacity="1"/><path fill="#D23E0A" d="M160.855 117.63c-.728-1.057-.911-1.671-.68-2.791.135-.656.151-1.695.25-1.641 1.112-.175 2.459.241 3.554.401.105 1.046.538 3.167 1.163 3.991.825 1.076 2.18.809 3.57.997-.094.67-.302 1.273-.336 1.98-.896.202-3.825-.344-2.061 1.391-.958.525-2.29.805-3.309 1.009-.303-2.137-.905-3.54-2.151-5.336zm29.97 20.119c1.862-.324 4.257-.511 5.86-1.555 2.043-1.34 2.663-3.839 3.815-5.806-.142-.141-.172-.271-.398-.307-.291 1.851-1.379 2.064-2.968 2.11-2.125.059-3.08-.566-3.717 1.56-1.765.564-3.797.892-5.7 1.462.692-1.98-1.706-3.124-3.29-3.485-.049-1.398 2.333-2.729 1.612-4.274-.729-1.571-2.481-.473-3.485-.444-1.036.031-2.439-.773-2.95-1.832-.811-1.678.929-3.58-.026-5.211-.728.377-3.501.367-4.289-.092-.893-.517-1.747-2.977-1.124-3.857.522-.739 3.65-.907 4.617-1.196 1.431-.426 2.883-.979 4.399-.764.709-1.134-.472-3.268-1.738-3.408-.955-.111-2.103 1.163-2.915 1.459-5.153 1.872-2.279-4.801-5.515-5.37-1.944-.343-2.785 1.531-3.002 2.915-.296 1.868-.932 1.776-2.886 1.496-2.766-.394-6.343-4.948-2.05-6.149 1.011-.282 1.922.289 2.771-.634.614-.667.411-1.618.717-2.404-.226-.02-.533-.13-.755-.116.666-1.053 1.855-.685 2.938-.986 1.275-.349 2.251-1.418 3.549-1.633.426-.902.216-1.442-.295-1.771a6.11 6.11 0 0 0-.898.293c-1.071.452-1.786 1.499-2.764 1.994-.733.369-1.788.15-2.572-.144 0 0-4.112-3.29-5.315-3.302-.483 0-.964.475-1.468.695-.714.31-.444.356-1.303.138-1.108-.284-1.969-1-3.137-1.113-2.17-.21-3.401 1.443-4.376 3.114-1.001 1.71 1.085 3.452-.298 4.932-.755.81-1.315.543-1.365 1.784-.048 1.162.348 1.715.955 2.618 1.136 1.696.957 4.27 1.823 6.266.371.863.742.979 1.473 1.629.661.593.966 1.395 1.564 2.105.52.616 1.149 1.029 1.779 1.497.809.6 1.076 1.225 1.571 2.056 1.04 1.738 2.162 3.141 4.214 3.307.43.033.964.174 1.392.125.392-.047.721-.451 1.106-.311.579.21.163.629.474.969.35.375.648.364 1.031.592 1.724 1.028 2.899 2.032 4.064 3.738.745 1.094.898 1.219 2.151 1.342 1.168.114 1.324.574 1.885 1.631.739 1.402 2.431 2.112 3.883 2.941 1.535.876 3.323 1.36 5.128 1.515 2.013.168 3.888.222 5.828-.119z" opacity="1"/></g><g opacity=".6" style="display:block"><path fill="#EA7E48" d="M385.547 165.978c-2.2-.076-4.086-1.931-4.642-4.614-.003.003-.004.003-.009.003-.069 0-.404-.188-.629-.315a10.14 10.14 0 0 1-.757-.457c-.638-.395-2.074-1.291-2.267-3.152-.041-.428-.175-.881-.3-1.341-.202-.727-.425-1.55-.442-2.391-.015-.796.149-1.508.291-2.133.144-.623.267-1.163.168-1.561-.488-1.951 1.64-4.445 2.079-4.853.869-.809 1.971-1.024 2.777-1.18l.407-.084c.359-.082.672-.502 1.152-1.18.573-.805 1.284-1.807 2.512-2.331.804-.344 1.655-.389 2.303-.389.294 0 1.376.038 1.376.038 1.233.019 2.312.284 3.293.566a8.027 8.027 0 0 1 3.072 1.617c.72.487 1.155 1.167 1.507 1.724.17.266.346.544.48.672.546.442 1.051 1.152 1.5 1.78.182.258.448.631.607.804 2.084.668 3.355 1.825 3.785 3.449 1.897 5.097-.231 11.209-5.001 14.064a3.058 3.058 0 0 1-1.626.465c-1.061 0-1.927-.536-2.623-.972-.085-.051-.172-.103-.255-.155-.284.366-.687.811-1.316 1.048-.907.305-1.713.374-2.494.439-.407.034-.817.066-1.235.142-1 .161-1.973.319-3.033.319-.226 0-.451-.007-.68-.022z" opacity="1"/><path stroke="#A84420" stroke-width="2" d="M385.547 165.978c-2.2-.076-4.086-1.931-4.642-4.614-.003.003-.004.003-.009.003-.069 0-.404-.188-.629-.315a10.14 10.14 0 0 1-.757-.457c-.638-.395-2.074-1.291-2.267-3.152-.041-.428-.175-.881-.3-1.341-.202-.727-.426-1.55-.443-2.391-.015-.796.149-1.508.291-2.133.144-.623.267-1.163.168-1.561-.488-1.951 1.64-4.445 2.079-4.853.869-.809 1.972-1.024 2.778-1.18l.406-.084c.359-.082.673-.502 1.153-1.18.573-.805 1.284-1.807 2.512-2.331.804-.344 1.654-.389 2.302-.389.294 0 1.377.038 1.377.038 1.233.019 2.312.284 3.293.566a8.027 8.027 0 0 1 3.072 1.617c.72.487 1.154 1.167 1.506 1.724.17.266.347.544.481.672.546.442 1.051 1.152 1.5 1.78.182.258.448.631.607.804 2.084.668 3.355 1.825 3.785 3.449 1.897 5.097-.232 11.209-5.002 14.064a3.054 3.054 0 0 1-1.625.465c-1.061 0-1.927-.536-2.623-.972-.085-.051-.173-.103-.256-.155-.284.366-.686.811-1.315 1.048-.907.305-1.713.374-2.494.439-.407.034-.817.066-1.235.142-1 .161-1.974.319-3.034.319-.226 0-.45-.007-.679-.022z" fill="none" opacity="1"/><path fill="#C7481C" d="M383.914 163.01c.687.534 1.767 1.435 2.549.73.66-.563.155-1.717.705-2.485.647-.823 1.533.19 2.295.153.602-.077 1.241-1.157.976-1.401-.953-.897-1.338-1.958-1.441-3.069-.101-1.109.083-2.266.275-3.372-1.604.116.009-3.176-2.286-2.466-.619.331-1.613.891-1.207 1.511.463.721 1.128 1.333 1.291 2.22.145 1.557-.232 3.467-1.908 4.079-1.001.301-1.84-.866-2.536-.476-.54.433-1.322 1.133-2.127.733" opacity="1"/><path fill="#C7481C" d="M401.5 155.751c-.405.469-1.125.156-1.642.024.309-.974.41-1.91.216-2.554-.202-.642-.693-1.009-1.574-.844.364-1.08.974-1.514 1.815-1.272.199-1.19 1.252-.975 2.164-1.104-.295 1.102-.291 1.899-.061 2.99.326 1.015-.39 2.186-.918 2.76zm-16.788-14.263c-.42.547-.784 1.152-1.212 1.671.063.099.066.182.186.226.362-1.056.985-1.059 1.87-.909.654.164 1.298.557 1.709.086 1.041-1.065 2.646-.388 3.86-.714-.024.091-.164.245-.185.339.284 1.363 2.122 2.214.526 3.398-.39.485-.633.952.092 1.218.463.187 1.138.217 1.695.382.552.167.987.47.969 1.204-.046.869-1.261 1.888-.552 2.395.616.481 2.437.039 1.949 1.467-.538 1.609-2.322 1.966-3.834 2.009-.949.011-1.742.855-1.071 1.843.184.349.619.48.957.286.646-.297 1.762-1.639 2.297-.495.347.793-.446 1.641-.101 2.435.37.702 1.218.361 1.565-.222.234-.518.436-1.175.739-1.685.306-.51.715-.882 1.358-.839.893.17 1.339 1.287 1.09 2.199-.335.878-1.158 1.32-1.89 1.808-.731.484-1.369 1.007-1.323 2.052.086.023.111-.066.198-.044-.052.184-.014.388-.233.524-.593.269-1.338.587-1.884 1.043-.546.45-.89 1.037-.687 1.836.403-.275.678-.684.978-1.049.36-.423.913-1.045 1.207-.759 1.041 1.003 2.195 1.94 3.658 1.393 3.332-1.173 4.062-4.889 5.054-7.949.211-.66.416-1.297.638-1.873.431-1.249-.028-2.664-.88-3.799a10.031 10.031 0 0 0-1.17-1.317c-.862-.83-1.862-1.57-2.802-2.244-.625-.481-.974-1.276-1.431-2.004-.06-.116-.461-.04-.521-.159-1.417-2.388-3.379-4.849-6.246-4.962a9.767 9.767 0 0 0-1.619-.207c-1.704-.06-3.957-.437-4.954 1.416z" opacity="1"/></g><g opacity=".7" style="display:block"><path fill="#6F4A4A" d="M386.887 119.055c-2.433 3.434-14.394 16.198-32.882 3.165-17.747-12.509-11.188-27.488-8.007-31.984 3.18-4.497 14.653-1.317 25.942 6.638 11.29 7.959 18.126 17.684 14.947 22.18z" opacity="1"/><path stroke-linecap="round" stroke-linejoin="round" stroke="#442323" stroke-width="3" d="M386.887 119.055c-2.433 3.434-14.394 16.198-32.882 3.165-17.747-12.509-11.188-27.488-8.007-31.984 3.18-4.497 14.653-1.318 25.942 6.638 11.29 7.958 18.126 17.684 14.947 22.18z" fill="none" opacity="1"/><path fill="#6F4A4A" d="M423.096 103.369c-5.354 7.593-30.922 36.343-64.399 12.656-32.133-22.738-16.633-55.105-9.631-65.043 7.005-9.936 28.68-5.448 49.122 9.02 20.442 14.464 31.911 33.43 24.908 43.367z" opacity="1"/><path stroke-linecap="round" stroke-linejoin="round" stroke="#442323" stroke-width="3" d="M423.096 103.369c-5.354 7.593-30.922 36.343-64.399 12.656-32.133-22.738-16.633-55.105-9.631-65.043 7.005-9.936 28.68-5.448 49.122 9.02 20.442 14.465 31.911 33.43 24.908 43.367z" fill="none" opacity="1"/><path fill="#6F4A4A" d="M423.255 102.99c-6.945 9.797-28.6 5.256-49.076-9.15-20.472-14.404-32.009-33.219-25.064-43.018 6.947-9.798 28.605-5.257 49.077 9.151 20.473 14.403 32.009 33.218 25.063 43.016z" opacity="1"/><path stroke-linecap="round" stroke-linejoin="round" stroke="#442323" stroke-width="2.171" d="M423.256 102.99c-6.945 9.797-28.6 5.256-49.076-9.15-20.472-14.404-32.009-33.219-25.064-43.018 6.947-9.798 28.605-5.257 49.077 9.151 20.473 14.403 32.009 33.218 25.063 43.016z" fill="none" opacity="1"/><path fill="#FFE185" d="M414.323 106.137c-4.575 6.513-22.532.88-40.566-11.922-18.038-12.8-29.325-27.921-24.747-34.433 4.574-6.511 19.91-7.105 42.616 9.007 22.703 16.116 27.276 30.837 22.697 37.348z" opacity="1"/><path stroke-linecap="round" stroke-linejoin="round" stroke="#B16B4D" stroke-width="1.737" d="M349.217 67.681s13.588-12.142 37.682-1.367M352.4 74.297s13.038-12.678 43.512-1.636M356.529 79.382s22.598-10.858 49.49 2.415" fill="none" opacity="1"/><path stroke-linecap="round" stroke-linejoin="round" stroke="#B16B4D" stroke-width="1.737" d="M367.41 76.18s5.37 7.14 4.885 17.08M376.583 75.222s5.717 13.267 1.812 22.17M384.44 76.494s6.868 12.075 2.414 25.232" fill="none" opacity="1"/><path stroke-linecap="round" stroke-linejoin="round" stroke="#B16B4D" stroke-width="1.737" d="M394.03 77.273s.621 6.238-5.714 13.628M402.202 80.058s.025 8.55-12.97 18.307M392.342 104.598s10.226-3.048 15.872-20.304M400.58 99.538s2.462 2.314 3.215 9.085" fill="none" opacity="1"/><path stroke-linecap="round" stroke-linejoin="round" stroke="#B16B4D" stroke-width="1.737" d="M405.246 92.955s5.326 8.986 5.507 15.672" fill="none" opacity="1"/><path stroke-linecap="round" stroke-linejoin="round" stroke="#442323" stroke-width="3" d="M414.323 106.137c-4.575 6.513-22.532.88-40.566-11.922-18.038-12.8-29.325-27.921-24.747-34.433 4.574-6.511 19.91-7.105 42.616 9.007 22.703 16.116 27.276 30.837 22.697 37.348z" fill="none" opacity="1"/><g opacity="1"><path fill="#A1CC44" d="M390.937 73.155c.05 2.53-4.194 3.49-9.443 3.652-5.26.16-9.53-.537-9.583-3.068-.05-2.531 4.193-3.49 9.447-3.653 5.257-.161 9.528.538 9.579 3.069z"/><path stroke-linecap="round" stroke-linejoin="round" stroke="#8BA825" stroke-width="2" d="M390.937 73.155c.05 2.53-4.194 3.49-9.443 3.652-5.26.16-9.53-.537-9.583-3.068-.05-2.531 4.193-3.49 9.447-3.653 5.257-.161 9.528.538 9.579 3.069z" fill="none"/></g><g opacity="1"><path fill="#DF523A" d="M398.391 83.101c-.607 2.34-5.022 1.94-10.215.498-5.2-1.444-9.212-3.38-8.609-5.725.608-2.343 5.018-1.94 10.218-.498 5.195 1.444 9.209 3.38 8.606 5.725z"/><path stroke-linecap="round" stroke-linejoin="round" stroke="#9F1C17" stroke-width="2" d="M398.391 83.101c-.607 2.34-5.022 1.94-10.215.498-5.2-1.444-9.212-3.38-8.609-5.725.608-2.343 5.018-1.94 10.218-.498 5.195 1.444 9.209 3.38 8.606 5.725z" fill="none"/></g></g><g style="display:block"><path fill="#F4A96C" d="M191.974 74.69c-8.03-2.014-10.019-3.726-10.49-4.568-1.022-1.785-4.327-7.887-3.521-10.85.727-2.655 5.4-6.411 25.845-16.121 15.503-7.36 25.512-10.724 30.604-10.278.408.036.784.095 1.132.176 5.067 1.188 10.64 10.849 10.648 14.397.01 4.424-13.506 17.07-26.14 23.008-9.591 4.51-15.375 5.993-21.34 5.471-1.927-.168-4.004-.55-6.738-1.235z"/><path stroke="#9C4129" stroke-width="3" d="M191.974 74.69c-8.03-2.014-10.019-3.726-10.49-4.568-1.022-1.785-4.327-7.887-3.521-10.85.727-2.655 5.4-6.411 25.845-16.121 15.503-7.36 25.512-10.724 30.604-10.278.408.036.784.095 1.132.176 5.067 1.188 10.64 10.849 10.648 14.397.01 4.424-13.506 17.07-26.14 23.008-9.591 4.51-15.375 5.993-21.34 5.471-1.927-.168-4.004-.55-6.738-1.235z" fill="none"/><path fill="#FFD593" d="M224.874 38.115s-5.408 1.315-20.108 8.227c-14.7 6.915-15.709 8.366-15.709 8.366-3.492 1.813-1.801 6.026 1.15 6.34 4.384.467 7.528-2.118 11.584-.034 2.672 1.371 3.494 2.186 7.465.53 3.052-1.274 4.272-3.247 6.874-5.278 4.552-3.55 12.145-3.992 15.286-9.135 3.148-5.155-1.47-9.11-6.542-9.016z"/><path fill="#C45539" d="M244.805 47.292c.409-1.98-1.042-6.025-3.984-8.84.72 1.884 1.02 3.469.747 5.157-5.975 9.19-10.727 5.448-23.813 16.164-5.333 3.797-10.3 5.299-14.111 6.37-3.34.983-5.746.617-8.144-.019-1.363-.254-2.462-1.25-4.34-1.885-1.876-.627-3.655-.465-5.47-.588-2.95-.188-5.424-.8-6.252-4.397l-.218.042a2.705 2.705 0 0 0-.333.698c-.713 2.628 3.39 9.809 3.39 9.809s.922 1.704 9.333 3.877c8.872 2.175 14.032 2.144 27.356-4.19 13.436-6.346 25.441-18.761 25.84-22.198z"/><path fill="#FFF" d="M195.42 54.054c-.024-.888-.81-1.712-1.711-1.633-1.948.164-3.292 1.654-4.288 3.247-.488.782-.086 1.878.664 2.294.837.466 1.765.092 2.251-.683.252-.405.54-.753.898-1.114.143-.142.212-.176.43-.313-.196.123.49-.076.148-.05.902-.072 1.635-.792 1.608-1.748zM188.94 59.017l-.158.006c-1.227.047-1.17 2.021.054 1.976l.161-.008c1.226-.043 1.167-2.018-.057-1.974zM225.638 41.148l-.16.004c-1.225.05-1.17 2.024.053 1.977l.16-.008c1.229-.043 1.172-2.019-.053-1.973zM222.419 47.55c-1.86 3.402-5.427 5.457-8.773 7.138-2.475 1.245-1.29 4.43 1.151 3.193 4.493-2.277 8.492-5.125 11.03-9.615 1.356-2.396-2.117-3.077-3.408-.715z"/></g><g style="display:block"><path fill="#FFF" d="M457.839 250.568c6.542-4.268 10.808-10.872 9.166-19.772-1.939-10.45-9.212-18.273-13.122-27.805-2.91-7.097-6.227-14.51-14.295-16.825-9.97-2.858-18.314 6.806-23.005 14.215-6.725 10.61-10.433 27.76-4.534 39.325 5.983 11.726 20.698 18.395 33.215 15.843 4.481-.914 8.891-2.575 12.575-4.98z"/><path stroke="#D5C6C6" stroke-width="3" d="M457.839 250.568c6.542-4.268 10.807-10.871 9.165-19.771-1.939-10.45-9.21-18.273-13.12-27.805-2.911-7.097-6.228-14.511-14.296-16.826-9.97-2.858-18.315 6.806-23.006 14.215-6.725 10.61-10.433 27.761-4.534 39.326 5.983 11.726 20.699 18.394 33.216 15.842 4.481-.914 8.891-2.575 12.575-4.98z" fill="none"/><path fill="#FFD769" d="M441.01 213.21c5.462 1.181 9.326 7.76 7.822 14.52-1.505 6.762-7.798 11.148-13.263 9.967-5.467-1.18-8.68-7.62-7.176-14.383 1.5-6.763 7.15-11.284 12.617-10.103z"/><path stroke="#F8BB39" stroke-width="3" d="M441.01 213.21c5.462 1.181 9.326 7.76 7.822 14.52-1.505 6.762-7.798 11.148-13.263 9.967-5.467-1.18-8.68-7.62-7.176-14.383 1.5-6.763 7.15-11.284 12.617-10.103z" fill="none"/><path fill="#FFF" d="M439.882 218.27c.082-.15.183-.296.315-.428.754-.759 2.024-.822 2.87-.133.23.189 2.267 1.935 2.318 4.771.022 1.052-.887 1.903-2.022 1.904-1.139.002-2.078-.85-2.095-1.894-.02-1.17-.89-1.94-.929-1.973-.68-.596-.847-1.514-.457-2.246z"/><g><path fill="#FFF" d="M443.204 230.204a2.46 2.46 0 0 0 1.676-2.755 2.424 2.424 0 0 0-.076-.355c-.003-.003-.003-.003-.003-.006-.002-.003-.002-.008-.005-.009a2.43 2.43 0 0 0-.172-.403l-.025-.04c-.028-.05-.052-.096-.084-.144-.038-.056-.076-.117-.119-.173a2.156 2.156 0 0 0-.613-.569 2.516 2.516 0 0 0-1.512-.426 2.49 2.49 0 0 0-1.697.795c-.119.174-.244.35-.37.523a2.442 2.442 0 0 0-.28 1.287l-.003.043c-.057.749.615 1.79 1.319 2.054.018.004.03.01.04.016.21.073.417.151.627.228.439.091.871.073 1.297-.066z"/></g></g><g style="display:block"><path fill="#FFE23D" d="M152.477 28.226c-.693-.769-4.349-1.1-9.315-.118-3.802.752-8.134 2.009-11.2 3.48-9.329 4.477-15.747 12.524-16.598 14.472-.459 1.046-.468 2.181-.114 3.311.338 1.076 1.021 2.152 1.887 3.084.977 1.052 2.177 1.916 3.282 2.415 1.496.674 2.797.623 3.629.134.169-.099.535-.441 1.046-1.097 1.316-1.695 4.753-6.107 12.295-9.961 4.718-2.412 8.665-2.916 11.403-3.272 2.373-.309 3.937-.688 4.741-1.461 1.026-.992 1.495-3.034 1.204-5.332-.276-2.178-1.165-4.442-2.26-5.655z"/><path stroke="#E19F34" stroke-width="3" d="M152.477 28.226c-.693-.769-4.349-1.1-9.315-.118-3.802.752-8.134 2.009-11.2 3.48-9.329 4.477-15.747 12.524-16.598 14.472-.459 1.046-.468 2.181-.114 3.311.338 1.076 1.021 2.152 1.887 3.084.977 1.052 2.177 1.916 3.282 2.415 1.496.674 2.797.623 3.629.134.169-.099.535-.441 1.046-1.097 1.316-1.695 4.753-6.107 12.295-9.961 4.718-2.412 8.665-2.916 11.403-3.272 2.373-.309 3.937-.688 4.741-1.461 1.026-.992 1.495-3.034 1.204-5.332-.276-2.178-1.165-4.442-2.26-5.655z" fill="none"/><path fill="#E8AC34" d="M123.194 53.715c.576-.33 3.786-6.055 13.537-10.909 8.259-4.111 14.268-2.839 15.929-4.399.679-.644.911-1.909.825-3.312-1.15-1.94-5.105-1.461-13.872.857-11.461 3.029-17.79 14.651-17.79 14.651l-.322 3.123c.672.207 1.275.228 1.693-.011z"/><g><path fill="#FFCC3A" d="M124.592 48.09c3.128-6.415 12.073-11.157 12.073-11.157-7.167 2.256-11.378 7.75-13.11 10.166a1.318 1.318 0 0 0-.403-.114c-2.112-.223-6.409-.054-6.409-.054-1.472 3.162 4.158 7.501 6.418 6.903.1-.039.201-.074.293-.112.19-.105.677-.782 1.573-1.8.412-1.258.174-2.805-.435-3.832z"/></g></g><g style="display:block"><path fill="#FFE23D" d="M268.031 100.496c-4.5 1.706-8.162 2.171-8.99 1.66-1.355-.835-2.718-2.614-3.459-4.44-.828-2.041-.751-3.962.095-5.058.622-.803 2.08-1.432 4.329-2.136 2.61-.818 6.377-1.986 10.497-4.916 8.558-6.088 16.976-17.962 17.753-19.053 1.019-.943 2.256-1.212 3.793-.935 1.172.21 2.512.712 3.675 1.41 1.059.634 1.963 1.433 2.528 2.292.639.974.874 2.03.622 3.09-.887 3.74-9.133 15.277-20.636 23.052-2.685 1.815-6.652 3.687-10.207 5.034z"/><path stroke="#E19F34" stroke-width="3" d="M268.031 100.496c-4.5 1.706-8.162 2.171-8.99 1.66-1.355-.835-2.718-2.614-3.459-4.44-.828-2.041-.751-3.962.095-5.058.622-.803 2.08-1.432 4.329-2.136 2.61-.818 6.377-1.986 10.497-4.916 8.558-6.088 16.976-17.962 17.753-19.053 1.019-.943 2.256-1.212 3.793-.935 1.172.21 2.512.712 3.675 1.41 1.059.634 1.963 1.433 2.528 2.292.639.974.874 2.03.622 3.09-.887 3.74-9.133 15.277-20.636 23.052-2.685 1.815-6.652 3.687-10.207 5.034z" fill="none"/><path fill="#E8AC34" d="M290.544 64.016c.745-.579-9.264 15.039-18.676 21.515-7.326 5.042-13.686 6.33-14.999 7.97-.54.676-.487 1.799-.096 2.982 1.569 1.441 5.405.3 13.625-3.302 14.459-6.335 23.529-23.526 24.318-24.823l-2.604-1.255c-.72-.053 3.739 4.047 3.377 4.327"/><path fill="#FFCC3A" d="M289.396 67.534c-.121 1.169.228 4.12 1.053 4.902-2.33 8.75-13.86 16.525-17.471 19.45 10.164-5.084 16.833-14.869 18.709-18.776.144.024.281.038.421.024 2.124-.19 6.306-1.118 6.306-1.118.74-3.018-4.497-6.479-6.585-5.55-.085.051-.395-1.186-.473-1.137-.165.125-1.215-1.09-1.87-.041l.081-.56"/></g><g style="display:block"><path stroke="#9C251F" stroke-width="3" d="m74.135 195.186-36.366 22.657c5.479 6.438 29.157 34.214 31.3 35.991 1.037.864 3.02.855 5.397.334 2.63-.577 5.765-1.892 9.065-4.002 3.256-2.082 5.708-4.336 7.322-6.459 1.538-2.02 2.372-3.89 2.106-5.256-.248-1.262-15.366-35.453-18.824-43.265z" fill="none"/><path fill="#B83C34" d="M77.166 205.116C75.206 200.343 73.83 197 73.83 197l-33.332 22.32s9.019 9.801 14.963 17.244c0 0 17.107-8.117 23.35-27.262M69.312 252.134c1.222 2.076 7.53.931 13.644-3.056 6.112-3.986 9.439-9.006 8.486-11.382-.108-.572-4.116-9.08-7.886-17.875-5.031 9.948-11.844 17.874-22.056 23.444 3.966 4.653 7.138 8.301 7.812 8.869z"/><path fill="#352C2C" d="M73.974 191.942c2.508 4.002-4.182 12.866-14.937 19.803-10.753 6.935-21.503 9.312-24.011 5.313-2.506-4.002 4.18-12.868 14.937-19.804 10.754-6.934 21.504-9.313 24.011-5.312z"/><path stroke-linecap="round" stroke-linejoin="round" stroke="#000" stroke-width="2.171" d="M73.974 191.942c2.508 4.002-4.182 12.866-14.937 19.803-10.753 6.935-21.503 9.312-24.011 5.313-2.506-4.002 4.18-12.868 14.937-19.804 10.754-6.934 21.504-9.313 24.011-5.312z" fill="none"/><path fill="#221C1C" d="M71.105 197.473c1.88 3.035-3.136 9.762-11.202 15.022-8.066 5.263-16.131 7.067-18.008 4.032-1.881-3.035 3.136-9.762 11.2-15.024 8.068-5.26 16.131-7.065 18.01-4.03z"/><path fill="#FFF" d="M59.312 175.947c4.304 2.592 2.063 14.214-5.005 25.959-7.071 11.746-16.29 19.168-20.598 16.578l-8.21-4.95L51.098 171l8.215 4.947z"/><path stroke-linecap="round" stroke-linejoin="round" stroke="#C4C4C4" stroke-width="1.737" d="M59.312 175.947c4.304 2.592 2.063 14.214-5.005 25.959-7.071 11.746-16.29 19.168-20.598 16.578l-8.21-4.95L51.098 171l8.215 4.947z" fill="none"/><path fill="#FFF" d="M51.311 171.521c4.305 2.62 2.066 14.356-5.006 26.219C39.227 209.6 30 217.096 25.689 214.478c-4.305-2.62-2.064-14.357 5.009-26.22C37.772 176.397 47 168.902 51.311 171.52z"/><path stroke-linecap="round" stroke-linejoin="round" stroke="#C4C4C4" stroke-width="1.737" d="M51.311 171.521c4.305 2.62 2.066 14.356-5.006 26.219C39.227 209.6 30 217.096 25.689 214.478c-4.305-2.62-2.064-14.357 5.009-26.22C37.772 176.397 47 168.902 51.311 171.52z" fill="none"/><path fill="#DCDCDC" d="M30.683 205.856c1.4-.256 5.688-4.025 10.196-11.438 4.508-7.412 5.861-12.93 5.44-14.276-1.4.258-5.69 4.028-10.196 11.44-4.506 7.41-5.87 12.929-5.44 14.274zm12.91-9.819c-3.523 5.795-10.562 14.97-14.585 12.57-4.016-2.395.874-12.847 4.399-18.646 3.527-5.797 10.561-14.967 14.582-12.57 4.021 2.397-.869 12.847-4.396 18.646z"/><path fill="#352C2C" d="M39.186 193.644c-1.136 1.333-2.047 2.142-3.367.988l-16.273-14.823a3.19 3.19 0 0 1-1.091-2.285l-.951-10.014c-.073-1.762 1.279-3.25 3.02-3.322 1.74-.074 3.212 1.294 3.285 3.055l.892 8.633 15.236 13.923c1.183 1.029.342 2.095-.435 3.403a3.391 3.391 0 0 1-.316.442zM60.043 193.415c-6.188-10.899.596-52.854 17.138-52.225 17.138.653 5.719 27.85 1.703 35.601 3.405-1.559 8.848 2.638 8.898 6.222.108 7.503-12.066 11.978-17.454 13.806"/><path stroke-linecap="round" stroke-linejoin="round" stroke="#221C1C" stroke-width="1.303" d="M60.043 193.415c-6.188-10.899.596-52.854 17.138-52.225 17.138.653 5.719 27.85 1.703 35.601 3.405-1.559 8.848 2.638 8.898 6.222.108 7.503-12.066 11.978-17.454 13.806" fill="none"/><path fill="#221C1C" d="M82.392 182.978c-1.39-3.378-4.495-1.336-5.987-2.609-1.694-1.453-1.012-4.745-1.197-7.183-.281-5.129.672-9.216 1.385-14.256.277-1.981.952-5.062-.476-6.485-1.469-1.465-3.577 1.047-4.602 2.306-5.725 7.032-9.179 17.956-10.015 27.847.539 9.451 2.623 11.247 6.223 11.4 3.597.152 16.059-7.643 14.669-11.02z"/><path fill="#352C2C" d="M72.541 135c-.77 0-1.545-.201-2.303-.598-2.12-1.114-3.43-3.29-3.693-6.126-.32-3.487 1.06-7.189 3.36-9.002 1.055-.833 2.3-1.274 3.595-1.274.916 0 1.842.228 2.675.658a6.511 6.511 0 0 1 2.166 1.822c1.868 2.428 1.256 7.04-.267 10.148-1.36 2.778-3.376 4.372-5.533 4.372z"/><path fill="#221C1C" d="M74.026 117c-1.628 0-3.186.545-4.506 1.577-2.747 2.145-4.343 6.315-3.966 10.372.307 3.309 1.95 5.968 4.501 7.296.965.501 1.963.755 2.965.755 2.73 0 5.232-1.894 6.864-5.198 1.797-3.633 2.425-8.84.153-11.769a7.965 7.965 0 0 0-2.67-2.221 7.37 7.37 0 0 0-3.34-.812zm0 2.381c.775 0 1.545.188 2.253.55.698.355 1.34.881 1.864 1.557 2.594 3.344-.352 13.133-5.123 13.133-.592 0-1.212-.152-1.854-.486-4.764-2.476-3.886-10.781-.164-13.689a4.874 4.874 0 0 1 3.024-1.065z"/><path fill="#352C2C" d="M94.51 108c-.847 0-1.622-.32-2.184-.905-1.16-1.425-1.079-3.625.122-5.08a5.665 5.665 0 0 1 1.05-1.007c.882-.638 1.82-.976 2.786-1.003a6.71 6.71 0 0 1 .198-.005c1.073 0 2.004.413 2.552 1.132.59.868.614 2.007.106 3.18-.41.94-1.086 1.84-1.82 2.423-.777.805-1.796 1.265-2.81 1.265z"/><path fill="#221C1C" d="M96.45 99c-.098 0-.196.004-.297.01-1.114.036-2.243.486-3.284 1.334a7.026 7.026 0 0 0-1.217 1.306c-1.464 1.993-1.542 4.93-.176 6.82A3.841 3.841 0 0 0 94.557 110c1.283 0 2.552-.62 3.512-1.707.812-.75 1.552-1.862 2-3.015.626-1.617.57-3.234-.154-4.437l-.07-.114C99.095 99.631 97.858 99 96.45 99zm0 2.383c.63 0 1.18.245 1.498.711.33.553.32 1.401-.027 2.301-.318.816-.876 1.681-1.489 2.204-.547.67-1.238 1.02-1.875 1.02a1.58 1.58 0 0 1-1.224-.57c-.737-1.023-.686-2.804.171-3.969.224-.307.492-.614.801-.867.592-.482 1.262-.803 1.99-.826.052-.002.103-.004.155-.004z"/><path fill="#FFF" d="M62.296 157.735a1.498 1.498 0 0 0-.889-.685 1.484 1.484 0 0 0-.942.059c-.067.02-.134.055-.2.092h-.004a1.33 1.33 0 0 0-.219.159l-.02.018c-.025.02-.049.044-.072.067l-.088.092c-.112.13-.204.278-.254.429a1.496 1.496 0 0 0-.057.944c.103.37.352.693.683.888.121.048.237.098.356.149.265.07.529.07.79 0 .007-.002.019-.002.025-.004.448-.062.974-.589 1.037-1.039a.063.063 0 0 0 .005-.022c.016-.132.037-.263.053-.398a1.488 1.488 0 0 0-.204-.749zM62.229 174.98a1.978 1.978 0 0 0-1.183-.911 1.975 1.975 0 0 0-1.259.076 1.28 1.28 0 0 0-.267.122l-.005.002-.006.003c-.1.06-.197.129-.288.207-.009.008-.016.017-.025.023-.034.031-.066.06-.098.092a2.64 2.64 0 0 0-.113.121v.002a1.645 1.645 0 0 0-.343.572 2.01 2.01 0 0 0-.075 1.254c.138.498.471.926.912 1.185.16.066.316.133.474.2.35.095.704.095 1.054 0l.033-.005c.597-.086 1.299-.785 1.385-1.383 0-.011.005-.023.005-.034.022-.175.049-.35.071-.525a1.962 1.962 0 0 0-.272-1.001zM77.365 111.49a.984.984 0 0 0-1.222-.417.567.567 0 0 0-.132.062h-.004l-.004.002a.852.852 0 0 0-.142.103l-.014.011a2.196 2.196 0 0 0-.047.048c-.02.018-.039.04-.058.06a.834.834 0 0 0-.17.285.988.988 0 0 0 .419 1.22l.234.101c.177.046.352.046.528 0l.017-.004c.298-.042.65-.39.694-.69l.002-.018c.01-.087.023-.176.035-.263a.985.985 0 0 0-.136-.5zM66.174 161.6a.769.769 0 0 0-1.056-.278l-.002.001h-.004a.88.88 0 0 0-.11.083.063.063 0 0 1-.012.007l-.036.037a1.009 1.009 0 0 0-.046.047v.002a.606.606 0 0 0-.132.224.754.754 0 0 0-.03.487.781.781 0 0 0 .354.464l.188.079a.752.752 0 0 0 .424-.002c.232-.032.508-.308.54-.541 0-.006.002-.008.002-.01.006-.071.02-.142.028-.207a.772.772 0 0 0-.108-.393zM70.174 151.601a.767.767 0 0 0-.954-.325c-.036.01-.068.027-.102.045l-.002.002h-.004a.803.803 0 0 0-.124.091l-.034.037c-.018.014-.032.031-.046.047a.657.657 0 0 0-.134.226.755.755 0 0 0-.028.488.788.788 0 0 0 .354.463l.186.077a.752.752 0 0 0 .41 0c.006 0 .01 0 .016-.002.232-.033.506-.307.538-.54.002-.005.002-.009.002-.013.01-.069.018-.137.03-.205a.73.73 0 0 0-.108-.391zM66.173 186.6a.77.77 0 0 0-1.056-.277h-.002l-.004.002a.605.605 0 0 0-.11.082l-.012.007c-.012.012-.026.024-.036.037a.658.658 0 0 0-.18.271.793.793 0 0 0-.028.491.785.785 0 0 0 .354.463c.064.025.124.051.188.077a.752.752 0 0 0 .41 0h.014c.232-.034.506-.31.54-.543 0-.006.002-.006.002-.01l.028-.207a.752.752 0 0 0-.108-.393z"/></g></g><path fill="#212121" d="M8.411-36.433s-25.31 13.889-25.31 39.348c0 25.455 19.233 37.576 33.797 32.307" transform="translate(151.398 255.908)" style="display:block"/><path fill="#212121" d="M-8.38-36.171S16.848-22.382 16.848 2.894c0 25.271-19.172 37.306-33.696 32.074" transform="translate(336.847 256.171)" style="display:block"/><g style="display:block"><path fill="#DDAB6B" d="M339.762 251.667c0 58.157-50.504 65.955-95.629 65.955-45.121 0-95.633-7.798-95.633-65.955 0-58.154 42.819-85.667 95.633-85.667 52.817 0 95.629 27.513 95.629 85.667z"/><path stroke="#C38D46" stroke-width="4" d="M339.762 251.667c0 58.157-50.504 65.955-95.629 65.955-45.121 0-95.633-7.798-95.633-65.955 0-58.154 42.819-85.667 95.633-85.667 52.817 0 95.629 27.513 95.629 85.667z" fill="none"/><path fill="#FFF" d="M330.843 243.735c0 58.216-38.823 67.941-86.714 67.941-47.89 0-86.71-9.725-86.71-67.941 0-58.211 86.71-53.26 86.71-16.798 0-36.462 86.714-41.413 86.714 16.798z"/><path fill="#CA9957" d="M232.529 248.067c-3.515 21.146-24.699 37.816-41.377 37.844-16.787-.125-28.231-13.842-27.76-33.339-.759-20.766 14.453-38.557 34.371-39.003 19.666-.115 37.068 13.405 34.766 34.498zM256.724 248.067c3.512 21.146 24.702 37.816 41.379 37.844 16.785-.125 28.231-13.842 27.757-33.339.762-20.766-14.451-38.557-34.373-39.003-19.664-.115-37.073 13.405-34.763 34.498z"/><path fill="#D11" d="M232.422 275.195s-.859 22.138 11.96 22.138c12.815 0 11.959-22.138 11.959-22.138"/><path stroke-linecap="round" stroke-linejoin="round" stroke="#212121" stroke-width="3" d="M232.422 275.195s-.859 22.138 11.96 22.138c12.815 0 11.959-22.138 11.959-22.138" fill="none"/><path fill="#FFF" d="M223.153 271.178s-.941 9.776 11.057 9.306c11.995-.471 9.717-10.896 9.717-18.636"/><path stroke-linecap="round" stroke-linejoin="round" stroke="#212121" stroke-width="3" d="M223.153 271.178s-.941 9.776 11.057 9.306c11.995-.471 9.717-10.896 9.717-18.636" fill="none"/><g><path fill="#FFF" d="M265.499 271.178s.937 9.776-11.057 9.306c-11.998-.471-9.722-10.896-9.722-18.636"/><path stroke-linecap="round" stroke-linejoin="round" stroke="#212121" stroke-width="3" d="M265.499 271.178s.937 9.776-11.057 9.306c-11.998-.471-9.722-10.896-9.722-18.636" fill="none"/></g><g><path fill="#221F1F" d="M254.536 255.827c0 6.591-4.66 8.281-10.405 8.281-5.745 0-10.407-1.69-10.407-8.281 0-6.587 4.662-6.584 10.407-6.584s10.405-.003 10.405 6.584z"/></g></g><g style="display:block"><path fill="#FFF" d="M168.266 321.658c-4.069 2.35-9.337.915-11.707-3.188l-36.204-62.708c-2.368-4.102-.977-9.382 3.093-11.732l33.255-19.2c4.07-2.35 9.338-.915 11.707 3.188l36.205 62.706c2.369 4.104.977 9.383-3.093 11.733l-33.256 19.201z"/><path stroke="#B89261" stroke-width="2.4" d="M168.266 321.658c-4.069 2.35-9.337.915-11.707-3.188l-36.204-62.708c-2.368-4.102-.978-9.382 3.092-11.732l33.256-19.2c4.07-2.35 9.338-.915 11.707 3.188l36.205 62.706c2.369 4.104.976 9.383-3.094 11.733l-33.255 19.201z" fill="none"/><path fill="#FFD300" d="m157.669 229.98-30.244 17.461c-2.731 1.578-3.665 5.12-2.075 7.873l30.486 52.803c1.589 2.753 5.124 3.716 7.855 2.14l30.245-17.462c2.73-1.576 3.664-5.12 2.074-7.873l-30.486-52.803c-1.59-2.753-5.126-3.716-7.855-2.139z"/><path fill="#E1E1E1" d="m185.654 302.319-10.033 5.792a1.503 1.503 0 0 0-.541 2.05 1.502 1.502 0 0 0 2.045.555l10.033-5.793c.71-.41.954-1.332.54-2.047a1.502 1.502 0 0 0-2.044-.557z"/></g><g style="display:block"><path d="M7.02.45v-10.84c0-.9-.48-1.3-1.24-1.3-.75 0-1.24.38-1.24 1.3v2.21H3.27v-2.21c0-.9-.48-1.3-1.23-1.3-.76 0-1.28.38-1.28 1.3v8.88C.76-.07 1.14.45 2.65.45h4.37zm3.96.62h2.51v-12.04c0-.77-.62-1.2-1.25-1.2-.65 0-1.26.41-1.26 1.2v3.91h-.69v-3.91c0-.77-.59-1.2-1.22-1.2-.65 0-1.23.41-1.23 1.2V1.07h2.45v-5.82h.69v5.82zM3.64-1.66c-.31 0-.37-.05-.37-.34v-3.96h1.27v4.3h-.9zm22.91 2.73c.58 0 .8-.42.8-.82 0-.42-.24-.86-.8-.86H18.6c-.22 0-.31-.12-.31-.26v-.05c0-.14.09-.26.31-.26h8.39v-2.26c0-1.11-.47-1.48-1.72-1.48h-9.03c-.53 0-.77.42-.77.82 0 .42.22.83.77.83h7.66c.18 0 .22.06.22.22v.37h-6.81c-1.28 0-2 .65-2 1.66v.17c0 1.02.72 1.92 2 1.92h9.24zM16.82-11.8c-1.61 0-1.96.38-1.96 1.87v2.47c0 1.5.35 1.88 1.96 1.88h5.33c.73 0 1-.57 1-1.07 0-.48-.27-1.03-1-1.03H18c-.26 0-.36-.06-.36-.33v-1.35c0-.24.1-.31.36-.31h3.61c.72 0 .99-.57.99-1.05 0-.5-.25-1.08-.99-1.08h-4.79zm7.27 6.43h2.8v-2.12h.43c.85 0 1.12-.62 1.12-1.2 0-.56-.26-1.19-1.12-1.19h-.43v-.89c0-.9-.67-1.4-1.4-1.4-.75 0-1.4.48-1.4 1.4v5.4z" style="display:inherit" transform="rotate(-30 581.456 -135.654)" fill="#222" font-size="14" font-family="Jalnan OTF" font-weight="400" aria-label="배달"/></g><g style="display:block"><path d="M10.15-1.62c.23 0 .34.13.34.34v2.35h2.85v-2.75c0-1.69-.33-2.17-2.09-2.17H2.52c-.79 0-1.22.45-1.22 1.11 0 .67.43 1.12 1.22 1.12h7.63zM8.84-4.67c.66 0 1.04-.53 1.04-1.04s-.32-.99-1.04-.99h-.48v-1.18c0-.83-.56-1.19-1.34-1.19-.77 0-1.34.36-1.34 1.19v1.18H4.53v-1.18c0-.83-.57-1.19-1.34-1.19-.78 0-1.34.36-1.34 1.19v1.18h-.26c-.72 0-1.04.48-1.04.99s.38 1.04 1.04 1.04h7.25zm1.58.27h2.85v-6.37c0-.9-.69-1.4-1.43-1.4s-1.42.48-1.42 1.4v6.37zM8.36-9.56c.66 0 1.04-.56 1.04-1.1 0-.53-.32-1.1-1.04-1.1H1.78c-.72 0-1.05.57-1.05 1.1 0 .54.38 1.1 1.05 1.1h6.58zm6.4 1.23c0 2.28 1.57 3.2 3.95 3.2 1.99 0 3.43-.66 3.79-2.29h1.96v2.4h2.81v-5.78c0-.89-.69-1.37-1.41-1.37-.74 0-1.4.47-1.4 1.37v1.18h-1.94c-.34-1.66-1.78-2.35-3.81-2.35-2.34 0-3.95.92-3.95 3.2v.44zm12.58 9.4v-4.3c0-.94-.61-1.35-1.4-1.35-.73 0-1.32.34-1.41 1.13h-6.31c-.1-.78-.67-1.13-1.39-1.13-.79 0-1.42.39-1.42 1.35v2.24c0 1.51.42 2.06 2 2.06h9.93zm-9.83-9.98c0-.71.49-1.06 1.2-1.06.7 0 1.2.35 1.2 1.06v.72c0 .72-.5 1.06-1.2 1.06-.71 0-1.2-.34-1.2-1.06v-.72zm1.1 8.11c-.31 0-.38-.05-.38-.36v-.49h6.29v.85h-5.91z" style="display:inherit" transform="rotate(-30 614.504 -143.299)" fill="#222" font-size="14" font-family="Jalnan OTF" font-weight="400" aria-label="픽업"/></g><g style="display:block"><path fill="#DDAB6B" d="M198.419 305.489c-.935 9.665-9.574 17.5-19.14 17.511-9.57.008-16.542-7.81-15.713-17.476.826-9.662 9.259-17.51 18.935-17.524 9.678-.011 16.852 7.823 15.918 17.489z"/><path stroke="#C38D46" stroke-width="4" d="M198.419 305.489c-.935 9.665-9.574 17.5-19.14 17.511-9.57.008-16.542-7.81-15.713-17.476.826-9.662 9.259-17.51 18.935-17.524 9.678-.011 16.852 7.823 15.918 17.489z" fill="none"/></g><g style="display:block"><path fill="#DDAB6B" d="M323.918 306.512c-.935-9.669-9.574-17.505-19.142-17.513-9.571-.007-16.542 7.812-15.709 17.474.826 9.665 9.254 17.513 18.931 17.526 9.684.011 16.855-7.822 15.92-17.487z"/><path stroke="#C38D46" stroke-width="4" d="M323.918 306.512c-.935-9.669-9.574-17.505-19.142-17.513-9.571-.007-16.542 7.812-15.709 17.474.826 9.665 9.254 17.513 18.931 17.526 9.684.011 16.855-7.822 15.92-17.487z" fill="none"/></g><g style="display:block"><path fill="#212121" d="M221.458 248.304c1.243 12.266-1.74 22.601-12.849 23.704-11.111 1.097-16.108-8.445-17.347-20.719-1.239-12.265 1.741-22.604 12.849-23.704 11.112-1.096 16.108 8.45 17.347 20.719z"/><path fill="#FFF" d="M213.042 257.703c-.622 2.323-2.545 3.832-4.288 3.365-1.745-.468-2.653-2.735-2.03-5.059.623-2.325 2.542-3.833 4.287-3.365 1.743.467 2.654 2.733 2.031 5.059zM209.017 243.356c0 4.504-2.746 8.166-6.124 8.166-3.387 0-6.126-3.662-6.126-8.166 0-4.508 2.74-8.166 6.126-8.166 3.378 0 6.124 3.658 6.124 8.166z"/></g><g style="display:block"><path fill="#212121" d="M299.48 251.223c-1.181 12.271-6.137 21.843-17.269 20.792-11.127-1.051-14.158-11.373-12.969-23.641 1.18-12.274 6.133-21.843 17.264-20.796 11.132 1.051 14.161 11.374 12.974 23.645z"/><path fill="#FFF" d="M291.428 257.672c-.6 2.238-2.453 3.693-4.133 3.243-1.682-.451-2.556-2.636-1.957-4.875.6-2.24 2.45-3.693 4.132-3.243 1.68.45 2.558 2.634 1.958 4.875zM288.127 243.356c0 4.592-2.8 8.324-6.245 8.324-3.45 0-6.243-3.732-6.243-8.324 0-4.596 2.794-8.324 6.243-8.324 3.445 0 6.245 3.728 6.245 8.324z"/></g></g></svg>