<svg xmlns="http://www.w3.org/2000/svg" width="491" height="311" style="width:100%;height:100%;transform:translate3d(0,0,0)"><defs><clipPath id="a"><path d="M0 0h491v311H0z"/></clipPath><clipPath id="b"><path d="M0 0h491v311H0z"/></clipPath></defs><g clip-path="url(#a)"><g style="display:block"><path fill="#D11" d="M336.357 291.404c5.7-11.14 17.021-21.197 17.021-39.212 0-18.019-11.32-28.076-17.021-39.215-3.845-11.908-2.954-27.025-15.692-39.763-12.741-12.742-27.857-11.847-39.764-15.696-11.143-5.7-21.196-17.018-39.214-17.018-18.018 0-28.076 11.323-39.218 17.02-11.904 3.848-27.021 2.956-39.757 15.694-12.743 12.742-11.848 27.859-15.697 39.769-5.7 11.135-17.015 21.192-17.015 39.209 0 18.017 11.32 28.075 17.02 39.218 3.844 11.906 2.952 27.019 15.693 39.754 12.737 12.742 27.853 11.847 39.761 15.696 11.141 5.699 21.196 17.018 39.213 17.018 18.018 0 28.071-11.319 39.214-17.018 11.906-3.849 27.023-2.954 39.764-15.694 12.738-12.741 11.845-27.855 15.692-39.762z"/><path stroke="#B81A1A" stroke-width="4" d="M336.357 291.404c5.7-11.14 17.021-21.197 17.021-39.212 0-18.019-11.32-28.076-17.021-39.215-3.845-11.908-2.954-27.025-15.692-39.763-12.741-12.742-27.857-11.847-39.764-15.696-11.143-5.7-21.196-17.018-39.214-17.018-18.018 0-28.076 11.323-39.218 17.02-11.904 3.848-27.021 2.956-39.757 15.694-12.743 12.742-11.848 27.859-15.697 39.769-5.7 11.135-17.015 21.192-17.015 39.209 0 18.017 11.32 28.075 17.02 39.218 3.844 11.906 2.952 27.019 15.693 39.754 12.737 12.742 27.853 11.847 39.761 15.696 11.141 5.699 21.196 17.018 39.213 17.018 18.018 0 28.071-11.319 39.214-17.018 11.906-3.849 27.023-2.954 39.764-15.694 12.738-12.741 11.845-27.855 15.692-39.762z" fill="none"/><g><path fill="#FFDA6E" d="M160.916 260.717c0-47.895 37.039-82.343 80.286-82.343 43.251 0 80.286 34.448 80.286 82.343 0 47.894-37.035 65.263-80.286 65.263-43.247 0-80.286-17.369-80.286-65.263z"/></g></g><g clip-path="url(#b)" transform="translate(0 3.377)" style="display:block"><path fill="#FFF69B" d="M3.702-3.048s-2.618-8.92-3.703-8.92-3.703 8.92-3.703 8.92S-10.473-.855-10.473 0s6.769 3.047 6.769 3.047 2.571 8.921 3.703 8.921c1.133 0 3.703-8.921 3.703-8.921S10.473.887 10.473 0c0-.888-6.771-3.048-6.771-3.048z" transform="matrix(1.0486 0 0 1.0486 282.507 115.839)" style="display:block"/><path fill="#FFF69B" d="M5.289-4.444s-3.74-13.009-5.29-13.009c-1.549 0-5.289 13.009-5.289 13.009S-14.96-1.246-14.96 0c0 1.247 9.67 4.445 9.67 4.445s3.673 13.008 5.289 13.008c1.618 0 5.29-13.008 5.29-13.008S14.96 1.295 14.96 0c0-1.295-9.671-4.444-9.671-4.444z" transform="matrix(1.0314 0 0 1.0314 112.46 121.323)" style="display:block"/><path fill="#FFF69B" d="M5.817-4.825S1.704-18.949-.001-18.949c-1.705 0-5.819 14.124-5.819 14.124S-16.456-1.353-16.456 0c0 1.355 10.636 4.826 10.636 4.826s4.04 14.123 5.819 14.123S5.817 4.826 5.817 4.826 16.456 1.405 16.456 0c0-1.405-10.639-4.825-10.639-4.825z" transform="matrix(1.0486 0 0 1.0486 399.196 234.521)" style="display:block"/><path fill="#FFF69B" d="M7.052-6.476S2.066-25.432-.001-25.432c-2.066 0-7.052 18.956-7.052 18.956S-19.947-1.816-19.947.001c0 1.816 12.894 6.476 12.894 6.476s4.897 18.955 7.052 18.955c2.157 0 7.053-18.955 7.053-18.955S19.947 1.886 19.947.001c0-1.888-12.895-6.477-12.895-6.477z" transform="matrix(1.0314 0 0 1.0314 307.939 80.433)" style="display:block"/><g style="display:block"><path fill="#FDFDFD" d="M486.392 117.78c-1.5-2.606-3.94-4.177-6.69-4.314a8.238 8.238 0 0 0-1.19.028c-3.198.305-5.919.395-8.31.276-7.792-.388-13.525-3.106-19.173-9.094-1.382-1.467-3.257-2.298-5.418-2.406-2.82-.14-5.852 1.036-7.908 3.073-8.114 8.042-27.362 22-67.5 29.374.986 3.08 1.687 7.128 1.26 12.106 0 0-2.952 13.527 6.48 21.846 1.158 1.02 2.473 1.833 3.846 2.536 3.39 1.736 12.495 7.086 16.194 15.91 26.756-3.441 65.523-16.218 88.643-59.058 1.673-3.096 1.58-7.133-.234-10.278z"/><path fill="#E73A37" d="M381.789 171.205c-1.372-.703-2.688-1.516-3.845-2.536-9.433-8.319-6.48-21.845-6.48-21.845.426-4.98-.276-9.026-1.261-12.107-3.14.576-6.394 1.118-9.795 1.61-3.632.522-6.769 2.758-8.39 5.983-1.64 3.254-1.556 6.949.229 10.14 4.384 7.847 7.82 13.234 12.166 20.056 1.197 1.875 2.46 3.86 3.834 6.032a20.53 20.53 0 0 0 6.818 6.644 8.192 8.192 0 0 0 2.847 1.418 20.703 20.703 0 0 0 6.776 1.51c.675.033 1.353.034 2.037 0 3.411-.164 7.198-.473 11.26-.996-3.701-8.823-12.806-14.173-16.196-15.909z"/><path stroke="#AF1212" stroke-width="3" d="M486.392 117.778c-1.5-2.605-3.94-4.176-6.69-4.313a8.241 8.241 0 0 0-1.19.03c-3.198.304-5.919.394-8.31.275-7.792-.388-13.525-3.106-19.173-9.094-1.382-1.467-3.257-2.3-5.418-2.407-2.82-.14-5.852 1.036-7.908 3.073-8.114 8.042-27.362 22-67.5 29.374a260.479 260.479 0 0 1-9.795 1.61c-3.633.522-6.769 2.76-8.39 5.984-1.64 3.254-1.555 6.948.229 10.14 4.385 7.847 7.82 13.233 12.167 20.055 1.197 1.876 2.46 3.86 3.833 6.032a20.527 20.527 0 0 0 6.82 6.645 8.188 8.188 0 0 0 2.845 1.418 20.713 20.713 0 0 0 6.777 1.51c.675.033 1.351.034 2.036 0 3.411-.164 7.197-.473 11.258-.996 26.756-3.44 65.523-16.217 88.643-59.057 1.673-3.096 1.58-7.134-.234-10.279z" fill="none"/><path fill="#333" d="M414.999 150.292c1.986-1.998 2.287-4.737.45-6.88l-6.424-7.493c-1.47-1.71-4.36-.129-3.256 1.16l4.737 5.523c.399.464.208 1.1-.427 1.416-.63.317-1.465.197-1.867-.266l-5.275-6.15c-.712-.61-1.684-.318-2.204-.055-.017.008-.031.017-.046.026-.017.01-.036.015-.053.022-.52.26-1.26.827-.816 1.568l5.275 6.151c.4.466.212 1.099-.423 1.417-.632.319-1.47.199-1.869-.267l-4.736-5.522c-1.106-1.287-4.156.107-2.687 1.82l6.424 7.493c1.856 2.16 5.308 3.036 8.521 2.406l12.413 14.589c.82.955 2.536 1.207 3.83.559 1.298-.651 1.68-1.955.862-2.91l-12.43-14.607zM432.728 141.602c2.83-2.372 3.421-5.86.501-9.265-3.513-4.096-10.732-6.49-15.186-4.258-4.457 2.236-4.464 8.252-.948 12.348 2.812 3.279 7.019 4.3 10.87 3.448l13.375 14.596c.821.956 2.536 1.207 3.832.556 1.298-.65 1.682-1.953.86-2.906l-13.304-14.52z"/></g><g style="display:block"><path fill="#FDFDFD" d="m284.937 55.95-.563-.474c-3.783-3.164-10.824-9.054-11.934-21.865-.31-3.591-3.402-6.242-7.52-6.447-2.352-.117-4.674.637-6.366 2.068-8.818 7.46-26.033 19.917-48.635 26.166-.119 2.598-.402 5.73-1.033 8.838a14.224 14.224 0 0 1-1.063 3.203c-1.708 3.636-5.964 15.111 2.864 24.573 0 0 5.874 7.027 9.568 15.726 18.988-4.298 52.809-15.387 66.755-41.477 1.854-3.47 1.004-7.71-2.073-10.31z"/><path fill="#E73A37" d="M207.823 67.438c.48-1.022.837-2.095 1.063-3.201.631-3.11.914-6.241 1.034-8.839-3.159.873-6.42 1.627-9.78 2.228-4.102.734-7.06 4.204-7.03 8.253.06 9.169 1.272 26.515 8.744 39.678 1.396 2.46 3.986 4.015 6.93 4.164a8.816 8.816 0 0 0 1.846-.102c2.352-.38 5.676-.987 9.625-1.88-3.693-8.701-9.567-15.727-9.567-15.727-8.829-9.462-4.572-20.937-2.865-24.574z"/><path stroke="#9C1714" stroke-width="3" d="m284.937 55.95-.563-.474c-3.783-3.164-10.824-9.054-11.934-21.865-.31-3.591-3.402-6.243-7.52-6.448-2.352-.117-4.674.637-6.366 2.068-8.818 7.46-26.033 19.917-48.635 26.166a107.63 107.63 0 0 1-9.778 2.228c-4.102.735-7.061 4.204-7.031 8.254.06 9.169 1.274 26.514 8.744 39.677 1.397 2.46 3.987 4.017 6.93 4.165a8.756 8.756 0 0 0 1.847-.102 158.51 158.51 0 0 0 9.624-1.88c18.988-4.299 52.809-15.389 66.755-41.48 1.854-3.47 1.004-7.71-2.073-10.31z" fill="none"/><path fill="#333" d="M242.479 50.695c-3.257 1.519-3.944 6.934-2.046 11.015 1.526 3.268 4.246 4.678 6.943 4.33l6.756 15.49a1.897 1.897 0 0 0 2.517.926 1.902 1.902 0 0 0 .912-2.526l-6.72-15.414c2.18-1.822 2.964-4.918 1.382-8.31-1.899-4.078-6.488-7.03-9.744-5.511zM235.749 62.938a.927.927 0 0 1-.448 1.231.923.923 0 0 1-1.227-.447l-2.85-6.123c-.414-.626-1.104-.469-1.482-.29-.013.006-.022.008-.033.016l-.039.015c-.38.18-.942.606-.726 1.321l2.852 6.124a.927.927 0 0 1-.448 1.23.927.927 0 0 1-1.228-.448l-2.56-5.497c-.599-1.282-2.812-.363-2.018 1.342l3.472 7.455a5.455 5.455 0 0 0 5.472 3.127l6.781 15.542a1.898 1.898 0 0 0 2.52.925 1.896 1.896 0 0 0 .906-2.524l-6.79-15.563a5.462 5.462 0 0 0 1.083-6.16l-3.474-7.455c-.794-1.705-2.921-.6-2.325.683l2.562 5.496z"/></g><g opacity=".4" style="display:block"><path fill="#FDFDFD" d="M196.078 24.64c-4.527-3.867-7.15-8.492-7.797-13.745-.49-4.014-3.657-7.066-7.524-7.258a7.786 7.786 0 0 0-1.471.066c-10.342 1.452-30.867 8.084-56.694 35.448 1.879 2.256 3.933 5.555 4.843 9.914 0 0 .269 10.242 15.019 13.336 0 0 4.205.249 13.424 5.762 6.608-8.936 19.434-23.22 37.613-29.788 2.75-.995 4.707-3.32 5.236-6.22.515-2.85-.472-5.657-2.649-7.516z" opacity="1"/><path fill="#E73A37" d="M127.434 49.065c-.91-4.359-2.963-7.658-4.843-9.914a217.752 217.752 0 0 0-6.21 6.86 8.13 8.13 0 0 0-1.79 7.094c1.4 6.132 7.08 17.26 29.398 22.88a8.186 8.186 0 0 0 8.825-3.434 95.63 95.63 0 0 1 3.063-4.388c-9.22-5.513-13.424-5.762-13.424-5.762-14.75-3.094-15.02-13.336-15.02-13.336z" opacity="1"/><path stroke="#9C1714" stroke-width="3" d="M196.078 24.638c-4.527-3.866-7.15-8.49-7.797-13.743-.49-4.014-3.657-7.066-7.524-7.258a7.786 7.786 0 0 0-1.471.066c-10.342 1.452-30.867 8.084-56.694 35.448a216.763 216.763 0 0 0-6.211 6.861 8.128 8.128 0 0 0-1.79 7.093c1.4 6.132 7.081 17.26 29.4 22.88a8.182 8.182 0 0 0 8.824-3.434 95.746 95.746 0 0 1 3.063-4.388c6.608-8.936 19.434-23.221 37.613-29.79 2.75-.994 4.707-3.318 5.236-6.218.515-2.85-.472-5.658-2.649-7.517z" fill="none" opacity="1"/><path fill="#221815" d="M151.819 20.708c-2.253 2.02-1.485 6.553 1.045 9.373 2.026 2.26 4.566 2.732 6.655 1.791l9.308 10.391c.591.66 1.602.717 2.256.128a1.598 1.598 0 0 0 .117-2.257l-9.259-10.336c1.31-2.002 1.187-4.689-.918-7.033-2.53-2.82-6.95-4.077-9.204-2.057zM149.389 32.218a.782.782 0 0 1-.061 1.1.782.782 0 0 1-1.1-.062l-3.797-4.233c-.485-.405-1.002-.11-1.265.125-.009.007-.015.017-.024.024l-.024.023c-.264.235-.614.717-.267 1.241l3.798 4.237a.776.776 0 0 1-.059 1.098.782.782 0 0 1-1.1-.058l-3.407-3.803c-.795-.889-2.358.396-1.3 1.575l4.624 5.158a4.596 4.596 0 0 0 5.176 1.179l9.339 10.425a1.602 1.602 0 0 0 2.256.13 1.596 1.596 0 0 0 .119-2.256l-9.352-10.44a4.601 4.601 0 0 0-.635-5.228l-4.627-5.156c-1.055-1.179-2.5.233-1.705 1.12l3.41 3.8z" opacity="1"/></g><g style="display:block"><path fill="#FDFDFD" d="M107.606 199.598c-4.675-3.41-9.281-8.223-8.003-18.076.245-1.866-.308-3.665-1.596-5.21-1.713-2.052-4.584-3.415-7.492-3.56a9.884 9.884 0 0 0-.624-.012c-2.043.025-4.184-.017-6.369-.126-12.426-.619-31.273-3.603-53.569-13.777-1.46 3.048-3.26 6.157-5.312 8.4 0 0-11.865 15.392-1.698 34.099 0 0 4.49 6.027 6.372 15.634 8.523 3.83 18.932 6.905 30.995 7.506 14.595.726 29.62-2.301 44.663-8.996 3.212-1.432 5.535-4.648 5.91-8.194.332-3.12-.863-5.924-3.277-7.688z"/><path fill="#E73A37" d="M25.97 165.623c1.506-2.009 2.848-4.416 3.983-6.786a181.413 181.413 0 0 1-8.781-4.297 9.757 9.757 0 0 0-4.072-1.12c-5.073-.253-9.526 3.488-10.135 8.516L3.4 191.354a14.01 14.01 0 0 0 4.885 12.436c4.477 3.773 11.597 8.94 21.03 13.18-1.881-9.607-6.373-15.635-6.373-15.635-4.804-8.84-4.69-16.939-3.231-23.025 1.11-4.634 3.4-8.874 6.259-12.687z"/><path fill="#221815" d="M66.365 178.2c-3.842-.487-7.585 4.054-8.195 8.865-.49 3.854 1.183 6.707 3.842 7.94l-2.376 17.513a2.046 2.046 0 0 0 1.767 2.29 2.048 2.048 0 0 0 2.284-1.777l2.361-17.422c3.037-.405 5.532-2.776 6.039-6.779.613-4.81-1.877-10.143-5.722-10.63zM53.19 185.491a.998.998 0 0 1-1.978-.253l.917-7.222c-.016-.808-.732-1.06-1.183-1.118l-.041-.002a.337.337 0 0 1-.044-.005c-.447-.059-1.205.008-1.422.784l-.918 7.224a.996.996 0 0 1-1.977-.251l.823-6.485c.193-1.515-2.357-1.947-2.61.064l-1.117 8.794a5.882 5.882 0 0 0 3.194 5.995l-2.383 17.573a2.047 2.047 0 0 0 1.764 2.29 2.047 2.047 0 0 0 2.283-1.776l2.386-17.596a5.886 5.886 0 0 0 4.527-4.99l1.114-8.797c.257-2.012-2.319-2.228-2.512-.715l-.823 6.486z"/><path stroke="#9C1714" stroke-width="3" d="M107.605 199.598c-4.675-3.41-9.28-8.223-8.002-18.076.245-1.866-.308-3.665-1.596-5.21-1.713-2.052-4.585-3.415-7.493-3.56a9.852 9.852 0 0 0-.623-.012c-2.043.025-4.184-.017-6.369-.126-12.426-.619-31.274-3.603-53.57-13.777a181.354 181.354 0 0 1-8.78-4.296 9.742 9.742 0 0 0-4.072-1.12c-5.073-.253-9.525 3.488-10.134 8.516L3.4 191.355a14.005 14.005 0 0 0 4.886 12.435c4.476 3.773 11.597 8.94 21.03 13.18 8.522 3.83 18.93 6.905 30.992 7.506 14.595.726 29.621-2.301 44.664-8.996 3.212-1.432 5.535-4.648 5.91-8.194.332-3.12-.864-5.924-3.278-7.688z" fill="none"/></g></g><g style="display:block"><path fill="#FFF" d="M164.17 324.254c-3.68 2.923-9.101 2.28-12.048-1.429l-45.044-56.694c-2.946-3.71-2.348-9.136 1.332-12.06l30.066-23.889c3.68-2.922 9.102-2.28 12.049 1.43l45.043 56.692c2.947 3.71 2.348 9.138-1.331 12.062l-30.067 23.888z"/><path stroke="#B76B6B" stroke-width="2.2" d="M164.171 324.254c-3.68 2.923-9.101 2.28-12.048-1.43l-45.044-56.694c-2.946-3.71-2.349-9.135 1.331-12.059l30.067-23.889c3.68-2.922 9.102-2.28 12.049 1.43l45.043 56.692c2.947 3.71 2.347 9.138-1.332 12.062l-30.066 23.888z" fill="none"/><path fill="#F33" d="m140.19 235.135-27.344 21.725c-2.47 1.961-2.871 5.603-.893 8.092l37.929 47.738c1.977 2.49 5.615 2.922 8.084.96l27.343-21.726c2.47-1.96 2.871-5.603.893-8.092l-37.928-47.737c-1.978-2.49-5.617-2.92-8.085-.96z"/><path fill="#E1E1E1" d="m178.521 302.565-9.07 7.207a1.502 1.502 0 0 0-.234 2.106 1.504 1.504 0 0 0 2.105.25l9.07-7.208c.642-.51.748-1.458.233-2.104a1.503 1.503 0 0 0-2.104-.251z"/></g><g style="display:block"><path d="M9.9-3.16c.18 0 .22.06.22.21v.36H3.26c-1.26 0-1.95.64-1.95 1.63v.17c0 .99.69 1.86 1.95 1.86h9.3c.57 0 .79-.42.79-.79 0-.42-.24-.84-.79-.84H4.6c-.22 0-.31-.12-.31-.26v-.04c0-.14.09-.27.31-.27h8.39v-2.2c0-1.08-.44-1.45-1.67-1.45H2.21c-.5 0-.74.42-.74.8 0 .41.22.82.74.82H9.9zM4.75-5.17c1.99 0 3.72-.91 3.72-2.78v-.52c0-.29-.08-.54-.22-.78.67-.01.98-.44.98-.94 0-.51-.32-.98-1.02-.98H6.16c-.06-.73-.6-1.18-1.41-1.18-.8 0-1.35.44-1.41 1.18H1.3c-.69 0-1.05.47-1.05.98 0 .49.34.93 1 .94-.15.24-.22.49-.22.78v.52c0 1.87 1.73 2.78 3.72 2.78zm5.34.04h2.8v-2.34h.43c.85 0 1.12-.62 1.12-1.2 0-.56-.26-1.2-1.12-1.2h-.43v-.9c0-.9-.67-1.4-1.4-1.4-.75 0-1.4.48-1.4 1.4v5.64zM4.75-7.05c-.58 0-1.15-.3-1.15-.96v-.49c0-.66.57-.96 1.15-.96s1.16.3 1.16.96v.49c0 .66-.58.96-1.16.96zm21.7 8.12c.85 0 1.18-.52 1.18-1.1 0-.56-.32-1.08-1.18-1.08h-7.66c-.31 0-.38-.05-.38-.36v-.96c0-.94-.62-1.39-1.41-1.39-.79 0-1.45.44-1.45 1.39v1.44c0 1.51.42 2.06 2 2.06h8.9zm-7.66-5.45c2.4 0 4.04-1.03 4.04-3.32v-.94c0-2.29-1.64-3.33-4.04-3.33-2.39 0-4.03 1.04-4.03 3.33v.94c0 2.29 1.64 3.32 4.03 3.32zm5.63 2.18h2.85v-8.57c0-.9-.69-1.4-1.43-1.4s-1.42.48-1.42 1.4v8.57zm-5.63-4.26c-.74 0-1.27-.34-1.27-1.13v-1.17c0-.77.53-1.14 1.27-1.14.75 0 1.27.37 1.27 1.14v1.17c0 .79-.52 1.13-1.27 1.13z" style="display:inherit" transform="rotate(-38.468 469.576 -53.156)" fill="#FFF" font-size="14" font-family="Jalnan OTF" font-weight="400" aria-label="할인"/></g><g style="display:block"><path d="M8.4.51c.81 0 1.06-.62 1.06-1.17 0-.54-.24-1.19-1.06-1.19H4.07c-.25 0-.36-.08-.36-.41V-4.5h3.78c.8 0 1.12-.58 1.12-1.15 0-.6-.31-1.17-1.12-1.17H3.71v-2.06c0-.33.11-.41.36-.41h3.76c.8 0 1.05-.65 1.05-1.2 0-.54-.24-1.18-1.05-1.18H3.06c-1.83 0-2.17.42-2.17 2.18v7.8c0 1.76.34 2.2 2.17 2.2H8.4zm4.87.56v-11.84c0-.92-.67-1.4-1.41-1.4-.75 0-1.41.48-1.41 1.4V1.07h2.82zm2.37-7.09c-.64-.01-1.03.38-1.08.96-.04.65.38 1.04 1.01 1.13.15.02.33.02.47.02 2.25-.01 4.11-.97 4.8-2.98h1.15v2.58h2.43v-6.66c0-.77-.58-1.2-1.21-1.2-.65 0-1.22.41-1.22 1.2v1.86h-.86v-.9c0-1.16-.4-1.72-1.8-1.72h-3.57c-.72 0-1 .56-1 1.04 0 .5.3 1.09 1 1.09h2.79c.2 0 .29.07.29.27v.45h-3.2c-.72 0-1.01.53-1.01 1.01s.3 1 1.01 1l1.87-.01c.28 0 .56-.06.83-.16-.52.71-1.42 1.05-2.7 1.02zm7.26 3.24c0-.84-.54-1.2-1.27-1.24-.74-.04-1.21.26-1.61 1.14-.56 1.29-2.41 1.79-3.68 1.74-.65-.03-1.17.35-1.21 1.04-.04.72.48 1.23 1.15 1.3 1.72.18 4.21-.55 5.59-1.86 1.52-.19 2.83.52 3.17 1.73h2.89c-.39-2.85-2.85-3.89-5.03-3.81v-.04zm2.13-1.04h2.46v-7.15c0-.77-.6-1.2-1.24-1.2-.65 0-1.22.41-1.22 1.2v7.15z" style="display:inherit" transform="rotate(-38.468 495.169 -61.809)" fill="#FFF" font-size="14" font-family="Jalnan OTF" font-weight="400" aria-label="티켓"/></g><g style="display:block"><path fill="#FFF" d="M255.578 257.458c-5.863 0-10.929 3.464-13.404 8.506-2.474-5.042-7.538-8.506-13.402-8.506-8.296 0-15.022 6.921-15.022 15.459 0 8.539 6.726 15.457 15.022 15.457 5.864 0 10.928-3.464 13.402-8.507 2.475 5.043 7.541 8.507 13.404 8.507 8.294 0 15.021-6.918 15.021-15.457 0-8.538-6.727-15.459-15.021-15.459z"/><path fill="#D11" d="M253.644 259.604c0 7.635-5.582 12.813-12.466 12.813-6.887 0-12.468-5.178-12.468-12.813 0-7.635 5.581-18.103 12.468-18.103 6.884 0 12.466 10.468 12.466 18.103z"/><path fill="#221F1F" d="M250.651 262.924c0 2.772-4.018 6.502-8.975 6.502-4.959 0-8.977-3.73-8.977-6.502 0-2.771 4.018-5.466 8.977-5.466 4.957 0 8.975 2.695 8.975 5.466z"/></g><g style="display:block"><path fill="#FFDA6E" d="M200.334 307.798c1.12 10.587-8.476 19.593-21.96 20.367-13.487.777-24.753-6.622-24.752-16.945-.002-10.323 10.301-19.83 22.654-20.873 12.363-1.037 22.941 6.864 24.058 17.45z"/><path stroke="#DAAA4D" stroke-width="3.5" d="M200.334 307.798c1.12 10.587-8.476 19.593-21.96 20.367-13.487.777-24.753-6.622-24.752-16.945-.002-10.323 10.301-19.83 22.654-20.873 12.363-1.037 22.941 6.864 24.058 17.45z" fill="none"/></g><g style="display:block"><path fill="#FFDA6E" d="M289.766 309.105c.454 10.638 11.269 18.132 24.722 16.914 13.448-1.218 23.505-10.197 21.985-20.408-1.519-10.208-13.111-18.098-25.483-17.308-12.379.792-21.676 10.167-21.224 20.802z"/><path stroke="#DAAA4D" stroke-width="3.5" d="M289.766 309.105c.454 10.638 11.269 18.132 24.722 16.914 13.448-1.218 23.505-10.197 21.985-20.408-1.519-10.208-13.111-18.098-25.483-17.308-12.379.792-21.676 10.167-21.224 20.802z" fill="none"/></g><path fill="#221F1F" d="M5.984.001A5.982 5.982 0 0 1 .001 5.984 5.983 5.983 0 0 1-5.984.001 5.983 5.983 0 0 1 .001-5.984 5.983 5.983 0 0 1 5.984.001z" transform="translate(205.484 250.234)" style="display:block"/><path fill="#221F1F" d="M5.984.001A5.982 5.982 0 0 1 .001 5.984 5.983 5.983 0 0 1-5.984.001 5.983 5.983 0 0 1 .001-5.984 5.983 5.983 0 0 1 5.984.001z" transform="translate(277.484 250.484)" style="display:block"/></g></svg>