<svg xmlns="http://www.w3.org/2000/svg" width="500" height="500" style="width:100%;height:100%;transform:translate3d(0,0,0)"><defs><clipPath id="a"><path d="M0 0h500v500H0z"/></clipPath></defs><g clip-path="url(#a)"><g style="display:block"><path fill="#FDD300" d="m396.839 333.2-2.87-1.463C392.3 323.3 384.84 312.963 373.144 307c-11.698-5.963-24.444-5.928-32.245-2.317l-2.878-1.467-3.215 6.308.009.004c-.073.12-.141.254-.21.388-5.04 9.889 4.044 24.61 20.286 32.89 16.241 8.28 33.492 6.983 38.533-2.907.068-.133.137-.267.191-.396l.01.004 3.215-6.307z"/><path stroke="#C28909" stroke-width="2.2" d="m396.839 333.2-2.87-1.463C392.3 323.3 384.84 312.963 373.144 307c-11.698-5.963-24.444-5.928-32.245-2.317l-2.878-1.467-3.215 6.308.009.004c-.073.12-.141.254-.21.388-5.04 9.889 4.044 24.61 20.286 32.89 16.241 8.28 33.492 6.983 38.533-2.907.068-.133.137-.267.191-.396l.01.004 3.215-6.307z" fill="none"/></g><path fill="#FDD300" d="M33.009.003c0 11.1-14.78 20.09-33.01 20.09-4.81 0-9.37-.62-13.49-1.75-11.51-3.14-19.52-10.17-19.52-18.34 0-11.1 14.78-20.1 33.01-20.1 18.23 0 33.01 9 33.01 20.1" transform="rotate(27.011 -475.776 924.717)" style="display:block"/><g style="display:block"><path fill="#FDD300" d="M397.48 331.942c-5.041 9.89-22.292 11.186-38.534 2.907-4.285-2.185-8.066-4.808-11.223-7.686-8.829-8.025-12.772-17.926-9.062-25.205 5.042-9.889 22.297-11.195 38.538-2.915 16.242 8.28 25.322 23.01 20.28 32.9z"/><path stroke="#C28909" stroke-width="2.2" d="M397.48 331.942c-5.041 9.89-22.292 11.186-38.534 2.907-4.285-2.185-8.066-4.808-11.223-7.686-8.829-8.025-12.772-17.926-9.062-25.205 5.042-9.889 22.297-11.195 38.538-2.915 16.242 8.28 25.322 23.01 20.28 32.9z" fill="none"/></g><g opacity=".5" style="display:block"><path stroke-linecap="round" stroke-linejoin="round" stroke="#FFF" stroke-width="3" d="M343.385 304.358c4.028-7.903 17.878-8.913 30.938-2.255" fill="none" opacity="1"/></g><path stroke="#C1890A" stroke-width="1.5" d="M-.001 4.177v-8.35" fill="none" transform="rotate(27.011 -511.453 877.001)" style="display:block"/><path stroke="#C1890A" stroke-width="1.5" d="M-.001 4.031v-8.06" fill="none" transform="rotate(27.011 -518.61 890.477)" style="display:block"/><path stroke="#C1890A" stroke-width="1.5" d="M-.001 4.313v-8.63" fill="none" transform="rotate(27.011 -529.735 948.585)" style="display:block"/><path stroke="#C1890A" stroke-width="1.5" d="M-.001 4.177v-8.35" fill="none" transform="rotate(27.011 -500.256 865.127)" style="display:block"/><g opacity=".43" style="display:block"><path fill="#FFF" d="m369.717 318.666-4.704-2.398 2.53-4.963 4.704 2.398c2.236 1.14 2.317 2.764 1.69 3.994-.626 1.23-1.984 2.109-4.22.969zm-11.617 5.696c1.238.631 2.555.45 3.1-.62l2.157-4.232 5.078 2.59c4.98 2.538 8.474.727 9.936-2.142 1.467-2.878.88-6.768-4.1-9.307l-7.02-3.579c-1.488-.758-2.904-.448-3.53.782l-6.95 13.631c-.544 1.07.082 2.241 1.329 2.877z" opacity="1"/></g><path fill="#C1890A" d="M.978-.569h-5.28v-5.57h5.28c2.51 0 3.32 1.41 3.32 2.79 0 1.38-.81 2.78-3.32 2.78zM-6.785 9.782c1.39 0 2.48-.76 2.48-1.96v-4.75h5.7c5.59 0 7.88-3.2 7.88-6.42 0-3.23-2.29-6.43-7.88-6.43h-7.88c-1.67 0-2.79.92-2.79 2.3v15.3c0 1.2 1.09 1.96 2.49 1.96z" transform="rotate(27.011 -477.423 925.573)" style="display:block"/><g style="display:block"><path fill="#FDD300" d="m185.518 255.433-3.126 1.805c-8.906-3.565-23.129-2.86-35.824 4.47-12.696 7.33-20.41 19.29-21.784 28.79l-3.118 1.8 3.955 6.85.008-.005c.072.144.157.29.237.43 6.2 10.738 25.51 11.183 43.142 1.003s26.91-27.13 20.71-37.869c-.08-.138-.174-.28-.254-.419l.009-.005-3.955-6.85z"/><path stroke="#C28909" stroke-width="2.2" d="m185.518 255.433-3.126 1.805c-8.906-3.565-23.129-2.86-35.824 4.47-12.696 7.33-20.41 19.29-21.784 28.79l-3.118 1.8 3.955 6.85.008-.005c.072.144.157.29.237.43 6.2 10.738 25.51 11.183 43.142 1.003s26.91-27.13 20.71-37.869c-.08-.138-.174-.28-.254-.419l.009-.005-3.955-6.85z" fill="none"/></g><path fill="#FDD300" d="M36.866-.002c0 12.4-16.51 22.44-36.87 22.44-5.36 0-10.46-.69-15.06-1.95-12.85-3.51-21.8-11.36-21.8-20.49 0-12.39 16.5-22.44 36.86-22.44s36.87 10.05 36.87 22.44" transform="rotate(-30 584.9 -148.885)" style="display:block"/><g style="display:block"><path fill="#FDD300" d="M184.73 254.068c6.2 10.74-3.078 27.689-20.71 37.869-4.642 2.68-9.404 4.632-14.018 5.841-12.883 3.385-24.56 1.062-29.124-6.845-6.195-10.73 3.07-27.683 20.702-37.863s36.955-9.732 43.15.998z"/><path stroke="#C28909" stroke-width="2.2" d="M184.73 254.068c6.2 10.74-3.078 27.689-20.71 37.869-4.642 2.68-9.404 4.632-14.018 5.841-12.883 3.385-24.56 1.062-29.124-6.845-6.195-10.73 3.07-27.683 20.702-37.863s36.955-9.732 43.15.998z" fill="none"/></g><g opacity=".5" style="display:block"><path stroke-linecap="round" stroke-linejoin="round" stroke="#FFF" stroke-width="3" d="M126.004 287.979c-4.955-8.583 2.522-22.172 16.699-30.357" fill="none" opacity="1"/></g><path stroke="#C1890A" stroke-width="1.5" d="M0 4.66v-9.32" fill="none" transform="rotate(-30 639.437 -123.79)" style="display:block"/><path stroke="#C1890A" stroke-width="1.5" d="M0 4.501v-9" fill="none" transform="rotate(-30 639.297 -139.165)" style="display:block"/><path stroke="#C1890A" stroke-width="1.5" d="M0 4.819v-9.64" fill="none" transform="rotate(-30 621.201 -195.968)" style="display:block"/><path stroke="#C1890A" stroke-width="1.5" d="M0 4.66v-9.32" fill="none" transform="rotate(-30 635.234 -107.892)" style="display:block"/><g opacity=".43" style="display:block"><path fill="#FFF" d="m155.418 272.007-5.11 2.95-3.11-5.387 5.11-2.95c2.425-1.4 3.998-.495 4.768.839.775 1.342.767 3.148-1.658 4.548zm-1.734 14.345c1.35-.78 1.974-2.121 1.304-3.282l-2.65-4.59 5.516-3.185c5.404-3.12 5.836-7.491 4.036-10.609-1.8-3.118-5.807-4.938-11.21-1.818l-7.622 4.4c-1.62.935-2.187 2.452-1.417 3.786l8.54 14.791c.67 1.16 2.152 1.287 3.503.507z" opacity="1"/></g><path fill="#C1890A" d="M1.096-.635h-5.9v-6.22h5.9c2.8 0 3.71 1.57 3.71 3.11 0 1.55-.91 3.11-3.71 3.11zm-8.674 11.556c1.56 0 2.77-.85 2.77-2.19v-5.3h6.37c6.24 0 8.8-3.57 8.8-7.17s-2.56-7.18-8.8-7.18h-8.8c-1.87 0-3.12 1.03-3.12 2.57v17.08c0 1.34 1.22 2.19 2.78 2.19z" transform="rotate(-30 585.947 -150.436)" style="display:block"/><path fill="#FD0" d="M7.053-6.472s-4.99-18.96-7.05-18.96c-2.07 0-7.06 18.96-7.06 18.96s-12.89 4.66-12.89 6.47c0 1.82 12.89 6.48 12.89 6.48s4.9 18.95 7.06 18.95c2.15 0 7.05-18.95 7.05-18.95s12.89-4.59 12.89-6.48c0-1.88-12.89-6.47-12.89-6.47" transform="translate(78.947 324.432)" style="display:block"/><g opacity=".2" style="display:block"><path fill="#FD0" d="M55.17 354.92s-2.61-8.92-3.7-8.92c-1.08 0-3.7 8.92-3.7 8.92S41 357.11 41 357.97c0 .85 6.77 3.05 6.77 3.05s2.57 8.92 3.7 8.92c1.13 0 3.7-8.92 3.7-8.92s6.77-2.16 6.77-3.05c0-.89-6.77-3.05-6.77-3.05" opacity="1"/></g><path fill="#FD0" d="M5.814-4.829s-4.11-14.12-5.81-14.12c-1.71 0-5.82 14.12-5.82 14.12s-10.64 3.48-10.64 4.83 10.64 4.83 10.64 4.83 4.04 14.12 5.82 14.12c1.78 0 5.81-14.12 5.81-14.12s10.64-3.42 10.64-4.83c0-1.41-10.64-4.83-10.64-4.83" transform="translate(457.456 310.949)" style="display:block"/><g opacity=".2" style="display:block"><path fill="#FD0" d="M239.27 247.12S235.16 233 233.46 233c-1.71 0-5.82 14.12-5.82 14.12S217 250.6 217 251.95s10.64 4.83 10.64 4.83 4.04 14.12 5.82 14.12c1.78 0 5.81-14.12 5.81-14.12s10.64-3.42 10.64-4.83c0-1.41-10.64-4.83-10.64-4.83" opacity="1"/></g><path fill="#FD0" d="M5.29-4.443S1.55-17.453 0-17.453c-1.55 0-5.29 13.01-5.29 13.01s-9.67 3.2-9.67 4.44c0 1.25 9.67 4.45 9.67 4.45s3.67 13.01 5.29 13.01 5.29-13.01 5.29-13.01 9.67-3.15 9.67-4.45c0-1.29-9.67-4.44-9.67-4.44" transform="translate(113.96 175.453)" style="display:block"/><g style="display:block"><path fill="#FDD300" d="M223.637 107.776c5.717 21.338-6.947 43.273-28.285 48.99a39.84 39.84 0 0 1-16.693.87c-15.083-2.429-28.085-13.438-32.296-29.154-5.718-21.337 6.947-43.273 28.284-48.99 21.337-5.717 43.272 6.947 48.99 28.284z"/><path stroke="#C28909" stroke-width="2.2" d="M223.637 107.776c5.717 21.338-6.947 43.273-28.285 48.99a39.84 39.84 0 0 1-16.693.87c-15.083-2.429-28.085-13.438-32.296-29.154-5.718-21.337 6.947-43.273 28.284-48.99 21.337-5.717 43.272 6.947 48.99 28.284z" fill="none"/></g><g style="display:block"><path fill="#FDD300" d="M222.637 105.776c5.717 21.337-6.947 43.272-28.284 48.99a39.84 39.84 0 0 1-16.694.87c-15.083-2.43-28.085-13.439-32.296-29.155-5.718-21.337 6.947-43.272 28.284-48.99 21.337-5.717 43.273 6.948 48.99 28.285z"/><path stroke="#C28909" stroke-width="2.2" d="M222.637 105.776c5.717 21.337-6.947 43.272-28.284 48.99a39.84 39.84 0 0 1-16.694.87c-15.083-2.43-28.085-13.439-32.296-29.155-5.718-21.337 6.947-43.272 28.284-48.99 21.337-5.717 43.273 6.948 48.99 28.285z" fill="none"/></g><g opacity=".5" style="display:block"><path stroke-linecap="round" stroke-linejoin="round" stroke="#FFF" stroke-width="3" d="M151.158 124.929c-4.86-18.14 5.902-36.781 24.042-41.642" fill="none" opacity="1"/></g><g opacity=".43" style="display:block"><path d="M8.99-20.74h6.85c3.27 0 4.32 2.21 4.32 4.39 0 2.17-1.05 4.39-4.32 4.39H8.99v-8.78zm0 14.5h7.4c7.25 0 10.22-5.04 10.22-10.11 0-5.08-2.97-10.12-10.22-10.12H6.16c-2.17 0-3.62 1.45-3.62 3.63V1.23c0 1.89 1.41 3.08 3.22 3.08 1.82 0 3.23-1.19 3.23-3.08v-7.47z" transform="rotate(-15 575.493 -596.105)" opacity="1" fill="#FFF" style="display:inherit" font-size="36" font-family="Sandoll Gyeokdonggulim" font-weight="400" aria-label="P"/></g><g style="display:block"><path d="M8.99-20.74h6.85c3.27 0 4.32 2.21 4.32 4.39 0 2.17-1.05 4.39-4.32 4.39H8.99v-8.78zm0 14.5h7.4c7.25 0 10.22-5.04 10.22-10.11 0-5.08-2.97-10.12-10.22-10.12H6.16c-2.17 0-3.62 1.45-3.62 3.63V1.23c0 1.89 1.41 3.08 3.22 3.08 1.82 0 3.23-1.19 3.23-3.08v-7.47z" transform="rotate(-15 572.195 -591.807)" fill="#C28A0A" style="display:inherit" font-size="36" font-family="Sandoll Gyeokdonggulim" font-weight="400" aria-label="P"/></g><g style="display:block"><path fill="#DDAA6B" d="M216.162 180.922s8.896-9.658 10.06-24.112c1.155-14.463-4.993-28.48 4.946-30.022 9.94-1.532 8.892 11.542 9.142 23.664.25 12.122-1.694 22.96-7.691 32.816"/><path stroke="#C38D47" stroke-width="2.5" d="M216.162 180.922s8.896-9.658 10.06-24.112c1.155-14.463-4.993-28.48 4.946-30.022 9.94-1.532 8.892 11.542 9.142 23.664.25 12.122-1.694 22.96-7.691 32.816" fill="none"/></g><g style="display:block"><path fill="#DDAA6B" d="M273.657 163.447s4.693-10.6 11.158-6.153c6.476 4.45.212 19.514-8.599 19.98"/><path stroke="#C38D47" stroke-width="2.5" d="M273.657 163.447s4.693-10.6 11.158-6.153c6.476 4.45.212 19.514-8.599 19.98" fill="none"/></g><g style="display:block"><path fill="#DDAA6B" d="M274.16 189.219c9.27 4.667 11.947-.107 14 3.467 2.052 3.584-19.916 18.884-32.286 7.56"/><path stroke="#C38D47" stroke-width="2.5" d="M274.16 189.219c9.27 4.667 11.947-.107 14 3.467 2.052 3.584-19.916 18.884-32.286 7.56" fill="none"/></g><g style="display:block"><path fill="#DDAA6B" d="M250.2 163.365c-17.45 12.96-35.61 26.59-39.31 8.31l-17.08 17.7s.46 1.22 1.53 3.08c-16.55-1.3-28.788-13.228-32.47-23.49-3.621-10.243-8.696-22.557-16.39-18.998-7.906 3.734-3.561 27.052 15.43 41.958 17.535 13.733 40.13 12.88 44.21 12.45 5.66 4.08 13.6 7.47 24.51 7.72 26.41.59 40.18-8.43 45.73-26.32 7.65-24.68-8.7-35.37-26.16-22.41"/><path stroke="#C38D47" stroke-width="2.5" d="M250.2 163.365c-17.45 12.96-35.61 26.59-39.31 8.31l-17.08 17.7s.46 1.22 1.53 3.08c-16.55-1.3-28.788-13.228-32.47-23.49-3.621-10.243-8.696-22.557-16.39-18.998-7.906 3.734-3.561 27.052 15.43 41.958 17.535 13.733 40.13 12.88 44.21 12.45 5.66 4.08 13.6 7.47 24.51 7.72 26.41.59 40.18-8.43 45.73-26.32 7.65-24.68-8.7-35.37-26.16-22.41" fill="none"/></g><path fill="#221F1F" d="M-5.84-5.733s-.1-6.29 5.94-5.37c6.04.93 6.81 15.1 4.62 22.3" transform="translate(223.787 145.445)" style="display:block"/><g style="display:block"><path fill="#DDAA6B" d="M200.385 193.767s-29.56 6.46-39.76-15.02c-11.75-27.53 9.23-46.41 27.2-49.63 31.03-7.97 64.98 27.46 31.05 56.25"/><path stroke="#C38D47" stroke-width="2.5" d="M200.385 193.767s-29.56 6.46-39.76-15.02c-11.75-27.53 9.23-46.41 27.2-49.63 31.03-7.97 64.98 27.46 31.05 56.25" fill="none"/></g><path fill="#221F1F" d="M-1.583-15.53c2.468-.086 4.528 9.4 6.835 16.533 2.28 7.45 6.064 10.38 5.622 14.43-.963 7.095-15.741 2.322-18.674-10.8-2.774-12.398 1.513-18.168 6.217-20.163z" transform="translate(157.6 171.725)" style="display:block"/><path fill="#FFF" d="M13.52 15.86C33.49-10.83 11.59-31.92-3.02-33.4c-14.61-1.48-15.63 6.73-15.63 6.73-23.03-.78-34.75 17.48-24.11 38.06C-32.13 31.96-5.22 25.33-2.71 26.48c6.13 2.8 15.89 9.37 29.49 6.3 13.59-3.07 23.05-16.12 18.99-26.67-4.08-10.52-12.35-1.72-21.39 3.13-7.5 4.24-10.92 6.61-10.92 6.61" transform="translate(210.16 164.912)" style="display:block"/><g style="display:block"><path fill="#DDAA6B" d="M264.952 191.66s5.38-11.117-2.108-14.83c-8.409-4.17-10.67 13.16-10.67 13.16"/><path stroke-linecap="round" stroke-linejoin="round" stroke="#C38D47" stroke-width="3" d="M264.952 191.66s5.38-11.117-2.108-14.83c-8.409-4.17-10.67 13.16-10.67 13.16" fill="none"/></g><path fill="#CA9957" d="M13.367.147c-2.82 8.22-10.84 14.88-17.43 15.4-6.6.51-10.9-5.69-9.91-14.49.99-8.81 8.02-16.61 16.37-16.63 8.36-.02 13.78 7.49 10.97 15.72" transform="translate(178.527 156.638)" style="display:block"/><path fill="#CA9957" d="M-9.853 4.867c5.57 3.75 13.09 5.75 18.78 4.49 6.38-1.73 6.95-7.31 1.28-12.43-5.66-5.12-14.43-8.1-19.98-5.96-5.56 2.15-5.98 9.14-.08 13.9" transform="translate(210.647 141.065)" style="display:block"/><path fill="#FFF" d="M-2.097 2.467s4.22 2.46 8.15.92c1.55-2.55-3.69-8.71-10.13-6.98l-2.25 1.07" transform="translate(202.86 147.878)" style="display:block"/><path fill="#221F1F" d="M3.477-2.267c.8 1.76.62 3.62-2.09 5.02-2.71 1.39-4.19.39-4.99-1.37-.8-1.77.05-2.15 2.76-3.54 2.71-1.4 3.52-1.87 4.32-.11" transform="translate(197.06 145.195)" style="display:block"/><path stroke-linecap="round" stroke-linejoin="round" stroke="#221F1F" stroke-width="3" d="M-.807 6.323s8.46-10.24 6.95-12.15c-1.5-1.92-12.47 2.33-12.47 2.33" fill="none" transform="matrix(.99594 0 0 .99016 180.497 154.149)" style="display:block"/><path stroke-linecap="round" stroke-linejoin="round" stroke="#221F1F" stroke-width="3" d="M5.84 4.38S-4.8 2.49-5.76 1.05c-.96-1.44 7.04-5.43 7.04-5.43" fill="none" transform="matrix(.99669 0 0 .9919 208.195 139.603)" style="display:block"/><path stroke-linecap="round" stroke-linejoin="round" stroke="#221F1F" stroke-width="2" d="M-6.327-2.92s3.67 5.27 6.78 5.74c3.11.48 5.87-.94 5.87-.94" fill="none" transform="translate(203.833 148.852)" style="display:block"/><path stroke-linecap="round" stroke-linejoin="round" stroke="#221F1F" stroke-width="2" d="M2.88-7.3S6.44-.92 2.59 3.66C-1.25 8.23-4.38 7.2-4.38 7.2" fill="none" transform="translate(195.073 152.258)" style="display:block"/><path fill="#D11" d="M-4.41-13.14c1.93 2.01 8.19 2.34 8.19 2.34s7.755 15.219.385 17.639C-3.215 9.259-8.76-2.72-8.76-2.72c5.24-5.31 4.35-10.42 4.35-10.42" transform="rotate(.095 -125257.81 157577.404)" style="display:block"/><path fill="#EE7B64" d="M6.043-2.573c.41 2.35-.538 2.456-1.278 3.936-.5.79-1.23 1.39-2.27 1.71-.36.1-.71.17-1.06.21-3.25 0-5.432-1.376-7.762-4.806.83-1.31 2.58-3.01 5.96-2.64 0 0 2.36-2.64 5.2-.05.49.44.88 1.01 1.21 1.64" transform="matrix(1 0 0 1 204.755 165.928)" style="display:block"/><path stroke-linecap="round" stroke-linejoin="round" stroke="#221F1F" stroke-width="2" d="M-4.41-13.14c1.93 2.01 8.19 2.34 8.19 2.34s7.624 15.355.254 17.775C-3.346 9.395-8.76-2.72-8.76-2.72c5.24-5.31 4.35-10.42 4.35-10.42z" fill="none" transform="matrix(1 0 0 1 203.347 161.992)" style="display:block"/></g></svg>