<svg xmlns="http://www.w3.org/2000/svg" width="390" height="390" style="width:100%;height:100%;transform:translate3d(0,0,0)"><defs><clipPath id="a"><path d="M0 0h390v390H0z"/></clipPath></defs><g clip-path="url(#a)"><g opacity=".1" style="display:block"><path fill="#221F1F" d="M198.828 369.68c0 4.384-24.401 7.937-54.5 7.937-30.1 0-54.5-3.553-54.5-7.937s24.4-7.937 54.5-7.937c30.099 0 54.5 3.553 54.5 7.937z" opacity="1"/></g><g style="display:block"><path fill="#AE8638" d="M174.04 348.976c-5.007.439-10.383-.21-15.951-2.514-24.356-10.075-28.842-33.435-29.021-34.425a4.951 4.951 0 0 1 3.99-5.753 4.948 4.948 0 0 1 5.749 3.975c.16.839 3.859 19.11 23.066 27.054 18.34 7.588 32.388-9.659 32.977-10.396 1.703-2.132 4.815-2.491 6.95-.795a4.94 4.94 0 0 1 .814 6.935c-4.744 6.018-15.372 14.761-28.575 15.919z"/><path fill="#D11" d="M212.441 337.964c1.372-.795 3.265-1.087 4.504-3.006 1.234-1.917.72-3.764.878-5.34.408-1.533 1.54-3.081 1.057-5.312-.478-2.231-2.15-3.173-3.154-4.399-.795-1.37-1.089-3.265-3.007-4.501-1.919-1.238-3.764-.722-5.342-.882-1.532-.407-3.079-1.54-5.311-1.058-2.228.483-3.172 2.154-4.4 3.157-1.37.794-3.265 1.088-4.5 3.007-1.237 1.916-.724 3.763-.88 5.34-.41 1.532-1.542 3.08-1.058 5.309.48 2.233 2.15 3.174 3.154 4.401.796 1.371 1.088 3.267 3.005 4.503 1.919 1.236 3.767.723 5.341.879 1.534.407 3.084 1.542 5.314 1.059 2.229-.482 3.172-2.153 4.4-3.157z"/></g><g style="display:block"><path fill="#FFD769" d="M188.926 282.463c.162 1.85.295 3.687.395 5.502.522 9.465 1.7 17.208 1.45 23.324.076 2.503.146 20.094-11.225 49.116 0 0 12.308 11.6-17.012 9.823-27.804-1.685-4.739-25.088-18.338-40.165-13.6 15.077 9.463 38.48-18.339 40.165-29.319 1.777-17.012-9.823-17.012-9.823-11.407-29.109-11.301-46.719-11.225-49.138-.245-6.114.929-13.849 1.451-23.302.122-2.21.293-4.453.503-6.71 1.524-9.998 6.609-39.369 6.609-39.369 2.15-9.476 3.936-15.81 3.936-15.81H178.272s1.879 6.659 4.101 16.537c0 0 4.318 17.757 6.553 39.85z"/><path stroke-linecap="round" stroke-linejoin="round" stroke="#DBAF5A" stroke-width="3" d="M188.926 282.463c.162 1.85.295 3.687.395 5.502.522 9.465 1.7 17.208 1.45 23.324.076 2.503.146 20.094-11.225 49.116 0 0 12.308 11.6-17.012 9.823-27.804-1.685-4.739-25.088-18.338-40.165-13.6 15.077 9.463 38.48-18.339 40.165-29.319 1.777-17.012-9.823-17.012-9.823-11.407-29.109-11.301-46.719-11.225-49.138-.245-6.114.929-13.849 1.451-23.302.122-2.21.293-4.453.503-6.71 1.524-9.998 6.609-39.369 6.609-39.369 2.15-9.476 3.936-15.81 3.936-15.81H178.272s1.879 6.659 4.101 16.537c0 0 4.318 17.757 6.553 39.85z" fill="none"/></g><g style="display:block"><path fill="#FFD769" d="M197.505 264.438c-.996 8.096-7.343 13.979-14.178 13.138-6.834-.84-11.567-8.086-10.572-16.182.996-8.095 7.344-13.977 14.178-13.137 6.835.84 11.568 8.086 10.572 16.18z"/><path fill="#FFD769" d="M193.427 242.32c15.676 8.648 28.99 22.597 38.663 39.892 13.04 23.317-13.855 40.651-27.4 22.216-5.473-7.625-13.469-17.273-19.013-25.5"/><path stroke-linecap="round" stroke-linejoin="round" stroke="#DBAF5A" stroke-width="3" d="M193.427 242.32c15.676 8.648 28.99 22.597 38.663 39.892 13.04 23.317-13.855 40.651-27.4 22.216-5.473-7.625-13.469-17.273-19.013-25.5" fill="none"/><path fill="#C99655" d="M232.933 268.647a19.8 19.8 0 0 1 5.03 11.504c.075.807.934 1.378 1.704 1.265.84-.123 1.34-.894 1.265-1.703-.438-4.755-2.443-9.36-5.634-12.912-.541-.603-1.436-.782-2.106-.26-.605.473-.802 1.501-.259 2.106zM236.563 261.037a13.906 13.906 0 0 1 1.576 2.021c.042.066.082.133.124.198.105.167-.02-.028-.051-.089.07.138.155.27.229.407a13.678 13.678 0 0 1 1.057 2.54c.065.219.01.07-.016-.061.03.152.079.3.115.452.094.389.248.724.575.974.296.225.756.363 1.129.29.739-.142 1.462-.887 1.264-1.703-.615-2.556-1.83-4.953-3.638-6.875-.279-.297-.581-.515-.998-.566-.366-.045-.822.064-1.107.307-.573.488-.834 1.494-.259 2.105z"/></g><g style="display:block"><path fill="#FFD769" d="M113.84 264.369c-.102 8.78-4.799 15.845-10.492 15.78-5.693-.066-10.226-7.237-10.125-16.018.1-8.78 4.799-15.846 10.491-15.78 5.694.066 10.227 7.237 10.125 16.018z"/><path fill="#FFD769" d="M102.02 279.926c-17.895-.52-38.027-7.165-54.539-18.12-22.262-14.77-6.273-42.487 14.204-32.289 13.328 6.823 38.564 19.277 45.163 20.165"/><path stroke-linecap="round" stroke-linejoin="round" stroke="#DBAF5A" stroke-width="3" d="M102.02 279.926c-17.895-.52-38.027-7.165-54.539-18.12-22.262-14.77-6.273-42.487 14.204-32.289 13.328 6.823 38.564 19.277 45.163 20.165" fill="none"/><path fill="#C99655" d="M28.078 243.627c-2.524 6.816-.501 14.704 4.906 19.53 1.44 1.285 3.235-1.12 1.8-2.4-4.37-3.901-5.955-10.521-3.928-15.997.67-1.81-2.106-2.948-2.778-1.133zM19.865 248.826c-.165 3.12.416 6.203 1.634 9.075.306.723 1.376 1.002 2.03.616.75-.445.946-1.256.617-2.032a19.849 19.849 0 0 1-.295-.729c.05.13.042.109-.021-.067-.1-.298-.202-.597-.29-.898a18.619 18.619 0 0 1-.652-3.352 16.854 16.854 0 0 1-.028-.428 18.907 18.907 0 0 1 .002-2.045c.04-.783-.621-1.567-1.428-1.569-.817-.001-1.524.59-1.569 1.429z"/></g><g style="display:block"><path fill="#D11" d="M243.017 210.765c6.717-10.706 18.993-19.828 20.585-37.955 1.587-18.13-8.913-29.245-13.666-40.956-2.819-12.32-.587-27.452-12.282-41.394-11.696-13.944-26.983-14.38-38.625-19.302-10.707-6.719-19.826-18.994-37.954-20.583-18.13-1.59-29.248 8.916-40.962 13.666-12.32 2.82-27.447.588-41.39 12.283-13.944 11.695-14.377 26.985-19.301 38.63-6.716 10.701-18.992 19.82-20.581 37.95-1.59 18.128 8.914 29.248 13.666 40.962 2.818 12.318.589 27.448 12.283 41.386 11.693 13.943 26.98 14.377 38.622 19.3 10.707 6.718 19.826 18.993 37.955 20.582 18.127 1.59 29.244-8.91 40.957-13.663 12.32-2.822 27.452-.588 41.394-12.282 13.943-11.694 14.376-26.982 19.299-38.624z"/><path stroke-linecap="round" stroke-linejoin="round" stroke="#BB0F0F" stroke-width="3" d="M243.017 210.765c6.717-10.706 18.993-19.828 20.585-37.955 1.587-18.13-8.913-29.245-13.666-40.956-2.819-12.32-.587-27.452-12.282-41.394-11.696-13.944-26.983-14.38-38.625-19.302-10.707-6.719-19.826-18.994-37.954-20.583-18.13-1.59-29.248 8.916-40.962 13.666-12.32 2.82-27.447.588-41.39 12.283-13.944 11.695-14.377 26.985-19.301 38.63-6.716 10.701-18.992 19.82-20.581 37.95-1.59 18.128 8.914 29.248 13.666 40.962 2.818 12.318.589 27.448 12.283 41.386 11.693 13.943 26.98 14.377 38.622 19.3 10.707 6.718 19.826 18.993 37.955 20.582 18.127 1.59 29.244-8.91 40.957-13.663 12.32-2.822 27.452-.588 41.394-12.282 13.943-11.694 14.376-26.982 19.299-38.624z" fill="none"/><path fill="#FFD769" d="M144.7 237.34c-43.368-3.803-78.973-24.548-74.745-72.77 4.229-48.224 44.409-79.651 87.776-75.848 43.37 3.803 77.463 41.743 73.235 89.966-4.229 48.223-42.897 62.454-86.267 58.651z"/><path fill="#FFF" d="M164.838 168.962c-5.895-.517-11.285 2.422-14.206 7.13-2.055-5.145-6.852-8.976-12.747-9.493-8.343-.732-15.697 5.436-16.429 13.78-.731 8.34 5.437 15.694 13.78 16.426 5.895.517 11.286-2.423 14.205-7.13 2.057 5.144 6.853 8.976 12.749 9.493 8.34.732 15.696-5.437 16.427-13.777.731-8.343-5.438-15.697-13.779-16.429z"/><path fill="#221F1F" d="M121.722 158.154a5.996 5.996 0 0 1-6.497 5.449 5.996 5.996 0 1 1 1.047-11.948 5.997 5.997 0 0 1 5.45 6.499zM192.968 164.4a5.91 5.91 0 0 1-6.403 5.37 5.908 5.908 0 0 1-5.369-6.401 5.908 5.908 0 1 1 11.772 1.032z"/><path fill="#D11" d="M163.224 170.189c-.658 7.504-6.72 12.101-13.645 11.494-6.928-.608-12.095-6.19-11.437-13.693.658-7.506 7.174-17.304 14.102-16.697 6.925.608 11.638 11.39 10.98 18.896z"/><path fill="#221F1F" d="M159.392 173.12c-.244 2.783-4.598 6.173-9.564 5.738-4.97-.436-8.667-4.533-8.423-7.316.244-2.782 4.507-5.136 9.476-4.7 4.967.435 8.755 3.495 8.511 6.277z"/></g><g opacity=".1" style="display:block"><path fill="#221F1F" d="M339.259 369.679c0 2.528-10.97 4.577-24.5 4.577-13.531 0-24.5-2.049-24.5-4.577s10.969-4.578 24.5-4.578c13.53 0 24.5 2.05 24.5 4.578z" opacity="1"/></g><g style="display:block"><path fill="#963" d="M328.608 346.615s-1.669 9.484 4.965 13.717c6.634 4.234-7.551 4.811-17.352-4.113"/><path fill="#221F1F" d="M271.607 274.107s-11.919 6.458-11.919 18.295c0 11.833 9.058 17.469 15.916 15.018M352.563 274.107s11.918 6.458 11.918 18.295c0 11.833-9.058 17.469-15.916 15.018"/><path fill="#DDAB6B" d="M298.094 359.69s.7 10.203 6.931 11.119c6.231.913 5.224-3.338 4.888-7.931"/><path stroke-miterlimit="10" stroke="#C99655" stroke-width="2" d="M298.094 359.69s.7 10.203 6.931 11.119c6.231.913 5.224-3.338 4.888-7.931" fill="none"/><path fill="#DDAB6B" d="M326.304 359.69s-.701 10.203-6.933 11.119c-6.229.913-5.221-3.338-4.886-7.931"/><path stroke-miterlimit="10" stroke="#C99655" stroke-width="2" d="M326.304 359.69s-.701 10.203-6.933 11.119c-6.229.913-5.221-3.338-4.886-7.931" fill="none"/><path fill="#DDAB6B" d="M327.454 319.615c1.005-.443 2.066-.743 3.146-.948 14.304-2.724 25.897-10.307 25.897-29.474 0-27.12-19.946-39.949-44.552-39.949-24.605 0-44.552 12.829-44.552 39.949 0 16.505 7.056 23.707 18.617 27.289 0 0 3.931 1.204 6.004 1.716.674.166 1.335.384 1.975.655 1.514.643 2.96 1.487 3.9 2.572.712.824.805 2.006.337 2.991-2.846 5.994-4.973 13.06-5.845 19.277-2.003 14.265 8.265 21.718 19.694 21.794 11.531.075 21.755-7.273 19.384-21.529-1.078-6.479-3.432-13.916-6.501-20.114-.503-1.015-.35-2.272.492-3.032.544-.491 1.254-.866 2.004-1.197z"/><path stroke-miterlimit="10" stroke="#C99655" stroke-width="2" d="M327.454 319.615c1.005-.443 2.066-.743 3.146-.948 14.304-2.724 25.897-10.307 25.897-29.474 0-27.12-19.946-39.949-44.552-39.949-24.605 0-44.552 12.829-44.552 39.949 0 16.505 7.056 23.707 18.617 27.289 0 0 3.931 1.204 6.004 1.716.674.166 1.335.384 1.975.655 1.514.643 2.96 1.487 3.9 2.572.712.824.805 2.006.337 2.991-2.846 5.994-4.973 13.06-5.845 19.277-2.003 14.265 8.265 21.718 19.694 21.794 11.531.075 21.755-7.273 19.384-21.529-1.078-6.479-3.432-13.916-6.501-20.114-.503-1.015-.35-2.272.492-3.032.544-.491 1.254-.866 2.004-1.197z" fill="none"/><path fill="#FFF" d="M352.283 285.49c0 27.076-18.061 31.597-40.338 31.597-22.278 0-40.338-4.521-40.338-31.597 0-27.077 40.338-24.773 40.338-7.814 0-16.959 40.338-19.263 40.338 7.814z"/><path fill="#FFF" d="M313.02 315.81h-2.842l-15.815-.171s8.383 1.174 8.868 9.002c.481 7.746-5.774 28.079 8.517 28.079 14.289 0 7.738-20.333 8.219-28.079.486-7.828 9.406-9.002 9.406-9.002l-16.353.171z"/><path fill="#CA9957" d="M306.332 287.409c-1.636 9.918-11.48 17.736-19.23 17.747-7.801-.06-13.121-6.492-12.902-15.636-.352-9.739 6.718-18.081 15.975-18.293 9.138-.053 17.226 6.288 16.157 16.182zM317.839 287.409c1.634 9.918 11.48 17.736 19.229 17.747 7.801-.06 13.121-6.492 12.9-15.636.354-9.739-6.716-18.081-15.973-18.293-9.138-.053-17.225 6.288-16.156 16.182z"/><path fill="#221F1F" d="M301.509 287.415c.574 5.738-.805 10.575-5.945 11.09-5.14.515-7.451-3.952-8.025-9.694-.573-5.739.805-10.574 5.946-11.088 5.14-.514 7.451 3.952 8.024 9.692z"/><path fill="#FFF" d="M295.314 285.221c0 1.989-1.246 3.604-2.781 3.604-1.536 0-2.781-1.615-2.781-3.604 0-1.988 1.245-3.602 2.781-3.602 1.535 0 2.781 1.614 2.781 3.602z"/><path fill="#221F1F" d="M337.7 288.782c-.548 5.74-2.838 10.219-7.981 9.729-5.144-.492-6.542-5.323-5.995-11.063.547-5.742 2.837-10.221 7.98-9.729 5.144.491 6.543 5.321 5.996 11.063z"/><path fill="#FFF" d="M332.172 285.221c0 1.989-1.245 3.604-2.779 3.604-1.535 0-2.781-1.615-2.781-3.604 0-1.988 1.246-3.602 2.781-3.602 1.534 0 2.779 1.614 2.779 3.602z"/><path fill="#DDAB6B" d="M298.692 325.673s-3.731 6.078-5.074 13.192c-1.989 11.402 3.955 16.669 7.103 15.222 4.726-2.036 1.015-8.118 1.015-14.207"/><path fill="#C99655" d="M298.692 325.672c-1.67 3.74-3.038 7.574-3.883 11.481-.411 1.949-.665 3.91-.634 5.874-.003 1.951.268 3.894.913 5.671.619 1.758 1.683 3.434 3.149 4.282.72.424 1.503.573 2.132.31.819-.34 1.415-.819 1.732-1.575.327-.754.35-1.719.309-2.688-.051-.979-.198-1.982-.338-2.993-.269-2.019-.55-4.105-.336-6.155.226 2.043.754 3.988 1.287 5.965.257.992.506 1.994.677 3.046.155 1.049.23 2.186-.149 3.364a4.177 4.177 0 0 1-.973 1.601c-.44.456-.982.782-1.5 1.026-1.267.598-2.706.31-3.743-.25-2.146-1.174-3.346-3.229-4.124-5.254-1.433-4.179-1.097-8.599.066-12.607a36.179 36.179 0 0 1 5.415-11.098z"/></g><path fill="#D11" d="M-5.519-5.921S-5.916 5.921 0 5.921 5.52-5.921 5.52-5.921" transform="translate(312.229 304.898)" style="display:block"/><g style="display:block"><path fill="#FFF" d="M302.561 297.573s-.434 4.511 5.103 4.293c5.537-.217 4.486-5.026 4.486-8.6"/><path stroke-linecap="round" stroke-linejoin="round" stroke="#221F1F" stroke-width="2.03" d="M302.561 297.573s-.434 4.511 5.103 4.293c5.537-.217 4.486-5.026 4.486-8.6" fill="none"/><path fill="#FFF" d="M321.845 297.573s.433 4.511-5.104 4.293c-5.537-.217-4.486-5.026-4.486-8.6"/><path stroke-linecap="round" stroke-linejoin="round" stroke="#221F1F" stroke-width="2.03" d="M321.845 297.573s.433 4.511-5.104 4.293c-5.537-.217-4.486-5.026-4.486-8.6" fill="none"/><path fill="#221F1F" d="M317.142 290.551c0 2.975-2.209 3.738-4.936 3.738-2.723 0-4.934-.763-4.934-3.738 0-2.973 2.211-2.971 4.934-2.971 2.727 0 4.936-.002 4.936 2.971z"/></g><g style="display:block"><path fill="#DDAB6B" d="M327.987 324.408c.472 2.807-.407 5.293-1.962 5.554-1.556.263-3.2-1.8-3.673-4.606-.472-2.808.407-5.294 1.963-5.555 1.556-.264 3.201 1.8 3.672 4.607z"/><path fill="#DDAB6B" d="M326.613 329.35s9.405-1.935 15.129-6.688c7.014-5.99 8.543-13.985 6.433-16.513a4.315 4.315 0 0 0-5.367-1.033c-3.565 1.913-7.375 9.128-10.967 11.201-3.023 1.747-6.385 3.146-7.766 3.09"/><path fill="#C99655" d="M326.612 329.348c2.617-.837 5.174-1.803 7.62-2.977 2.435-1.17 4.803-2.51 6.788-4.216a22.545 22.545 0 0 0 4.977-6.067c1.263-2.257 2.145-4.847 2.045-7.272-.031-.595-.145-1.17-.361-1.619-.186-.41-.576-.808-1.022-1.1a3.418 3.418 0 0 0-3.065-.317c-1.002.414-2.016 1.299-2.92 2.247a69.606 69.606 0 0 0-2.692 3.03c-.886 1.042-1.776 2.103-2.756 3.101-.984.98-2.018 2.008-3.339 2.644a38.205 38.205 0 0 1-3.793 1.681c-1.29.463-2.63.961-4.019.923.687-.046 1.332-.287 1.964-.534a26.49 26.49 0 0 0 1.863-.832 37.708 37.708 0 0 0 3.545-2.01c1.092-.695 1.993-1.679 2.856-2.706.853-1.037 1.672-2.121 2.5-3.214.834-1.09 1.656-2.206 2.608-3.256.954-1.041 1.97-2.1 3.487-2.803 1.532-.67 3.395-.498 4.809.413.697.448 1.328 1.045 1.739 1.872.383.788.524 1.587.577 2.356.103 1.545-.186 3.007-.609 4.397-.427 1.392-1.03 2.708-1.743 3.952-1.446 2.481-3.364 4.634-5.582 6.417-2.296 1.733-4.836 2.95-7.445 3.902-2.625.903-5.302 1.624-8.032 1.988z"/><path fill="#C99655" d="M339.871 318.799a15.773 15.773 0 0 1 1.21 1.368l.206.268c.076.1.098.135.011.012.482.683.913 1.398 1.286 2.145.18.363.348.733.501 1.109.01.025.11.28.055.136-.063-.168.061.17.072.201a15.861 15.861 0 0 1 .744 3.016c.115.78 1.086 1.313 1.813 1.1.842-.243 1.225-.98 1.101-1.813-.53-3.597-2.265-7.013-4.815-9.602-.55-.558-1.55-.652-2.122-.062-.555.574-.65 1.524-.062 2.122zM344.481 316.031c.756 1.41 1.513 2.817 2.27 4.227.178.33.591.596.95.677.35.078.81.018 1.113-.187.706-.48.889-1.325.492-2.065-.757-1.408-1.515-2.817-2.271-4.226-.178-.33-.592-.597-.95-.677-.351-.08-.81-.018-1.114.187-.707.479-.887 1.325-.49 2.064z"/></g></g></svg>