<svg xmlns="http://www.w3.org/2000/svg" width="1920" height="1080" style="width:100%;height:100%;transform:translate3d(0,0,0)"><defs><clipPath id="a"><path d="M0 0h1920v1080H0z"/></clipPath><clipPath id="w"><path d="M0 0h20v20H0z"/></clipPath><clipPath id="v"><path d="M0 0h20v20H0z"/></clipPath><clipPath id="u"><path d="M0 0h1920v1080H0z"/></clipPath><clipPath id="t"><path d="M0 0h1920v1080H0z"/></clipPath><clipPath id="s"><path d="M0 0h1920v1080H0z"/></clipPath><clipPath id="l"><path d="M0 0h1920v1080H0z"/></clipPath><clipPath id="q"><path d="M0 0h1920v1080H0z"/></clipPath><clipPath id="r"><path d="M0 0h1920v1080H0z"/></clipPath><clipPath id="o"><path d="M0 0h1920v1080H0z"/></clipPath><clipPath id="p"><path d="M0 0h1920v1080H0z"/></clipPath><clipPath id="m"><path d="M0 0h1920v1080H0z"/></clipPath><clipPath id="n"><path d="M0 0h1920v1080H0z"/></clipPath><clipPath id="k"><path d="M0 0h1920v1080H0z"/></clipPath><clipPath id="h"><path d="M0 0h1920v1080H0z"/></clipPath><clipPath id="j"><path d="M0 0h1920v1080H0z"/></clipPath><clipPath id="i"><path d="M0 0h1920v1080H0z"/></clipPath><clipPath id="e"><path d="M0 0h1920v1080H0z"/></clipPath><clipPath id="g"><path d="M0 0h1920v1080H0z"/></clipPath><clipPath id="f"><path d="M0 0h1920v1080H0z"/></clipPath><clipPath id="d"><path d="M0 0h1920v1080H0z"/></clipPath><clipPath id="c"><path d="M0 0h1920v1080H0z"/></clipPath><clipPath id="b"><path d="M0 0h1920v1080H0z"/></clipPath></defs><g clip-path="url(#a)"><g clip-path="url(#b)" transform="rotate(60 1556.891 848.37)" opacity=".5" style="display:block"><path fill="#36B8FF" d="M0-10c5.522 0 10 4.477 10 10 0 5.522-4.478 10-10 10-5.523 0-10-4.478-10-10 0-5.523 4.477-10 10-10z" transform="translate(1534.229 849.045)" opacity="1" style="display:block"/><path fill="#36B8FF" d="M0-10c5.522 0 10 4.477 10 10 0 5.522-4.478 10-10 10-5.523 0-10-4.478-10-10 0-5.523 4.477-10 10-10z" transform="translate(1548.243 849.045)" opacity="1" style="display:block"/><path fill="#36B8FF" d="M-10.955-6.36c.566.35 7.238.958 10.956.97 3.6.013 10.08-.6 10.625-.918.235-.137 3.428-.074 3.428-.074l.09 12.233s-3.012.46-3.238.327C10.355 5.849 1.92 5.265.108 5.25c-1.72-.014-10.733.901-11.366 1.13-.584.208-2.432-.667-2.432-.667l-.09-12.111s2.623-.088 2.825.038z" transform="matrix(.57241 0 0 1.45273 1541.126 849.136)" opacity="1" style="display:block"/></g><g clip-path="url(#c)" transform="translate(15.75 -27.25)" opacity=".5" style="display:block"><path fill="#36B8FF" d="M0-10c5.522 0 10 4.477 10 10 0 5.522-4.478 10-10 10-5.523 0-10-4.478-10-10 0-5.523 4.477-10 10-10z" transform="translate(1534.229 849.045)" opacity="1" style="display:block"/><path fill="#36B8FF" d="M0-10c5.522 0 10 4.477 10 10 0 5.522-4.478 10-10 10-5.523 0-10-4.478-10-10 0-5.523 4.477-10 10-10z" transform="translate(1548.243 849.045)" opacity="1" style="display:block"/><path fill="#36B8FF" d="M-10.955-6.36c.566.35 7.238.958 10.956.97 3.6.013 10.08-.6 10.625-.918.235-.137 3.428-.074 3.428-.074l.09 12.233s-3.012.46-3.238.327C10.355 5.849 1.92 5.265.108 5.25c-1.72-.014-10.733.901-11.366 1.13-.584.208-2.432-.667-2.432-.667l-.09-12.111s2.623-.088 2.825.038z" transform="matrix(.57241 0 0 1.45273 1541.126 849.136)" opacity="1" style="display:block"/></g><g clip-path="url(#d)" transform="translate(.25)" opacity=".5" style="display:block"><path fill="#36B8FF" d="M0-10c5.522 0 10 4.477 10 10 0 5.522-4.478 10-10 10-5.523 0-10-4.478-10-10 0-5.523 4.477-10 10-10z" transform="translate(1534.229 849.045)" opacity="1" style="display:block"/><path fill="#36B8FF" d="M0-10c5.522 0 10 4.477 10 10 0 5.522-4.478 10-10 10-5.523 0-10-4.478-10-10 0-5.523 4.477-10 10-10z" transform="translate(1548.243 849.045)" opacity="1" style="display:block"/><path fill="#36B8FF" d="M-10.955-6.36c.566.35 7.238.958 10.956.97 3.6.013 10.08-.6 10.625-.918.235-.137 3.428-.074 3.428-.074l.09 12.233s-3.012.46-3.238.327C10.355 5.849 1.92 5.265.108 5.25c-1.72-.014-10.733.901-11.366 1.13-.584.208-2.432-.667-2.432-.667l-.09-12.111s2.623-.088 2.825.038z" transform="matrix(.57241 0 0 1.45273 1541.126 849.136)" opacity="1" style="display:block"/></g><g clip-path="url(#e)" transform="translate(-29.84)" style="display:block"><g clip-path="url(#f)" transform="rotate(-60 1212.403 1419.826)" opacity=".5" style="display:block"><path fill="#36B8FF" d="M0-10c5.522 0 10 4.477 10 10 0 5.522-4.478 10-10 10-5.523 0-10-4.478-10-10 0-5.523 4.477-10 10-10z" transform="translate(1532.42 849.045)" opacity="1" style="display:block"/><path fill="#36B8FF" d="M0-10c5.522 0 10 4.477 10 10 0 5.522-4.478 10-10 10-5.523 0-10-4.478-10-10 0-5.523 4.477-10 10-10z" transform="translate(1550.112 849.045)" opacity="1" style="display:block"/><path fill="#36B8FF" d="M-9.978-6.258c.866.537 6.552 1.484 9.979 1.494 3.307.01 8.82-.874 9.656-1.362.361-.21 3.157-.619 3.157-.619l.069 12.497s-2.642.49-2.988.285C9.05 5.534 2.861 4.678.084 4.655c-2.636-.022-9.38 1.352-10.35 1.703-.895.318-2.265-.507-2.265-.507l-.07-12.746s2.312.444 2.623.637z" transform="matrix(.73162 0 0 1.38282 1541.126 849.136)" opacity="1" style="display:block"/></g><g clip-path="url(#g)" transform="rotate(60 1234.818 264.998)" opacity=".5" style="display:block"><path fill="#36B8FF" d="M0-10c5.522 0 10 4.477 10 10 0 5.522-4.478 10-10 10-5.523 0-10-4.478-10-10 0-5.523 4.477-10 10-10z" transform="translate(1532.42 849.045)" opacity="1" style="display:block"/><path fill="#36B8FF" d="M0-10c5.522 0 10 4.477 10 10 0 5.522-4.478 10-10 10-5.523 0-10-4.478-10-10 0-5.523 4.477-10 10-10z" transform="translate(1550.112 849.045)" opacity="1" style="display:block"/><path fill="#36B8FF" d="M-9.978-6.258c.866.537 6.552 1.484 9.979 1.494 3.307.01 8.82-.874 9.656-1.362.361-.21 3.157-.619 3.157-.619l.069 12.497s-2.642.49-2.988.285C9.05 5.534 2.861 4.678.084 4.655c-2.636-.022-9.38 1.352-10.35 1.703-.895.318-2.265-.507-2.265-.507l-.07-12.746s2.312.444 2.623.637z" transform="matrix(.73162 0 0 1.38282 1541.126 849.136)" opacity="1" style="display:block"/></g></g><g clip-path="url(#h)" transform="rotate(180 637.93 548)" style="display:block"><g clip-path="url(#i)" transform="rotate(-60 1212.403 1419.826)" opacity=".5" style="display:block"><path fill="#36B8FF" d="M0-10c5.522 0 10 4.477 10 10 0 5.522-4.478 10-10 10-5.523 0-10-4.478-10-10 0-5.523 4.477-10 10-10z" transform="translate(1534.229 849.045)" opacity="1" style="display:block"/><path fill="#36B8FF" d="M0-10c5.522 0 10 4.477 10 10 0 5.522-4.478 10-10 10-5.523 0-10-4.478-10-10 0-5.523 4.477-10 10-10z" transform="translate(1548.243 849.045)" opacity="1" style="display:block"/><path fill="#36B8FF" d="M-10.955-6.36c.566.35 7.238.958 10.956.97 3.6.013 10.08-.6 10.625-.918.235-.137 3.428-.074 3.428-.074l.09 12.233s-3.012.46-3.238.327C10.355 5.849 1.92 5.265.108 5.25c-1.72-.014-10.733.901-11.366 1.13-.584.208-2.432-.667-2.432-.667l-.09-12.111s2.623-.088 2.825.038z" transform="matrix(.57241 0 0 1.45273 1541.126 849.136)" opacity="1" style="display:block"/></g><g clip-path="url(#j)" transform="rotate(60 1234.818 264.998)" opacity=".5" style="display:block"><path fill="#36B8FF" d="M0-10c5.522 0 10 4.477 10 10 0 5.522-4.478 10-10 10-5.523 0-10-4.478-10-10 0-5.523 4.477-10 10-10z" transform="translate(1534.229 849.045)" opacity="1" style="display:block"/><path fill="#36B8FF" d="M0-10c5.522 0 10 4.477 10 10 0 5.522-4.478 10-10 10-5.523 0-10-4.478-10-10 0-5.523 4.477-10 10-10z" transform="translate(1548.243 849.045)" opacity="1" style="display:block"/><path fill="#36B8FF" d="M-10.955-6.36c.566.35 7.238.958 10.956.97 3.6.013 10.08-.6 10.625-.918.235-.137 3.428-.074 3.428-.074l.09 12.233s-3.012.46-3.238.327C10.355 5.849 1.92 5.265.108 5.25c-1.72-.014-10.733.901-11.366 1.13-.584.208-2.432-.667-2.432-.667l-.09-12.111s2.623-.088 2.825.038z" transform="matrix(.57241 0 0 1.45273 1541.126 849.136)" opacity="1" style="display:block"/></g></g><g clip-path="url(#k)" transform="rotate(90 1916.95 650.05)" opacity=".5" style="display:block"><path fill="#36B8FF" d="M0-10c5.522 0 10 4.477 10 10 0 5.522-4.478 10-10 10-5.523 0-10-4.478-10-10 0-5.523 4.477-10 10-10z" transform="translate(1534.229 849.045)" opacity="1" style="display:block"/><path fill="#36B8FF" d="M0-10c5.522 0 10 4.477 10 10 0 5.522-4.478 10-10 10-5.523 0-10-4.478-10-10 0-5.523 4.477-10 10-10z" transform="translate(1548.24 849.045)" opacity="1" style="display:block"/><path fill="#36B8FF" d="M-11.075-6.373c.527.328 7.322.893 11.076.906 3.635.013 10.235-.566 10.745-.863.22-.128 3.462-.007 3.462-.007l.091 12.2s-3.057.457-3.268.332c-.515-.307-9.227-.857-10.92-.871-1.607-.014-10.9.845-11.492 1.059-.546.194-2.452-.687-2.452-.687l-.094-12.033s2.662-.154 2.852-.036z" transform="matrix(.63692 0 0 1.4244 1541.126 849.136)" opacity="1" style="display:block"/></g><g clip-path="url(#l)" transform="translate(0 13.32)" style="display:block"><g clip-path="url(#m)" transform="rotate(90 1912.75 481.75)" opacity=".5" style="display:block"><g clip-path="url(#n)" opacity="1" style="display:block"><path fill="#36B8FF" d="M0-10c5.522 0 10 4.477 10 10 0 5.522-4.478 10-10 10-5.523 0-10-4.478-10-10 0-5.523 4.477-10 10-10z" transform="translate(1528.895 849.045)" opacity="1" style="display:block"/><path fill="#36B8FF" d="M0-10c5.522 0 10 4.477 10 10 0 5.522-4.478 10-10 10-5.523 0-10-4.478-10-10 0-5.523 4.477-10 10-10z" transform="translate(1553.752 849.045)" opacity="1" style="display:block"/><path fill="#36B8FF" d="M-8.457-6.075C-7.081-5.22-2.931-4.03 0-4.024c2.811.005 6.93-1.141 8.261-1.917.575-.335 2.696-.788 2.696-.788l.036 12.992s-2.015-.138-2.565-.465c-1.344-.8-5.757-1.828-8.385-1.83-2.658.002-7.695 1.66-8.55 2.061-.776.36-2.308.421-2.308.421l.033-13.28s1.829.448 2.324.755z" transform="matrix(1.17317 0 0 1.1889 1541.126 849.136)" opacity="1" style="display:block"/></g></g><g clip-path="url(#o)" transform="rotate(90 1882 512.5)" opacity=".5" style="display:block"><g clip-path="url(#p)" opacity="1" style="display:block"><path fill="#36B8FF" d="M0-10c5.522 0 10 4.477 10 10 0 5.522-4.478 10-10 10-5.523 0-10-4.478-10-10 0-5.523 4.477-10 10-10z" transform="translate(1528.895 849.045)" opacity="1" style="display:block"/><path fill="#36B8FF" d="M0-10c5.522 0 10 4.477 10 10 0 5.522-4.478 10-10 10-5.523 0-10-4.478-10-10 0-5.523 4.477-10 10-10z" transform="translate(1553.752 849.045)" opacity="1" style="display:block"/><path fill="#36B8FF" d="M-8.457-6.075C-7.081-5.22-2.931-4.03 0-4.024c2.811.005 6.93-1.141 8.261-1.917.575-.335 2.696-.788 2.696-.788l.036 12.992s-2.015-.138-2.565-.465c-1.344-.8-5.757-1.828-8.385-1.83-2.658.002-7.695 1.66-8.55 2.061-.776.36-2.308.421-2.308.421l.033-13.28s1.829.448 2.324.755z" transform="matrix(1.17317 0 0 1.1889 1541.126 849.136)" opacity="1" style="display:block"/></g></g><g clip-path="url(#q)" transform="rotate(90 1897.25 497.25)" opacity=".5" style="display:block"><g clip-path="url(#r)" opacity="1" style="display:block"><path fill="#36B8FF" d="M0-10c5.522 0 10 4.477 10 10 0 5.522-4.478 10-10 10-5.523 0-10-4.478-10-10 0-5.523 4.477-10 10-10z" transform="translate(1528.895 849.045)" opacity="1" style="display:block"/><path fill="#36B8FF" d="M0-10c5.522 0 10 4.477 10 10 0 5.522-4.478 10-10 10-5.523 0-10-4.478-10-10 0-5.523 4.477-10 10-10z" transform="translate(1553.752 849.045)" opacity="1" style="display:block"/><path fill="#36B8FF" d="M-8.457-6.075C-7.081-5.22-2.931-4.03 0-4.024c2.811.005 6.93-1.141 8.261-1.917.575-.335 2.696-.788 2.696-.788l.036 12.992s-2.015-.138-2.565-.465c-1.344-.8-5.757-1.828-8.385-1.83-2.658.002-7.695 1.66-8.55 2.061-.776.36-2.308.421-2.308.421l.033-13.28s1.829.448 2.324.755z" transform="matrix(1.17317 0 0 1.1889 1541.126 849.136)" opacity="1" style="display:block"/></g></g></g><g clip-path="url(#s)" transform="rotate(-40 427.89 1267.625)" opacity=".5" style="display:block"><path fill="#36B8FF" d="M0-10c5.522 0 10 4.477 10 10 0 5.522-4.478 10-10 10-5.523 0-10-4.478-10-10 0-5.523 4.477-10 10-10z" transform="translate(1534.229 849.045)" opacity="1" style="display:block"/><path fill="#36B8FF" d="M0-10c5.522 0 10 4.477 10 10 0 5.522-4.478 10-10 10-5.523 0-10-4.478-10-10 0-5.523 4.477-10 10-10z" transform="translate(1548.24 849.045)" opacity="1" style="display:block"/><path fill="#36B8FF" d="M-11.075-6.373c.527.328 7.322.893 11.076.906 3.635.013 10.235-.566 10.745-.863.22-.128 3.462-.007 3.462-.007l.091 12.2s-3.057.457-3.268.332c-.515-.307-9.227-.857-10.92-.871-1.607-.014-10.9.845-11.492 1.059-.546.194-2.452-.687-2.452-.687l-.094-12.033s2.662-.154 2.852-.036z" transform="matrix(.63692 0 0 1.4244 1541.126 849.136)" opacity="1" style="display:block"/></g><g clip-path="url(#t)" transform="translate(-567.5 -205.75)" opacity=".5" style="display:block"><path fill="#36B8FF" d="M0-10c5.522 0 10 4.477 10 10 0 5.522-4.478 10-10 10-5.523 0-10-4.478-10-10 0-5.523 4.477-10 10-10z" transform="translate(1534.229 849.045)" opacity="1" style="display:block"/><path fill="#36B8FF" d="M0-10c5.522 0 10 4.477 10 10 0 5.522-4.478 10-10 10-5.523 0-10-4.478-10-10 0-5.523 4.477-10 10-10z" transform="translate(1548.243 849.045)" opacity="1" style="display:block"/><path fill="#36B8FF" d="M-11.075-6.373c.527.328 7.322.893 11.076.906 3.635.013 10.235-.566 10.745-.863.22-.128 3.462-.007 3.462-.007l.091 12.2s-3.057.457-3.268.332c-.515-.307-9.227-.857-10.92-.871-1.607-.014-10.9.845-11.492 1.059-.546.194-2.452-.687-2.452-.687l-.094-12.033s2.662-.154 2.852-.036z" transform="matrix(.63692 0 0 1.4244 1541.126 849.136)" opacity="1" style="display:block"/></g><g clip-path="url(#u)" transform="translate(-448.74 131.25)" opacity=".5" style="display:block"><path fill="#36B8FF" d="M0-10c5.522 0 10 4.477 10 10 0 5.522-4.478 10-10 10-5.523 0-10-4.478-10-10 0-5.523 4.477-10 10-10z" transform="translate(1534.229 849.045)" opacity="1" style="display:block"/><path fill="#36B8FF" d="M0-10c5.522 0 10 4.477 10 10 0 5.522-4.478 10-10 10-5.523 0-10-4.478-10-10 0-5.523 4.477-10 10-10z" transform="translate(1548.243 849.045)" opacity="1" style="display:block"/><path fill="#36B8FF" d="M-11.075-6.373c.527.328 7.322.893 11.076.906 3.635.013 10.235-.566 10.745-.863.22-.128 3.462-.007 3.462-.007l.091 12.2s-3.057.457-3.268.332c-.515-.307-9.227-.857-10.92-.871-1.607-.014-10.9.845-11.492 1.059-.546.194-2.452-.687-2.452-.687l-.094-12.033s2.662-.154 2.852-.036z" transform="matrix(.63692 0 0 1.4244 1541.126 849.136)" opacity="1" style="display:block"/></g><g clip-path="url(#v)" transform="translate(1658 632.39)" opacity=".171" style="display:block"><path fill="#36B8FF" d="M0-10c5.522 0 10 4.477 10 10 0 5.522-4.478 10-10 10-5.523 0-10-4.478-10-10 0-5.523 4.477-10 10-10z" transform="translate(10 10)" opacity="1" style="display:block"/></g><g clip-path="url(#w)" transform="translate(960 148.694)" opacity=".171" style="display:block"><path fill="#36B8FF" d="M0-10c5.522 0 10 4.477 10 10 0 5.522-4.478 10-10 10-5.523 0-10-4.478-10-10 0-5.523 4.477-10 10-10z" transform="translate(10 10)" opacity="1" style="display:block"/></g></g></svg>