<svg xmlns="http://www.w3.org/2000/svg" width="1920" height="1080" style="width:100%;height:100%;transform:translate3d(0,0,0)"><defs><linearGradient id="L" spreadMethod="pad" gradientUnits="userSpaceOnUse" x1="38.223" y1="-38.223" x2="-32.058" y2="32.058"><stop offset="0%" stop-color="#F33"/><stop offset="80%" stop-color="#F99"/><stop offset="100%" stop-color="#FFF"/></linearGradient><linearGradient id="a" spreadMethod="pad" gradientUnits="userSpaceOnUse" x1="38.223" y1="-38.223" x2="-32.058" y2="32.058"><stop stop-color="#FFF" offset="0%"/><stop stop-color="#FFF" offset="50%" stop-opacity=".5"/><stop stop-color="#FFF" offset="100%" stop-opacity="0"/></linearGradient><linearGradient id="J" spreadMethod="pad" gradientUnits="userSpaceOnUse" x1="38.223" y1="-38.223" x2="-32.058" y2="32.058"><stop offset="0%" stop-color="#F33"/><stop offset="80%" stop-color="#F99"/><stop offset="100%" stop-color="#FFF"/></linearGradient><linearGradient id="b" spreadMethod="pad" gradientUnits="userSpaceOnUse" x1="38.223" y1="-38.223" x2="-32.058" y2="32.058"><stop stop-color="#FFF" offset="0%"/><stop stop-color="#FFF" offset="50%" stop-opacity=".5"/><stop stop-color="#FFF" offset="100%" stop-opacity="0"/></linearGradient><linearGradient id="H" spreadMethod="pad" gradientUnits="userSpaceOnUse" x1="38.223" y1="-38.223" x2="-32.058" y2="32.058"><stop offset="0%" stop-color="#F33"/><stop offset="80%" stop-color="#F99"/><stop offset="100%" stop-color="#FFF"/></linearGradient><linearGradient id="c" spreadMethod="pad" gradientUnits="userSpaceOnUse" x1="38.223" y1="-38.223" x2="-32.058" y2="32.058"><stop stop-color="#FFF" offset="0%"/><stop stop-color="#FFF" offset="50%" stop-opacity=".5"/><stop stop-color="#FFF" offset="100%" stop-opacity="0"/></linearGradient><linearGradient id="F" spreadMethod="pad" gradientUnits="userSpaceOnUse" x1="38.223" y1="-38.223" x2="-32.058" y2="32.058"><stop offset="0%" stop-color="#F33"/><stop offset="80%" stop-color="#F99"/><stop offset="100%" stop-color="#FFF"/></linearGradient><linearGradient id="d" spreadMethod="pad" gradientUnits="userSpaceOnUse" x1="38.223" y1="-38.223" x2="-32.058" y2="32.058"><stop stop-color="#FFF" offset="0%"/><stop stop-color="#FFF" offset="50%" stop-opacity=".5"/><stop stop-color="#FFF" offset="100%" stop-opacity="0"/></linearGradient><linearGradient id="B" spreadMethod="pad" gradientUnits="userSpaceOnUse" x1="864.485" y1="-64.588" x2="780.461" y2="21.387"><stop offset="0%" stop-color="#F33"/><stop offset="69%" stop-color="#F99"/><stop offset="100%" stop-color="#FFF"/></linearGradient><linearGradient id="e" spreadMethod="pad" gradientUnits="userSpaceOnUse" x1="864.485" y1="-64.588" x2="780.461" y2="21.387"><stop stop-color="#FFF" offset="0%"/><stop stop-color="#FFF" offset="50%" stop-opacity=".5"/><stop stop-color="#FFF" offset="100%" stop-opacity="0"/></linearGradient><linearGradient id="y" spreadMethod="pad" gradientUnits="userSpaceOnUse" x1="864.485" y1="-64.588" x2="403.982" y2="-20.481"><stop offset="0%" stop-color="#F33"/><stop offset="69%" stop-color="#F99"/><stop offset="100%" stop-color="#FFF"/></linearGradient><linearGradient id="f" spreadMethod="pad" gradientUnits="userSpaceOnUse" x1="864.485" y1="-64.588" x2="403.982" y2="-20.481"><stop stop-color="#FFF" offset="0%"/><stop stop-color="#FFF" offset="50%" stop-opacity=".5"/><stop stop-color="#FFF" offset="100%" stop-opacity="0"/></linearGradient><linearGradient id="v" spreadMethod="pad" gradientUnits="userSpaceOnUse" x1="864.485" y1="-64.588" x2="405.932" y2="-20.473"><stop offset="0%" stop-color="#F33"/><stop offset="69%" stop-color="#F99"/><stop offset="100%" stop-color="#FFF"/></linearGradient><linearGradient id="g" spreadMethod="pad" gradientUnits="userSpaceOnUse" x1="864.485" y1="-64.588" x2="405.932" y2="-20.473"><stop stop-color="#FFF" offset="0%"/><stop stop-color="#FFF" offset="50%" stop-opacity=".5"/><stop stop-color="#FFF" offset="100%" stop-opacity="0"/></linearGradient><linearGradient id="s" spreadMethod="pad" gradientUnits="userSpaceOnUse" x1="864.485" y1="-64.588" x2="406.723" y2="-20.47"><stop offset="0%" stop-color="#F33"/><stop offset="69%" stop-color="#F99"/><stop offset="100%" stop-color="#FFF"/></linearGradient><linearGradient id="h" spreadMethod="pad" gradientUnits="userSpaceOnUse" x1="864.485" y1="-64.588" x2="406.723" y2="-20.47"><stop stop-color="#FFF" offset="0%"/><stop stop-color="#FFF" offset="50%" stop-opacity=".5"/><stop stop-color="#FFF" offset="100%" stop-opacity="0"/></linearGradient><linearGradient id="p" spreadMethod="pad" gradientUnits="userSpaceOnUse" x1="864.485" y1="-64.588" x2="407.813" y2="-20.466"><stop offset="0%" stop-color="#F33"/><stop offset="69%" stop-color="#F99"/><stop offset="100%" stop-color="#FFF"/></linearGradient><linearGradient id="i" spreadMethod="pad" gradientUnits="userSpaceOnUse" x1="864.485" y1="-64.588" x2="407.813" y2="-20.466"><stop stop-color="#FFF" offset="0%"/><stop stop-color="#FFF" offset="50%" stop-opacity=".5"/><stop stop-color="#FFF" offset="100%" stop-opacity="0"/></linearGradient><linearGradient id="m" spreadMethod="pad" gradientUnits="userSpaceOnUse" x1="864.485" y1="-64.588" x2="407.893" y2="-20.466"><stop offset="0%" stop-color="#F33"/><stop offset="69%" stop-color="#F99"/><stop offset="100%" stop-color="#FFF"/></linearGradient><linearGradient id="j" spreadMethod="pad" gradientUnits="userSpaceOnUse" x1="864.485" y1="-64.588" x2="407.893" y2="-20.466"><stop stop-color="#FFF" offset="0%"/><stop stop-color="#FFF" offset="50%" stop-opacity=".5"/><stop stop-color="#FFF" offset="100%" stop-opacity="0"/></linearGradient><mask id="M"><path fill="url(#a)" d="M23.578-42.582c-4.81.02-9.61 1.87-13.28 5.54L-64.804 38.06l26.74 26.74 75.112-75.102a18.86 18.86 0 0 0 5.53-13.27v-.2c-.02-4.8-1.87-9.6-5.53-13.27a18.835 18.835 0 0 0-13.28-5.54h-.19z"/></mask><mask id="K"><path fill="url(#b)" d="M23.578-42.582c-4.81.02-9.61 1.87-13.28 5.54L-64.804 38.06l26.74 26.74 75.112-75.102a18.86 18.86 0 0 0 5.53-13.27v-.2c-.02-4.8-1.87-9.6-5.53-13.27a18.835 18.835 0 0 0-13.28-5.54h-.19z"/></mask><mask id="I"><path fill="url(#c)" d="M23.578-42.582c-4.81.02-9.61 1.87-13.28 5.54L-64.804 38.06l26.74 26.74 75.112-75.102a18.86 18.86 0 0 0 5.53-13.27v-.2c-.02-4.8-1.87-9.6-5.53-13.27a18.835 18.835 0 0 0-13.28-5.54h-.19z"/></mask><mask id="G"><path fill="url(#d)" d="M23.578-42.582c-4.81.02-9.61 1.87-13.28 5.54L-64.804 38.06l26.74 26.74 75.112-75.102a18.86 18.86 0 0 0 5.53-13.27v-.2c-.02-4.8-1.87-9.6-5.53-13.27a18.835 18.835 0 0 0-13.28-5.54h-.19z"/></mask><mask id="C"><path fill="url(#e)" d="M856.382-75.249h.19c4.81.02 9.61 1.87 13.28 5.54a18.86 18.86 0 0 1 5.53 13.27v.2c-.02 4.8-1.87 9.6-5.53 13.27l-74.116 72.646-26.74-26.74 74.106-72.646c3.67-3.67 8.47-5.52 13.28-5.54z"/></mask><mask id="A"><path fill="#fff" d="M925.592 5.761c-9.87 0-17.87 8-17.87 17.87l.291-.071c0 9.87 8.001 17.871 17.871 17.871s17.87-8.001 17.87-17.871l-.291.071c0-9.87-8.001-17.87-17.871-17.87" fill-opacity=".5"/></mask><mask id="z"><path fill="url(#f)" d="M856.382-75.249h.19c4.81.02 9.61 1.87 13.28 5.54a18.86 18.86 0 0 1 5.53 13.27v.2c-.02 4.8-1.87 9.6-5.53 13.27l-9.93 8.46-26.74-26.74 9.92-8.46c3.67-3.67 8.47-5.52 13.28-5.54z"/></mask><mask id="x"><path fill="#fff" d="M925.592 5.761c-9.87 0-17.87 8-17.87 17.87l.291-.071c0 9.87 8.001 17.871 17.871 17.871s17.87-8.001 17.87-17.871l-.291.071c0-9.87-8.001-17.87-17.871-17.87" fill-opacity=".098"/></mask><mask id="w"><path fill="url(#g)" d="M856.382-75.249h.19c4.81.02 9.61 1.87 13.28 5.54a18.86 18.86 0 0 1 5.53 13.27v.2c-.02 4.8-1.87 9.6-5.53 13.27l-9.96 8.49-26.74-26.74 9.95-8.49c3.67-3.67 8.47-5.52 13.28-5.54z"/></mask><mask id="u"><path fill="#fff" d="M925.592 5.761c-9.87 0-17.87 8-17.87 17.87l.291-.071c0 9.87 8.001 17.871 17.871 17.871s17.87-8.001 17.87-17.871l-.291.071c0-9.87-8.001-17.87-17.871-17.87" fill-opacity=".099"/></mask><mask id="t"><path fill="url(#h)" d="M856.382-75.249h.19c4.81.02 9.61 1.87 13.28 5.54a18.86 18.86 0 0 1 5.53 13.27v.2c-.02 4.8-1.87 9.6-5.53 13.27l-9.973 8.503-26.74-26.74 9.963-8.503c3.67-3.67 8.47-5.52 13.28-5.54z"/></mask><mask id="r"><path fill="#fff" d="M925.592 5.761c-9.87 0-17.87 8-17.87 17.87l.291-.071c0 9.87 8.001 17.871 17.871 17.871s17.87-8.001 17.87-17.871l-.291.071c0-9.87-8.001-17.87-17.871-17.87" fill-opacity=".099"/></mask><mask id="q"><path fill="url(#i)" d="M856.382-75.249h.19c4.81.02 9.61 1.87 13.28 5.54a18.86 18.86 0 0 1 5.53 13.27v.2c-.02 4.8-1.87 9.6-5.53 13.27l-9.99 8.52-26.74-26.74 9.98-8.52c3.67-3.67 8.47-5.52 13.28-5.54z"/></mask><mask id="o"><path fill="#fff" d="M925.592 5.761c-9.87 0-17.87 8-17.87 17.87l.291-.071c0 9.87 8.001 17.871 17.871 17.871s17.87-8.001 17.87-17.871l-.291.071c0-9.87-8.001-17.87-17.871-17.87" fill-opacity=".099"/></mask><mask id="n"><path fill="url(#j)" d="M856.382-75.249h.19c4.81.02 9.61 1.87 13.28 5.54a18.86 18.86 0 0 1 5.53 13.27v.2c-.02 4.8-1.87 9.6-5.53 13.27l-9.992 8.522-26.74-26.74 9.982-8.522c3.67-3.67 8.47-5.52 13.28-5.54z"/></mask><mask id="l"><path fill="#fff" d="M925.602 243.349c-9.87 0-17.871 8-17.871 17.87l-.144.304c0 9.87 8.001 17.871 17.871 17.871s17.87-8.001 17.87-17.871l.144-.304c0-9.87-8-17.87-17.87-17.87"/></mask><clipPath id="k"><path d="M0 0h1920v1080H0z"/></clipPath><clipPath id="E"><path fill="#fff" d="M925.46 145.263c-9.87 0-17.871 8.001-17.871 17.871l.291-1.313c0 9.87 8 17.871 17.87 17.871 9.87 0 17.87-8.001 17.87-17.871l-.29 1.313c0-9.87-8-17.871-17.87-17.871"/></clipPath><clipPath id="D"><path fill="#fff" d="M925.46 145.263c-9.87 0-17.871 8.001-17.871 17.871l.291-1.313c0 9.87 8 17.871 17.87 17.871 9.87 0 17.87-8.001 17.87-17.871l-.29 1.313c0-9.87-8-17.871-17.87-17.871"/></clipPath></defs><g clip-path="url(#k)"><g mask="url(#l)" transform="rotate(45 545.628 -349.467)" style="display:block"><path fill="#f4c7c7" d="M0 0h1920v1080H0z"/></g><g clip-path="url(#D)" transform="rotate(45 1311.433 786.12)" style="display:block"><path fill="#f4c7c7" d="M0 0h1920v1080H0z"/></g><g clip-path="url(#E)" transform="rotate(45 208.379 1196.766)" style="display:block"><path fill="#f4c7c7" d="M0 0h1920v1080H0z"/></g><path fill="url(#F)" mask="url(#G)" fill-opacity=".3" d="M23.578-42.582c-4.81.02-9.61 1.87-13.28 5.54L-64.804 38.06l26.74 26.74 75.112-75.102a18.86 18.86 0 0 0 5.53-13.27v-.2c-.02-4.8-1.87-9.6-5.53-13.27a18.835 18.835 0 0 0-13.28-5.54h-.19z" transform="matrix(.9 0 0 .9 1007.335 836.958)" style="display:block"/><path fill="url(#H)" mask="url(#I)" fill-opacity=".3" d="M23.578-42.582c-4.81.02-9.61 1.87-13.28 5.54L-64.804 38.06l26.74 26.74 75.112-75.102a18.86 18.86 0 0 0 5.53-13.27v-.2c-.02-4.8-1.87-9.6-5.53-13.27a18.835 18.835 0 0 0-13.28-5.54h-.19z" transform="matrix(.9 0 0 .9 1053.335 200.958)" style="display:block"/><path fill="url(#J)" mask="url(#K)" fill-opacity=".3" d="M23.578-42.582c-4.81.02-9.61 1.87-13.28 5.54L-64.804 38.06l26.74 26.74 75.112-75.102a18.86 18.86 0 0 0 5.53-13.27v-.2c-.02-4.8-1.87-9.6-5.53-13.27a18.835 18.835 0 0 0-13.28-5.54h-.19z" transform="matrix(.9 0 0 .9 1707.335 528.958)" style="display:block"/><path fill="url(#L)" mask="url(#M)" fill-opacity=".3" d="M23.578-42.582c-4.81.02-9.61 1.87-13.28 5.54L-64.804 38.06l26.74 26.74 75.112-75.102a18.86 18.86 0 0 0 5.53-13.27v-.2c-.02-4.8-1.87-9.6-5.53-13.27a18.835 18.835 0 0 0-13.28-5.54h-.19z" transform="matrix(.9 0 0 .9 1569.335 244.958)" style="display:block"/></g></svg>