<svg xmlns="http://www.w3.org/2000/svg" width="1920" height="1080" style="width:100%;height:100%;transform:translate3d(0,0,0)"><defs><clipPath id="a"><path d="M0 0h1920v1080H0z"/></clipPath></defs><g clip-path="url(#a)"><path fill="#FDDB3D" d="M0-5c2.76 0 5 2.24 5 5S2.76 5 0 5s-5-2.24-5-5 2.24-5 5-5z" transform="matrix(1.4 0 0 1.4 1418.5 963)" style="display:block"/><path fill="#FDDB3D" d="M0-9c4.967 0 9 4.033 9 9S4.967 9 0 9s-9-4.033-9-9 4.033-9 9-9z" transform="translate(1577.5 199)" style="display:block"/><path fill="#FDDB3D" d="M0-55c30.354 0 55 24.646 55 55S30.354 55 0 55-55 30.354-55 0s24.646-55 55-55z" transform="translate(1672 260)" style="display:block"/><path fill="#FDDB3D" d="M0-5c2.76 0 5 2.24 5 5S2.76 5 0 5s-5-2.24-5-5 2.24-5 5-5z" transform="translate(1579 583)" style="display:block"/><path fill="#FDDB3D" d="M0-33c18.213 0 33 14.787 33 33S18.213 33 0 33-33 18.213-33 0s14.787-33 33-33z" transform="translate(1762 688)" style="display:block"/><path fill="#FDDB3D" d="M0-17.5c9.658 0 17.5 7.842 17.5 17.5 0 9.658-7.842 17.5-17.5 17.5-9.658 0-17.5-7.842-17.5-17.5 0-9.658 7.842-17.5 17.5-17.5z" transform="matrix(.8 0 0 .8 1543.5 793.5)" style="display:block"/><path fill="#FDDB3D" d="M0-17.5c9.658 0 17.5 7.842 17.5 17.5 0 9.658-7.842 17.5-17.5 17.5-9.658 0-17.5-7.842-17.5-17.5 0-9.658 7.842-17.5 17.5-17.5z" transform="matrix(1.2 0 0 1.2 1160 971)" style="display:block"/><path fill="#FDDB3D" d="M0-9c4.967 0 9 4.033 9 9S4.967 9 0 9s-9-4.033-9-9 4.033-9 9-9z" transform="matrix(1.3 0 0 1.3 907 819)" style="display:block"/><path fill="#FDDB3D" d="M0-5c2.76 0 5 2.24 5 5S2.76 5 0 5s-5-2.24-5-5 2.24-5 5-5z" transform="matrix(1.2 0 0 1.2 969 663)" style="display:block"/><path fill="#FDDB3D" d="M0-42.5c23.456 0 42.5 19.044 42.5 42.5S23.456 42.5 0 42.5-42.5 23.456-42.5 0-23.456-42.5 0-42.5z" transform="translate(910.5 504)" style="display:block"/><path fill="#FDDB3D" d="M0-17.5c9.658 0 17.5 7.842 17.5 17.5 0 9.658-7.842 17.5-17.5 17.5-9.658 0-17.5-7.842-17.5-17.5 0-9.658 7.842-17.5 17.5-17.5z" transform="matrix(.5 0 0 .5 929.5 309.5)" style="display:block"/><path fill="#FDDB3D" d="M0-20.5c11.314 0 20.5 9.186 20.5 20.5S11.314 20.5 0 20.5-20.5 11.314-20.5 0-11.314-20.5 0-20.5z" transform="translate(1117.5 124.5) scale(1.29268)" style="display:block"/><path fill="#FDDB3D" d="M0-55c30.354 0 55 24.646 55 55S30.354 55 0 55-55 30.354-55 0s24.646-55 55-55z" transform="matrix(.63636 0 0 .63636 492.595 227.452)" style="display:block"/><path fill="#FDDB3D" d="M0-17.5c9.658 0 17.5 7.842 17.5 17.5 0 9.658-7.842 17.5-17.5 17.5-9.658 0-17.5-7.842-17.5-17.5 0-9.658 7.842-17.5 17.5-17.5z" transform="matrix(.3 0 0 .3 1360.5 130.5)" style="display:block"/></g></svg>