<svg xmlns="http://www.w3.org/2000/svg" width="120" height="120" style="width:100%;height:100%;transform:translate3d(0,0,0)"><defs><clipPath id="a"><path d="M0 0h120v120H0z"/></clipPath><clipPath id="b"><path fill="#fff" d="M-34.499-21.404V1.51s6.475-.16 10.6.028c3.686.168 7.345-.706 10.672 2.084 1.224 1.027 2.827 3.687 2.477 7.355-.525 5.498 3.153 11.645 3.153 11.645l39.848-.75v-42.999l-66.75-.277"/></clipPath><mask id="c" mask-type="alpha"><g style="display:block"><path fill="red" d="M-12.316-6.832h24.63v13.66h-24.63v-13.66z" transform="matrix(1.08119 0 0 1.3515 54.045 34.883)"/></g></mask></defs><g clip-path="url(#a)"><g clip-path="url(#b)" transform="translate(54.525 50.775)" style="display:block"><path fill="#DCAA6A" d="M-32 1.61S-21.49-19.26-.94-21.31c14.803-1.47 27.619 5.587 31.637 18.055 1.56 4.84 1.793 10.496.303 16.785 0 0-4.08 5.67-17.39 7.32C.3 22.5-16.82 23.51-32 1.61"/></g><path fill="#AE784F" d="M12.306-7.967c-1.26.91-12.37 3.38-21.2 14.19-1.67 3-3.858 1.255-2.648-1.185.703-1.631 4.723-6.745 7.93-8.777a34.384 34.384 0 0 1 6.678-3.239c1.529-.539 3.041-.924 4.197-1.037 1.991-.194 5.043.048 5.043.048z" transform="translate(45.332 37.747)" style="display:block"/><g mask="url(#c)" style="display:block"><path fill="#AE784F" d="M60.04 29.481c3.96.32 6.32 1 6.32 1-6.15 1.63-11.56.63-21.19 10.74-1.89 2.86-4.43 1.45-3.04-.9 1.37-2.72 2.77-5.92 9.31-9.24 2.838-1.12 6.36-1.781 8.6-1.6z"/></g><path fill="#CA9957" d="m1.527-2.072-3.05 4.14" transform="matrix(.9508 .11977 -.19634 .94427 66.688 52.531)" style="display:block"/><path fill="#AE784F" d="M2.123-1.573c-.41.77-.92 1.46-1.42 2.15-.54.67-1.06 1.35-1.68 1.96-.29.28-.75.28-1.03-.01a.717.717 0 0 1-.13-.84c.4-.78.88-1.48 1.37-2.19.5-.69 1.01-1.38 1.62-2a.794.794 0 0 1 1.27.93" transform="matrix(.9508 .11977 -.19634 .94427 64.705 53.217)" style="display:block"/><path fill="#CA9957" d="m2.077 1.527-4.149-3.05" transform="matrix(.9508 .11977 -.19634 .94427 66.689 52.532)" style="display:block"/><path fill="#AE784F" d="M1.567 2.123c-.76-.41-1.45-.92-2.14-1.42-.67-.53-1.35-1.06-1.96-1.68a.727.727 0 0 1 .01-1.03c.23-.23.57-.27.84-.13.77.4 1.48.88 2.19 1.37.69.51 1.38 1.01 2 1.62.31.31.32.81.01 1.13-.26.25-.64.3-.95.14" transform="matrix(.9508 .11977 -.19634 .94427 64.697 53.285)" style="display:block"/><path fill="#DDAA6B" d="M-6.417 2.557s1.3.51 4.15 2.03c2.83 1.52 4.42 3.74 7.37 2.28 2.96-1.47 1.02-9.92-6.79-14.21" transform="matrix(.88182 .47836 .47628 -.87566 73.644 39.442)" style="display:block"/><path fill="#AE784F" d="M-6.568 1.953c1.27.39 2.43.92 3.62 1.43.57.27 1.19.56 1.76.89l1.65 1c1.06.65 2.04 1.09 2.97.87.45-.09 1.08-.35 1.25-.54.25-.25.43-.69.5-1.2.16-1.03-.09-2.22-.46-3.33-.38-1.12-.95-2.2-1.62-3.21-1.35-2.02-3.16-3.76-5.25-5.15a.348.348 0 0 1-.1-.5c.09-.16.29-.21.45-.14 2.38 1.08 4.55 2.74 6.18 4.88.82 1.06 1.49 2.24 1.99 3.52.48 1.28.8 2.67.61 4.18-.09.75-.37 1.58-1.03 2.24-.33.33-.79.56-1.1.68a4.5 4.5 0 0 1-1.1.32c-.78.14-1.63.03-2.33-.24-.71-.27-1.3-.65-1.84-1.03-1.09-.77-2.01-1.47-3.13-2.1-1.07-.66-2.19-1.29-3.28-1.89l-.02-.01a.375.375 0 0 1-.15-.5c.09-.15.27-.22.43-.17" transform="matrix(.88182 .47836 .47628 -.87566 73.146 39.71)" style="display:block"/><path fill="#DDAA6B" d="M2.161-9.781c.845 7.07 9.324 9.637 3.314 16.187-6.4 4.92-13.22-4.55-13.22-4.55" transform="matrix(.85585 .5172 -.51722 .85586 78.411 69.179)" style="display:block"/><path fill="#AE784F" d="m-7.38 1.308-.01-.01a.35.35 0 0 0-.44-.06c-.17.1-.22.32-.12.49.68 1.1 1.51 2.07 2.42 3 .91.91 1.95 1.74 3.15 2.36 1.18.63 2.55 1.04 4 1 1.45-.09 2.8-.69 3.93-1.51l.01-.01c.04-.02.07-.05.1-.09.84-1.01 1.75-2.03 2.18-3.5.2-.72.23-1.57-.02-2.31-.22-.73-.61-1.33-.98-1.85-.74-1.06-1.46-1.99-1.9-3.07-.46-1.07-.59-2.25-.61-3.47l-.459-1.836c0-.17-.12-.32-.29-.34a.35.35 0 0 0-.41.28c-.22 1.28.269 4.456.639 5.766.38 1.3 1.13 2.45 1.77 3.48.67 1.06.96 1.95.65 2.89-.31.95-1.08 1.89-1.86 2.78l.11-.1c-.91.62-1.89 1.1-2.96 1.18-1.07.07-2.17-.21-3.23-.67-1.05-.47-2.06-1.13-3-1.9-.96-.74-1.84-1.61-2.67-2.5z" transform="matrix(.9422 .40517 -.39959 1.017 78.573 68.944)" style="display:block"/><path fill="#CA9957" d="M-7.777-8.215c0 4.47.12 14.96 7.32 16.26 7.2 1.3 8.82-5.08 8.07-8.33" transform="matrix(.943 -.33282 .33282 .943 54.174 69.774)" style="display:block"/><path fill="#DDAA6B" d="M-7.777-8.5c0 4.63.12 15.48 7.31 16.82 7.21 1.34 8.83-5.25 8.08-8.62" transform="matrix(.86193 -.30421 .31719 .8987 53.852 69.128)" style="display:block"/><path fill="#AE784F" d="M-6.447-10.346c-.02-.18-.183-.271-.363-.291-.2-.01-.317.155-.39.34C-8.574-6.947-8.693-2.916-8.212.17c.315 1.22 1.113 3.133 1.824 4.257.481.909 1.617 2.337 2.987 3.167 1.36.83 2.94 1.18 4.42 1.22 1.51.05 3.15-.31 4.44-1.27 1.3-.93 2.16-2.34 2.53-3.78.37-1.46.41-2.97-.01-4.4a.372.372 0 0 0-.39-.26c-.2.03-.35.21-.32.41v.02c.15 1.3 0 2.65-.48 3.84-.43 1.22-1.22 2.24-2.22 2.88-1 .65-2.23.89-3.49.81-1.28-.1-2.49-.37-3.51-1.01-1.03-.63-2.073-1.735-2.683-2.855-.62-1.11-1.505-2.947-1.747-4.19-.699-3.643-.58-5.619.39-9.306" transform="matrix(.943 -.33282 .33282 .943 54.246 70.026)" style="display:block"/><path fill="#AF784F" d="M-2.8-30.6c-8.9-.1-14 2.7-14 2.7s4.9 3.3 10.4.6C-.9-30 7.1-29.4 7.1-29.4s-1-1.1-9.9-1.2z" transform="matrix(.8909 .0167 -.03336 1.07852 59.446 62.388)" style="display:block"/></g></svg>