<svg xmlns="http://www.w3.org/2000/svg" width="190" height="350" style="width:100%;height:100%;transform:translate3d(0,0,0)"><defs><clipPath id="a"><path d="M0 0h190v350H0z"/></clipPath><mask id="b" mask-type="alpha"><g style="display:block"><path fill="red" d="M-7.518-10.206h15.04v20.41h-15.04v-20.41z" transform="matrix(1 0 0 1.00002 108.416 172.393)"/></g></mask></defs><g clip-path="url(#a)"><path fill="#D11" d="M42.567 15.49c3.34-5.26 9.01-10.54 8.92-19.1-.65-8.54-6.38-12.68-9.58-17.61-2.39-5.36-2.75-12.44-9.28-17.69-6.53-5.23-13.47-4.05-19.16-5.22-5.43-2.07-10.65-6.78-18.96-5.86-8.32.91-12.39 6.65-17.24 9.85-5.3 2.38-12.32 2.73-17.56 9.26-5.23 6.53-4.05 13.46-5.22 19.16-2.07 5.43-6.78 10.64-5.86 18.96.91 8.32 6.63 12.38 9.61 17.14 2 5.09 2.3 11.72 8.27 16.36 6.07 4.56 11.73 3.26 16.52 4.17 4.59 1.73 9.21 5.86 15.96 5.11 6.95-1.03 10.46-6.21 15.13-9.36 5.55-2.72 13.88-4.64 19.72-10.28 6.41-4.96 6.13-9.96 8.73-14.89" transform="matrix(1 0 0 1 106.492 103.783)" style="display:block"/><path fill="#FFDD7C" d="M3.61 33.186c-20.34 3.05-37.63-3.33-40.23-25.2-2.61-21.88 12.92-39.49 33.18-41.66 20.36-2.19 39.02 11.74 40.26 33.27 1.64 21.46-19 31.12-33.21 33.59" transform="matrix(1 0 0 1 104.41 104.755)" style="display:block"/><path fill="#221F1F" d="M2.503-1.058a2.72 2.72 0 0 1-1.45 3.56c-1.38.58-2.97-.07-3.56-1.45-.58-1.38.07-2.98 1.45-3.56a2.72 2.72 0 0 1 3.56 1.45" transform="matrix(1 0 0 1 111.043 103.872)" style="display:block"/><path fill="#221F1F" d="M2.542-1.068a2.757 2.757 0 1 1-5.08 2.14 2.757 2.757 0 0 1 5.08-2.14" transform="matrix(1 0 0 1 82.153 112.197)" style="display:block"/><path fill="#FFF" d="M4.936-4.952a6.969 6.969 0 0 0-7.11-1.66 6.977 6.977 0 0 0-4.4 8.83 6.98 6.98 0 0 0 8.83 4.39c2.58-.87 4.31-3.1 4.68-5.62" transform="matrix(1 0 0 1 92.937 118.236)" style="display:block"/><path fill="#DCDCDC" d="M.021 3.692c.73-.6 1.33-1.34 1.76-2.17-3.54-1.77-3.29-6.09-3.5-5.05-.23 1.09.16 2.99 1.46 4.83.87 1.23.52 2.12.28 2.39" transform="matrix(1 0 0 1 97.369 119.938)" style="display:block"/><path fill="#FFF" d="M-5.088 5.102a7.164 7.164 0 0 0 7.33 1.71c3.77-1.26 5.79-5.34 4.53-9.1a7.18 7.18 0 0 0-9.1-4.52c-2.66.89-4.44 3.19-4.82 5.78" transform="matrix(1 0 0 1 102.734 115.201)" style="display:block"/><path fill="#D11" d="M5.778-.436c.64 3.31-1.52 6.23-4.71 7.08-3.18.84-6.2-.72-6.83-4.03-.63-3.3 1.08-8.52 4.27-9.36 3.19-.84 6.64 3.01 7.27 6.31" transform="matrix(1 0 0 1 95.037 109.672)" style="display:block"/><path fill="#221F1F" d="M4.161-1.221c.21 1.24-1.37 3.34-3.67 3.9s-4.44-.64-4.65-1.87c-.21-1.23 1.45-2.88 3.74-3.44 2.3-.56 4.37.18 4.58 1.41" transform="matrix(1 0 0 1 94.608 112.637)" style="display:block"/><path fill="#FFDD7C" d="m13.076 10.946-28.56-18.09a2.24 2.24 0 0 1-.7-3.1 2.24 2.24 0 0 1 3.1-.7l28.57 18.09c1.05.66 1.36 2.05.7 3.1a2.262 2.262 0 0 1-3.11.7" transform="translate(84.853 159.137)" style="display:block"/><path fill="#D11" d="M-.272 5.938c.72.09 1.49.51 2.47.16.98-.36 1.31-1.17 1.8-1.71.58-.44 1.42-.69 1.86-1.64.45-.94.1-1.75.08-2.47.09-.72.51-1.49.16-2.48-.36-.98-1.17-1.3-1.7-1.8-.45-.57-.7-1.42-1.64-1.86-.95-.44-1.76-.1-2.48-.07-.72-.1-1.49-.51-2.48-.16-.98.35-1.3 1.17-1.8 1.7-.57.44-1.42.69-1.86 1.64-.44.94-.1 1.75-.07 2.48-.09.72-.51 1.49-.16 2.47.36.98 1.17 1.31 1.7 1.8.44.58.69 1.42 1.64 1.86.94.45 1.75.1 2.48.08" transform="translate(69.154 149.198)" style="display:block"/><g style="display:block"><path fill="#F33" d="M175.042 145.55a11.413 11.413 0 0 1 2.959-4.305c.244-.231.473-.464.698-.706.446-.47.539-1.187.168-1.757l-21.054-32.293a1.41 1.41 0 0 0-1.74-.525c-.29.105-.579.21-.857.332a11.413 11.413 0 0 1-5.133.971 11.302 11.302 0 0 0-11.116 7.247 11.413 11.413 0 0 1-2.96 4.305c-.215.2-.42.418-.616.63a1.396 1.396 0 0 0-.263 1.83l21.054 32.293a1.398 1.398 0 0 0 1.592.573l.005.009c.008-.006.025-.017.04-.014.024-.016.055-.024.094-.037.295-.097.587-.216.88-.335a11.413 11.413 0 0 1 5.133-.971 11.302 11.302 0 0 0 11.116-7.248"/><path stroke="#D00000" d="M22.85-6.641a11.413 11.413 0 0 1-1.99-4.83c-.06-.33-.13-.65-.21-.97-.15-.63-.7-1.1-1.38-1.1h-38.55c-.7 0-1.28.51-1.39 1.17-.07.3-.14.6-.19.9-.28 1.74-.96 3.39-1.99 4.83a11.302 11.302 0 0 0 0 13.27c1.03 1.44 1.71 3.09 1.99 4.83.05.29.12.58.19.86.09.69.67 1.22 1.39 1.22h38.55c.65 0 1.18-.43 1.35-1.02h.01c0-.01 0-.03.01-.04 0-.03.01-.06.02-.1.08-.3.14-.61.2-.92.28-1.74.96-3.39 1.99-4.83 2.87-3.96 2.87-9.31 0-13.27" fill="none" transform="rotate(56.897 -41.505 209.906)"/></g><g style="display:block"><path d="M2.64-5.18V.31c0 .47.37.77.82.77.46 0 .83-.3.83-.77v-5.49h1.76c.39 0 .65-.36.65-.72 0-.37-.26-.72-.65-.72H.88c-.39 0-.65.36-.65.72 0 .37.26.72.65.72h1.76zm6.2 1.63c0-.47-.34-.76-.79-.76-.46 0-.79.29-.79.76V.33c0 .47.33.75.79.75.45 0 .79-.28.79-.75v-3.88zM7.13-5.82c0 .5.42.92.92.92s.91-.42.91-.92-.41-.91-.91-.91-.92.41-.92.91zm5.37 6.87c.98 0 1.78-.42 2.17-1.01.19-.29.15-.72-.13-.97-.31-.28-.77-.26-1.01.06-.21.27-.52.53-1.03.53-.68 0-1.11-.57-1.11-1.3 0-.73.43-1.27 1.11-1.27.48 0 .72.26.9.51.24.32.75.35 1.05.12.33-.26.39-.71.18-1.02-.42-.59-1.15-1.01-2.13-1.01-1.57 0-2.69 1.15-2.69 2.67 0 1.55 1.12 2.69 2.69 2.69zm4.82-7.03c0-.47-.33-.75-.79-.75-.45 0-.78.28-.78.75V.33c0 .47.33.75.78.75.46 0 .79-.28.79-.75V-.81l.46-.37L19.04.75c.27.39.68.41 1.03.19.36-.22.43-.67.18-1.07l-1.31-1.99L20.02-3c.37-.3.35-.7.09-1.02-.26-.35-.71-.38-1.07-.09l-1.72 1.39v-3.26zm9 4.21c0-1.36-1.12-2.54-2.58-2.54-1.58 0-2.66 1.16-2.66 2.7 0 1.51 1.16 2.66 2.69 2.66.76 0 1.43-.16 1.89-.45.33-.21.35-.56.22-.85-.14-.28-.45-.45-.78-.31-.34.14-.76.28-1.27.28-.54 0-.98-.27-1.12-.67h2.8c.56 0 .81-.27.81-.82zm-3.64-.47c.11-.39.57-.71 1.06-.71.49 0 .91.32 1.02.71h-2.08zm6.62-2.9c0-.47-.33-.75-.78-.75-.46 0-.79.28-.79.75v.93h-.34c-.39 0-.57.33-.57.7 0 .36.18.71.57.71h.34v2.04c0 1.11.63 1.81 1.98 1.81.34 0 .73-.05 1.05-.22.28-.13.46-.48.3-.88-.14-.37-.49-.53-.78-.4-.16.07-.32.1-.49.1-.26 0-.49-.18-.49-.57V-2.8h1.2c.39 0 .62-.34.62-.71 0-.36-.23-.7-.62-.7h-1.2v-.93z" style="display:inherit" transform="matrix(.48504 .88775 -.79503 .60656 146.66 116.768)" fill="#FFF" font-size="9" font-family="Sandoll Gyeokdonggulim" font-weight="400" aria-label="Ticket"/></g><g opacity=".6" style="display:block"><path fill="#CA9957" d="M102.011 138.944a89.41 89.41 0 0 0 5.745-.712c8.61-1.54 19.224-5.143 26.961-11.36.18-.155-22.194 1.6-32.706 12.072" opacity="1"/></g><path fill="#FFDD7C" d="M-21.468-3.146c8.9-4.7 25.9-6.47 32.54-5.91 6.63.57 10.03 2.67 10.36 6.39.32 3.73-1.27 6.56-11.82 7.61-10.55 1.05-14.88 1.96-19.91 4.21" transform="matrix(.87164 .10269 -.11522 .978 132.566 137.859)" style="display:block"/><path fill="#FFDD7C" d="m13.42-22.582-11.7 3.24c-9 4.69-19.5 17.64-19.11 29.46.39 11.82 12.07 12.46 12.07 12.46l4.75-2.63s-5.72 1.71 6.05-5.93c0 0 6.85-17.01 11.92-22.77" transform="translate(110.4 152.582)" style="display:block"/><path fill="#CA9957" fill-opacity=".6" d="M3.622 1.208c-.91-2.2-2.4-5.14-3.31-3.26-.25 4.79-3.91 3.15-3.93 3.15 2.77 1.41 5.36 1.55 5.36 1.55l1.88-1.44z" transform="matrix(1 0 0 1.00002 102.902 172.485)" style="display:block"/><g opacity=".6" style="display:block"><path fill="#CA9957" d="M108.8 169.06v2.88l.27-.2s-.36 9.89 1.4 10.02c1.29.1 5.46-4.39 6.15-9.51 0 0 .54-3.67-1.01-6.22-2.06-3.83-6.08-3.78-6.08-3.78l-.73 6.81z" opacity="1"/></g><g mask="url(#b)" style="display:block"><path fill="#FFDD7C" d="M109.068 162.186s5.13.32 6.58 5.99c1.46 5.67-3.06 13.23-5.81 14.11-2.74.88-8.32-.13-8.88-2.95-.56-2.83 2.84-4.96 2.21-9.25"/></g></g></svg>