<svg xmlns="http://www.w3.org/2000/svg" width="231" height="72" style="width:100%;height:100%;transform:translate3d(0,0,0)"><defs><clipPath id="a"><path d="M0 0h231v72H0z"/></clipPath><clipPath id="b"><path d="M0 0h259v100H0z"/></clipPath><clipPath id="h"><path d="M0 0h100v100H0z"/></clipPath><clipPath id="i"><path fill="#fff" d="m.062 1.188-.25 70.5h100l.25-70.5h-100"/></clipPath><clipPath id="j"><path fill="#fff" d="M.5.5v16.439h25.616V.5H.5"/></clipPath><clipPath id="e"><path d="M0 0h259v100H0z"/></clipPath><clipPath id="f"><path fill="#fff" d="M209.364-18.566c-24.519 0-44.396 19.948-44.396 44.555 0 21.004 14.483 38.614 33.973 43.32a44.369 44.369 0 0 0 10.423 1.235 44.11 44.11 0 0 0 17.437-3.568c15.851-6.801 26.958-22.592 26.958-40.987 0-24.607-19.876-44.555-44.395-44.555"/></clipPath><clipPath id="g"><path fill="#fff" d="M.5.5v16.439h25.616V.5H.5"/></clipPath><clipPath id="d"><path fill="#fff" d="M26.53-13.555v14.8l46.138.035v-14.8l-46.138-.035"/></clipPath><clipPath id="c"><path fill="#fff" d="M71.916-12V3.5h1.75V-12h-1.75"/></clipPath></defs><g clip-path="url(#a)"><g clip-path="url(#b)" transform="translate(-8 -4.25)" style="display:block"><g style="display:block"><path fill="#FFC600" d="m203.294 5.84.075-.05c19.011 0 34.424 15.397 34.424 34.391 0 18.993-15.413 34.391-34.424 34.391l-.075.05c-19.012 0-34.425-15.397-34.425-34.39 0-18.995 15.413-34.392 34.425-34.392z"/><path stroke="#FFC700" stroke-width="1.4" d="m79.425-34.25.075-.05c18.943 0 34.3 15.356 34.3 34.3 0 18.943-15.357 34.3-34.3 34.3l-.075.05c-18.943 0-34.3-15.357-34.3-34.3 0-18.944 15.357-34.3 34.3-34.3z" fill="none" transform="matrix(1.00362 0 0 1.00266 123.581 40.181)"/></g><g style="display:block"><path d="M-15.56-6.44h.96v4.06c-.17.01-.33.01-.49.01-.16.01-.32.01-.47.02v-4.09zm2.23 0h.79V-7.5h-5.08v1.06h.79v4.12h-1.03l.14 1.08c.39 0 .81 0 1.26-.01.45-.01.91-.02 1.39-.05.48-.03.96-.07 1.45-.12.48-.05.96-.11 1.43-.19l-.08-.96c-.18.03-.35.05-.53.06-.18.01-.35.03-.53.04v-3.97zm4.14 1.57h-1.34v-3.47h-1.32V.87h1.32v-4.65h1.34v-1.09zm7.95 1.27h-5.13v-1.03h4.85v-1.02h-4.85v-.97h5.06v-1.06h-6.4v5.12h6.47V-3.6zm-7.45 2.33V-.2h8.34v-1.07h-8.34zm10.83-6.1H.83v6.09h.78c.68 0 1.38-.03 2.08-.08.7-.05 1.42-.15 2.17-.3l-.15-1.08c-.62.12-1.23.21-1.82.26-.59.05-1.17.09-1.75.1v-4.99zm4.63-.99v2.85H4.29v1.07h2.48V.89h1.32v-9.25H6.77zm10.69 4.35c-.52-.09-.98-.24-1.38-.45-.4-.21-.74-.46-1.01-.75-.28-.29-.48-.6-.62-.93-.14-.33-.21-.67-.21-1.01v-.66h-1.41v.66c0 .33-.07.67-.21 1-.14.33-.35.64-.62.93-.28.29-.61.54-1.01.75-.4.22-.86.37-1.38.46l.56 1.1c.8-.15 1.49-.44 2.06-.87.56-.42 1-.92 1.3-1.51.3.59.73 1.09 1.3 1.51.57.42 1.26.71 2.07.87l.56-1.1zM9.41-1.33v1.07h8.34v-1.07H9.41z" style="display:inherit" transform="translate(203.75 29.5)" fill="#222" font-size="10" font-family="SpoqaHanSans" font-weight="700" aria-label="파트너스"/></g><g clip-path="url(#e)" style="display:block" transform="matrix(.78414 0 0 .78414 39.378 20.012)"><g clip-path="url(#f)"><path fill="#221F1F" d="M-3.803-6.278c-1.949 1.011.054 7.09 1.942 10.484 3.133 6.012 9.175-.438 5.088-7.069-1.777-2.944-5.081-4.426-7.03-3.415z" transform="translate(228.015 38.258) scale(1.21577)" style="display:block"/><g clip-path="url(#g)" style="display:block" transform="translate(194.178 52.936) scale(1.24607)"><path fill="#D49F5A" d="M18.537 25.566s.558 3.405 4.384 2.241c3.826-1.166 3.606-2.948 2.463-8.077-1.143-5.132-1.035-4.795-3.234-11.322-.825-2.446-1.037-5.915-2.184-7.014-1.909-1.83-4.852-.306-6.097-.178.475.96-6.449 3.098-8.966 14.035-.871 4.186-.806 7.689-.86 9.842 0 0-4.311.656-3.423 2.472.889 1.816 5.983-.39 5.983-.39s.922 3.959 5.415 3.057c3.635-.728 2.622-4.162 2.613-4.187 0 0 1.469.126 3.906-.479z"/><path stroke-linecap="round" stroke="#AE784F" d="M18.538 25.566s.558 3.405 4.384 2.241c3.826-1.166 3.606-2.948 2.463-8.077-1.143-5.132-1.035-4.795-3.234-11.322-.825-2.446-1.037-5.915-2.184-7.014-1.909-1.83-4.852-.306-6.097-.178.475.96-6.45 3.098-8.967 14.035-.871 4.186-.806 7.689-.86 9.842 0 0-4.311.656-3.423 2.472.889 1.816 5.983-.39 5.983-.39s.923 3.959 5.416 3.057c3.635-.728 2.621-4.162 2.612-4.187 0 0 1.47.126 3.907-.479z" fill="none"/><path fill="#FFF" d="M14.898 6.651s-.833 6.041-1.146 8.935c-.313 2.893 1.452 5.597 4.871 4.937 3.419-.66 3.674-4.111.677-12.584"/></g><g style="display:block"><path fill="#D49F5A" d="M209.676 61.495c-.324-.898-2.8.385-3.914.322-7.684 1.37-15.413.053-18.983-9.85-4.205-11.663 1.889-22.832 13.592-26.972 11.699-4.14 23.437-1.522 29.291 11.56 3.565 7.963.685 13.425-4.258 17.229l.004.002-.026.014a25.085 25.085 0 0 1-2.176 1.495c-1.123.935-2.103 3.473-2.103 3.473"/><path stroke-linecap="round" stroke-linejoin="round" stroke="#AE784F" d="M209.676 61.495c-.324-.898-2.8.385-3.914.322-7.684 1.37-15.413.053-18.983-9.85-4.205-11.663 1.889-22.832 13.592-26.972 11.699-4.14 23.437-1.522 29.291 11.56 3.565 7.963.685 13.425-4.258 17.229l.004.002-.026.014a25.085 25.085 0 0 1-2.176 1.495c-1.123.935-2.103 3.473-2.103 3.473" fill="none" stroke-width="1.24607"/><path fill="#FFF" d="M192.213 46.54c3.77 15.057 14.277 14.416 22.183 11.51 10.6-3.901 20.13-10.525 13.155-23.752-7.496-12.966-18.428-8.364-14.863.431-3.565-8.795-24.551-3.131-20.475 11.81z"/><path fill="#CA9957" d="M217.016 37.422c2.701 4.249 7.39 6.626 9.721 5.805 2.3-.809 2.49-4.175.418-8.185-2.047-4.403-5.996-7.556-8.833-6.729-2.763.88-3.808 4.657-1.306 9.109zM211.107 39.288c1.152 5.163-2.094 10.755-5.846 12.126-3.796 1.37-7.598-.915-9.233-5.551-2.036-4.795-.24-10.152 4.158-11.822 4.369-1.538 9.487.234 10.92 5.247z"/></g><g style="display:block"><path fill="#FDFDFD" d="M189.756 31.606s11.318-.46 19.284-8.28l-7.207-7.826-13.382 5.478 1.305 10.628z"/><path fill="#AEAEAE" d="m188.897 25.395 18.389-.202s-9.843 6.694-17.874 6.329l-.515-6.127z"/><path fill="#FDFDFD" d="m188.136 26.355 19.15-1.164s-10.356 7.197-18.393 7.253l-.757-6.089z"/><path fill="#AEAEAE" d="m204.946 18.619-13.33 13.168s9.334-.47 17.527-9.258l-4.197-3.91z"/><path fill="#FDFDFD" d="M206.017 19.049 191.3 31.925s9.954-.499 18.74-8.694l-4.022-4.182z"/></g><path fill="#221F1F" d="M-.335-6.917c2.176-.291 4.023 5.838 4.425 9.701.883 6.722-7.767 4.906-8.224-2.87-.233-3.432 1.623-6.541 3.799-6.831z" transform="translate(188.454 51.661) scale(1.21577)" style="display:block"/><g style="display:block"><path fill="#221F1F" d="M201.494 43.162c1.011 2.83 2.707 4.837 5.153 4.013 2.447-.824 2.495-3.407 1.469-6.216-1.026-2.812-2.732-4.799-5.159-4.002-2.429.798-2.476 3.372-1.463 6.205z"/><path fill="#FFF" d="M202.21 41.077c.262.998 1.078 1.671 1.823 1.502.75-.167 1.14-1.11.878-2.104-.264-.993-1.082-1.666-1.827-1.5-.744.164-1.135 1.106-.874 2.102z"/></g><g style="display:block"><path fill="#221F1F" d="M219.27 36.853c1.254 2.603 2.92 4.552 4.796 4.03 1.876-.522 1.56-2.84.306-5.43-1.253-2.59-2.955-4.49-4.834-3.983-1.878.507-1.523 2.781-.268 5.383z"/><path fill="#FFF" d="M219.646 35.203c.407.92 1.174 1.537 1.717 1.375.544-.16.655-1.033.25-1.951-.405-.916-1.176-1.53-1.717-1.374-.545.158-.654 1.032-.25 1.95z"/></g><g style="display:block"><path fill="#D11" d="M218.772 43.495s2.328 7.628-.087 8.446c-2.419.82-4.473-6.818-4.473-6.818"/><path stroke-linecap="round" stroke-linejoin="round" stroke="#221F1F" d="M218.77 43.495s2.33 7.629-.087 8.447c-2.418.82-4.472-6.818-4.472-6.818" fill="none" stroke-width="1.21577"/></g><g style="display:block"><path fill="#FFF" d="M220.112 42.184s.623 2.126-1.028 2.7c-1.651.573-2.733-1.805-3.416-3.52"/><path stroke-linecap="round" stroke-linejoin="round" stroke="#221F1F" stroke-width="1.08932992" d="M220.112 42.184s.623 2.126-1.028 2.7c-1.651.573-2.733-1.805-3.416-3.52" fill="none"/><path fill="#FFF" d="M211.93 45.024s.65 2.258 3.215 1.236c2.566-1.02 1.155-3.165.472-4.88"/><path stroke-linecap="round" stroke-linejoin="round" stroke="#221F1F" stroke-width="1.08932992" d="M211.93 45.024s.65 2.258 3.215 1.236c2.566-1.02 1.155-3.165.472-4.88" fill="none"/><g><path fill="#221F1F" d="M212.829 40.864c.57 1.426 1.753 1.434 3.034.992 1.28-.442 2.17-1.161 1.598-2.58-.573-1.418-1.609-1.065-2.885-.63-1.28.437-2.316.792-1.747 2.218z"/></g></g><g style="display:block"><path fill="#D49F5A" d="M218.988 57.797s10.39-4.288 13.82-6.146c3.431-1.857 5.63-3.046 6.126-1.335.33 1.14-.875 2.706-3.609 4.697-1.011 5.766-3.483 8.073-7.412 6.918-1.255-.369-3.387.925-6.401 3.882"/><path stroke-linecap="round" stroke="#AE784F" d="M216.176 59.173c.595-.255 1.784-.766 4.213-1.827 4.175-1.824 10.25-4.519 12.42-5.693 3.43-1.858 5.63-3.047 6.125-1.335.33 1.139-.875 2.705-3.609 4.696-1.011 5.767-3.483 8.073-7.412 6.918-1.255-.368-3.387.925-6.401 3.882" fill="none" stroke-width="1.21577"/></g><g style="display:block"><path fill="#D49F5A" d="M204.286 62.62c1.153-1.38 2.851-2.785 5.553-4.204 10.312-4.465 13.164-5.681 16.584-7.546 3.419-1.864 5.612-3.058 6.107-1.336.33 1.149-.867 2.724-3.593 4.723-1 5.805-3.462 8.123-7.384 6.954-1.253-.373-5.571 2.855-12.957 9.686"/><path stroke-linecap="round" stroke="#AE784F" d="M204.286 62.62c1.153-1.38 2.851-2.786 5.553-4.205 10.312-4.466 13.164-5.681 16.584-7.546 3.419-1.864 5.612-3.058 6.107-1.336.33 1.148-.867 2.724-3.593 4.723-1 5.805-3.462 8.122-7.384 6.954-1.253-.373-5.571 2.855-12.957 9.686" fill="none" stroke-width="1.21577"/></g></g></g></g></g></svg>