<svg xmlns="http://www.w3.org/2000/svg" width="240" height="154" style="width:100%;height:100%;transform:translate3d(0,0,0)"><defs><mask id="h" mask-type="alpha"><g style="display:block"><path fill="red" d="M-38.104-33.029h76.21v66.06h-76.21v-66.06z" transform="translate(82.707 48.216)"/></g></mask><mask id="g" mask-type="alpha"><g style="display:block"><path fill="red" d="M-3.555-.003c0 3.93 1.59 7.11 3.55 7.11 1.97 0 3.56-3.18 3.56-7.11 0-3.92-1.59-7.1-3.56-7.1-1.96 0-3.55 3.18-3.55 7.1z" transform="translate(40.202 96.549)"/></g></mask><mask id="f" mask-type="alpha"><g style="display:block"><path fill="red" d="M-13.118-7.772h26.24v15.54h-26.24v-15.54z" transform="translate(38.118 127.717)"/></g></mask><mask id="e" mask-type="alpha"><g style="display:block"><path fill="red" d="M-11.999-11.999h24v24h-24v-24z" transform="translate(39.579 137.597)"/></g></mask><mask id="d" mask-type="alpha"><g style="display:block"><path fill="red" d="M-11.999-11.999h24v24h-24v-24z" transform="translate(39.579 137.597)"/></g></mask><mask id="c" mask-type="alpha"><g style="display:block"><path fill="red" d="M-11.999-11.999h24v24h-24v-24z" transform="translate(102.807 137.597)"/></g></mask><mask id="b" mask-type="alpha"><g style="display:block"><path fill="red" d="M-11.999-11.999h24v24h-24v-24z" transform="translate(102.807 137.597)"/></g></mask><clipPath id="a"><path d="M0 0h240v154H0z"/></clipPath></defs><g clip-path="url(#a)"><g mask="url(#b)" style="display:block"><path fill="#1C1C1B" d="M114.808 137.598c0 6.63-5.37 12-12 12s-12-5.37-12-12 5.37-12 12-12 12 5.37 12 12"/></g><g mask="url(#c)" style="display:block"><path fill="#6F6E6E" d="M108.168 137.599a5.36 5.36 0 1 1-10.72 0 5.36 5.36 0 0 1 10.72 0"/><path stroke-linecap="round" stroke-linejoin="round" stroke-dasharray="2" stroke="#969696" d="M108.168 137.599a5.36 5.36 0 1 1-10.72 0 5.36 5.36 0 0 1 10.72 0" fill="none"/></g><g mask="url(#d)" style="display:block"><path fill="#1C1C1B" d="M51.58 137.598c0 6.63-5.37 12-12 12s-12-5.37-12-12 5.37-12 12-12 12 5.37 12 12"/></g><g mask="url(#e)" style="display:block"><path fill="#6F6E6E" d="M44.94 137.599a5.36 5.36 0 1 1-10.72 0 5.36 5.36 0 0 1 10.72 0"/><path stroke-linecap="round" stroke-linejoin="round" stroke-dasharray="2" stroke="#969696" d="M44.94 137.599a5.36 5.36 0 1 1-10.72 0 5.36 5.36 0 0 1 10.72 0" fill="none"/></g><g style="display:block"><path fill="#FDFDFD" d="m114.044 118.54-8.7-.06c-.89.07-1.81-.13-2.55-.63-.15-.11-.29-.22-.4-.34-.98-1.08-1.46-2.51-1.46-3.97V96.18c0-.12.03-5.12.09-5.52.28-2.21 1.65-4.16 3.66-5.13.85-.42 5.26-.71 6.02-.64l8.03-.2c1.32-.03 2.64.02 3.93.27 8.08 1.59 12.19 7.84 12.19 16.3v7.53c0 1.67-.41 4.27-.76 6.21a3.312 3.312 0 0 1-3.09 2.71c-3.19.17-13.78.46-16.96.83"/><path stroke="#FFF" stroke-width="3" d="m114.044 118.54-8.7-.06c-.89.07-1.81-.13-2.55-.63-.15-.11-.29-.22-.4-.34-.98-1.08-1.46-2.51-1.46-3.97V96.18c0-.12.03-5.12.09-5.52.28-2.21 1.65-4.16 3.66-5.13.85-.42 5.26-.71 6.02-.64l8.03-.2c1.32-.03 2.64.02 3.93.27 8.08 1.59 12.19 7.84 12.19 16.3v7.53c0 1.67-.41 4.27-.76 6.21a3.312 3.312 0 0 1-3.09 2.71c-3.19.17-13.78.46-16.96.83" fill="none"/></g><path fill="#E2E5ED" d="M-9.796-6.464s8.68-1.17 12.98 2.14c4.37 3.38 5.34 7.05 6.61 10.99h-19.59v-13.13z" transform="translate(110.582 112.588)" style="display:block"/><path fill="#E2E5ED" d="M.003 4.835c-.29 0-.52-.23-.52-.51v-8.65a.514.514 0 0 1 1.03 0v8.65c0 .28-.23.51-.51.51" transform="translate(118.466 89.328)" style="display:block"/><path fill="#E2E5ED" d="M5.384.513h-10.77a.514.514 0 0 1 0-1.03h10.77a.514.514 0 0 1 0 1.03" transform="translate(106.179 99.875)" style="display:block"/><path fill="#FFDD14" d="m1.807 2.618-3.35 1.22-2.3-6.26 3.36-1.23c1.6-.59 3.38.24 3.97 1.84l.17.45a3.11 3.11 0 0 1-1.85 3.98" transform="translate(120.992 129.861)" style="display:block"/><path fill="#1C1C1B" d="M6.292.749s-8.39-6.45-7.59-5.82c1 .78-1.75-1.41-2.38-1.69-1.67-.73-3.44.45-4.01 2.26-.58 1.81.48 3.21 1.94 4.31l7.38 5.69c.99.78 1.32 1.12 2.18 1.37 1.48.41 2.97-.3 3.68-2.23.59-1.62.61-2.59-1.2-3.89" transform="translate(50.119 90.295)" style="display:block"/><path fill="#FFDC7C" d="M.275 10.896c-3.39-.09-7.32-1.93-8.86-6.18-1.62-4.46 3.77-10.92 9.49-15.61l7.97 2.68" transform="translate(69.614 113.746)" style="display:block"/><path fill="#DDBC61" d="M-5.833 9.926c-2.67-.06-7.62-3.01-7.66-7.66-.03-3.21 5.04-9.51 7.31-12.04 1.09-.04 4.34-.15 7.92-.15 8.45 0 11.01.62 11.76.93-2.53 3.31-12.5 14.11-12.61 14.23l-.62.76c-1.76 2.2-3.15 3.93-5.95 3.93h-.15z" transform="translate(79.925 116.993)" style="display:block"/><path fill="#FFDC7C" d="M-5.833 9.926c-2.67-.06-7.62-3.01-7.66-7.66-.03-3.21 5.04-9.51 7.31-12.04 1.09-.04 4.34-.15 7.92-.15 8.45 0 11.01.62 11.76.93-2.53 3.31-12.5 14.11-12.61 14.23l-.62.76c-1.76 2.2-3.15 3.93-5.95 3.93h-.15z" transform="translate(80.925 117.993)" style="display:block"/><path fill="#5BC4F0" d="M-18.541 6.721c-.21 3.37 9.09 8.04 21.79 9.73 12.7 1.7 15.19-.9 15.19-.9s2.06-20.6-11.93-30.26c-13.99-9.65-22.94 13.93-22.94 13.93" transform="translate(83.087 95.087)" style="display:block"/><g mask="url(#f)" style="display:block"><path fill="#FDFDFD" d="M51.14 133.625s-4.92-.94-12.86 0c-7.93.95-11.98 3.89-13.11-.42-1.14-4.3 3.55-14.34 14.25-13.16 10.7 1.18 12.27 8.43 11.72 13.58"/></g><path fill="#1C1C1B" d="m2.535 3.816-6.87.2c-1.67.21-3.97.15-5.24-.25 0 0-1.27.13-2.23-1.09-1.17-1.5-1.97-4.66 2.32-5.61 6.91-1.52 15.01-1.24 16.71-1.04 3.41.14 4.86 1.1 5.45 3.49.37 1.49-1.23 2.52-1.23 2.52-2.13 1.05-7.24 1.58-8.91 1.78" transform="translate(98.864 112.585)" style="display:block"/><path fill="#FDFDFD" d="M-21.232 8.343s2.36-7.48 5.94-13.54c2.06-3.5 5.15-4.29 10.32-5.15 5.05-.84 15.59-1.13 18.95.6 8.51 4.38 7.18 13.48 7.18 13.48l-23.37 7.28-19.02-2.67z" transform="translate(98.662 124.448)" style="display:block"/><path fill="#FDFDFD" d="M41.956 14.116c1.18 1.61 1.04 8.82-3.15 9.8-8.61 3.23-29.55 4.21-45.53 3.4-22.35-1.14-24.62-9.88-28.39-14.92-3.76-5.04-6.91-6.3-6.91-6.3s-2.28-1.13 2.26-6.8c4.53-5.67 7.47-18.45 7.47-18.45s2.36-10.37 10.05-8.11c7.68 2.27 8.51 7.92 3.51 15.86-5 7.95-8.13 13.95-5.67 19.8 2.45 5.84 11.71 11.39 35.68 10.41 23.97-.97 30.68-4.69 30.68-4.69" transform="translate(78.049 112.928)" style="display:block"/><path fill="#E2E5ED" d="M4.514 7.37h-.02c-.38-.01-2.36-.43-4.31-7.65-1.76-6.55-4.58-6.06-4.61-6.05a.52.52 0 0 1-.61-.39c-.06-.27.11-.55.38-.61.16-.04 3.79-.82 5.84 6.78 1.74 6.47 3.37 6.89 3.39 6.9.28 0 .48.24.47.52-.01.28-.26.5-.53.5" transform="translate(49.475 103.727)" style="display:block"/><path fill="#9C9C9B" d="M5.025-.239c0 4.21-2.03 7.61-4.54 7.61-1.08 0-4.4 1.07-5.18 0-1.02-1.39.65-5.22.65-7.61 0-1.65-.65-7.61-.65-7.61h5.18c2.51 0 4.54 3.41 4.54 7.61" transform="translate(45.031 96.484)" style="display:block"/><path fill="#FFDD14" d="M.004 7.915c-2.49 0-4.37-3.4-4.37-7.91 0-4.52 1.88-7.92 4.37-7.92 2.44 0 4.36 3.48 4.36 7.92 0 4.43-1.92 7.91-4.36 7.91" transform="translate(40.202 96.55)" style="display:block"/><path fill="#1C1C1B" d="M5.663.225s-7.23-5.5-6.41-4.89c1.01.76-1.79-1.37-2.42-1.63-1.69-.7-3.43.52-3.96 2.35-.54 1.82.55 3.2 2.03 4.26l6.2 4.77c1.01.75 1.34 1.09 2.22 1.31 1.48.38 2.96-.36 3.62-2.31.55-1.63.56-2.6-1.28-3.86" transform="translate(60.997 98.361)" style="display:block"/><path fill="#FFDC7C" d="M-8.587 6.344c-.2 0-.4-.01-.6-.04-2.95-.38-5.51-2.92-5.83-5.77-.15-1.34.26-2.63 1.16-3.64.94-1.07 2.28-1.66 3.78-1.67.97 0 1.87.25 2.7.76.13.09.29.13.45.13h.02c3.34-.1 9.26-1.23 12.44-1.83.92-.18 1.62-.31 1.99-.37 1.11-.17 2.11-.26 2.96-.26 3.61 0 4.15 1.54 4.48 3.56.45 2.73-.7 4.71-7.78 6.15-6.18 1.26-10.09 1.56-12.5 1.67a.84.84 0 0 0-.56.24c-.73.7-1.67 1.07-2.71 1.07z" transform="translate(74.748 95.68)" style="display:block"/><g mask="url(#g)" style="display:block"><path fill="#FDFDFD" d="m35.964 102.364-2.2-2.2 9.43-9.43 2.2 2.2-9.43 9.43z"/></g><path fill="#E2E5ED" d="M-8.451-5.293s3.23.06 7.32 5.07c2.95 3.62 3.03 6.76 3.03 6.76h6.55l-8.19-9.98-3.51-3.09-5.2 1.24z" transform="translate(40.692 126.367)" style="display:block"/><path fill="#E53331" d="m-2.166-6.058.18-.11c1.03-.76 2.42-.83 3.51-.2l.18.11c.35.23.74.4 1.16.48l.2.04c1.29.17 2.33 1.09 2.64 2.3l.04.19c.07.4.23.79.46 1.13l.12.17c.78 1 .85 2.36.2 3.43l-.12.18c-.23.34-.4.72-.49 1.12l-.03.2c-.18 1.26-1.13 2.27-2.37 2.58l-.19.04c-.41.07-.81.23-1.16.45l-.17.12c-1.03.76-2.42.83-3.52.2l-.18-.12c-.35-.23-.74-.39-1.15-.47l-.21-.04c-1.28-.17-2.32-1.09-2.63-2.31l-.04-.18a3.05 3.05 0 0 0-.47-1.13l-.12-.17a3.034 3.034 0 0 1-.2-3.44l.12-.17c.24-.34.4-.72.49-1.13l.04-.2c.17-1.25 1.12-2.27 2.36-2.57l.19-.04c.42-.08.81-.23 1.16-.46z" transform="translate(118.429 100.122)" style="display:block"/><path fill="#FFF" d="M-.08-3.621c-2.05.05-3.67 1.71-3.63 3.7.02.82.31 1.56.79 2.16.7.86 1.79 1.41 3 1.38 1.18-.03 2.21-.58 2.87-1.43.5-.63.78-1.42.76-2.27-.05-2-1.74-3.58-3.79-3.54z" transform="translate(118.429 100.123)" style="display:block"/><path fill="#E2E5ED" d="M.003-.477c-.27 0-.48.21-.48.48 0 .26.21.47.48.47.26 0 .47-.21.47-.47 0-.27-.21-.48-.47-.48" transform="translate(112.903 124.23)" style="display:block"/><path fill="#E2E5ED" d="M-.003 1.498c-.83 0-1.5-.67-1.5-1.5s.67-1.5 1.5-1.5 1.51.67 1.51 1.5-.68 1.5-1.51 1.5" transform="translate(112.903 124.231)" style="display:block"/><path fill="#CB2019" d="M21.952-27.857c-4.84-4.47-4.18-5.71-9.57-7.06-4.78-2-4.87-2.83-13.79-2.83-8.92 0-11.51.83-13.85 2.83-2.25 1.33-5.51 2.59-8.38 6.34-2.85 3.81-4.23 8.77-4.68 12.97-.9 3.96-3.77 7.64-3.48 13.95-.22 6.32 2.45 9.68 3.11 13.54.15 4.15.15 9.72 2.1 13.93 2.21 4.19 4.04 4.29 6.2 5.69 2.35 1.99 1.83 4.42 7.47 5.96 5.79 1.59 11.45-3.96 16.1-5.96 5.56-1.35 12.85-1.03 18.09-5.5 5.01-4.48 4.82-8.97 6.24-13.15 2.08-3.91 4.18-4.27 4.18-14.18 0-9.9.72-11.21-1.3-15.12-1.37-4.18-3.83-6.94-8.44-11.41z" transform="translate(87.114 54.766)" style="display:block"/><path fill="#FFDD7C" d="M12.6.297c0 12.87 4.02 25.68-5.76 25.68-13.35 0-21.65-7.64-20.07-25.68 1.46-16.64 12.86-27.41 20.07-26.17 8.35 1.43 5.76 12.64 5.76 26.17" transform="translate(66.547 53.443)" style="display:block"/><path fill="#E3DEDE" d="M4.097.001c0 2.59-1.22 4.69-3.7 4.69-2.48 0-4.49-2.1-4.49-4.69 0-2.59 2.01-4.69 4.49-4.69 2.48 0 3.7 2.1 3.7 4.69" transform="translate(53.235 63.707)" style="display:block"/><path fill="#FDFDFD" d="M4.01.002c.29 2.89-.88 5.27-3.01 5.27-2.79 0-5.05-2.36-5.05-5.27 0-2.91 2.26-5.27 5.05-5.27 2.13 0 2.72 2.37 3.01 5.27" transform="translate(54.532 63.707)" style="display:block"/><path fill="#2C2623" d="M1.462-.002c0 1.14-.66 2.05-1.46 2.05-.81 0-1.46-.91-1.46-2.05 0-1.13.65-2.05 1.46-2.05.8 0 1.46.92 1.46 2.05" transform="translate(63.476 56.011)" style="display:block"/><path fill="#CB2019" d="M3.547 1.909c-.38 1.51-3.27 3.32-4.14 3.14-2.41-.51-3.6-1.81-3.32-4.36.29-2.54 3.45-6.21 5.86-5.7 2.42.5 2.23 4.44 1.6 6.92" transform="translate(52.261 57.492)" style="display:block"/><path fill="#2C2623" d="M-.101 2.076c1.49-.22 2.63-1.36 2.63-2.24 0-.97-2.14-1.91-3.87-1.91-.92 0-.81.27-1.19.67-.03 1.82.82 2.91 2.43 3.48" transform="translate(50.842 60.208)" style="display:block"/><path fill="#26252A" d="M-5.531 3.784c3.06-2.94 6.14-6.48 7.68-8.91.1-.16.3-.21.46-.11l2.86 1.73c.16.1.21.31.11.47-1.43 2.26-3.93 5.27-6.65 8.05-.2.22-.51.31-.8.26-1.25-.24-2.43-.55-3.54-.93a.34.34 0 0 1-.12-.56" transform="translate(74.71 77.566)" style="display:block"/><g opacity=".2" style="display:block"><path fill="#4D4D4D" d="M84.776 52.112c-.25-5.33-4.06-8.65-7.99-10.74 7.82-6.84 18.03-5.93 21.52-.12 2.24 3.73 2.27 8.85 2.33 13.07.4 25.79-5.25 21.41-2.35 26.73-6.94 2.14-25.07-2.53-23.55-15.33.84-7.12 10.34-7.4 10.04-13.61" opacity="1"/></g><g mask="url(#h)" style="display:block"><path fill="#5BC4F0" d="M57.783 30.917s.1-.03.29-.08c6.06-9.41 16.63-15.65 28.66-15.65 18.82 0 34.08 15.26 34.08 34.08 0 13.62-7.99 25.37-19.54 30.83-1.22.86-3.02 1.23-5.56 1.13-12.5-.44-20.2-8.25-19.53-14.61.67-6.36 11.38-7.14 9.93-15.06-1.66-9.09-12.16-10.71-17.62-11.83-5.47-1.11-23.43-5.57-23.88-7.25-.45-1.67 13.17-1.56 13.17-1.56"/></g><path fill="#FDFDFD" d="M20.701-6.874c-4.32-1.97-7.68-3.02-12.74-3.02-12.03 0-22.59 6.24-28.66 15.65-.18.05 6.06 4.14 6.06 4.14s8.24-20.44 35.34-16.77" transform="translate(81.442 25.731)" style="display:block"/><path fill="#95D3EC" d="M18.876 7.069c-4.01-3.48-10.12-4.48-13.86-5.24-5.47-1.12-23.43-5.58-23.88-7.26-.45-1.67 13.17-1.56 13.17-1.56s.1-.03.29-.08c9.19.63 18.67 7.73 24.28 14.14" transform="translate(63.477 37.905)" style="display:block"/><path fill="#26252A" d="M-6.471-.001c0 3.57 2.9 6.47 6.47 6.47s6.47-2.9 6.47-6.47-2.9-6.47-6.47-6.47-6.47 2.9-6.47 6.47" transform="translate(87.008 67.621)" style="display:block"/><path fill="#FFF" d="M30.533-.845c4.71-7.2 8.3-13.93.41-21.24-9.15-8.46-20.21-3.33-24.25 5.41-.9-7.12-10.66-6.92-11.09.2-6.58-6.34-22.6 3.53-14.86 14.88 0 0-4.54-.93-7 .72-2.83 1.89-2.42 4.42-3.27 7.24-7.73-3.36-14.3 17.53 3.36 15.64 0 0 15.06 9.48 39.58.61 12.38 4.78 16.92-2.63 16.92-2.63 9.32-2.32 4.68-10.9 4.68-10.9 4.93-3.42 1.65-10.18-4.48-9.93" transform="rotate(5 -1327.599 1900.063) scale(.6)" style="display:block"/><path fill="#CBCBCB" d="M30.533-1.635c4.71-7.22 8.3-13.98.41-21.31-1.36-1.26-2.76-2.22-4.18-2.91 1.33 1.96 2.87 3.85 3.59 6.09 1.33 4.11.05 7.33-2.63 10.62-1.86 2.29-2.63 4.21-3.85 6.77-.56 1.17-1.47 3.22-2.68 3.74-.25-1-.42-1.98-.49-3.01-1.69 1.22-1.14 5.21-1.6 7.03-.48 1.88-1.68 3.43-2.63 5.09 2.84-5.65 2.99-12.83-1.05-18-4.65-5.97-5.38-.7-4.33 4.12 1.41 6.46-.82 11.65-9.24 16.03-8.42 4.39-13.94 1.98-16.17.15-1.65-1.37-.85-6.129.18-7.699-2.19 1.4-3.78 7.509-1.23 8.579-1.39 2.26-4.79-2.36-5.16-3.64.12.99.41 1.981.62 2.921v-.021c-.34 1.2.13 1.77-.8 2.94-1.76 2.21-5.83 3.36-8.65 3.27-4.3-.13-6.76-2.579-6.94-6.549-.06-1.33-.06-3.441 1.19-4.331l-.47-.35c-3.44 4.91-2.93 14.73 9.4 13.39 0 0 15.3 9.75 40.97.77 9.08 4.95 15.46-2.52 15.46-2.52 11.16-3.19 4.76-11.2 4.76-11.2 4.93-3.43 1.65-10.22-4.48-9.97" transform="rotate(5 -1334.533 1904.91) scale(.6)" style="display:block"/><path fill="#CBCBCB" d="M-8.772-2.291c2.58 2.51 5.73 3.37 9.07 2.92 4.8-.72 7.37-3.45 9.57-6.68-.39.8.03 1.76.03 2.65.02 1.86-.48 3.5-1.45 5.16-2.27 3.47-5.87 4.81-10.09 4.11-2.6-.74-4.41-2.15-6.14-4.69-.87-1.19-1.37-2.9-2.12-4" transform="rotate(5 -1328.634 1830.619) scale(.6)" style="display:block"/><path fill="#CBCBCB" d="M4.399.279c-.94 3.71-4.3 3.89-8.8 4.67 2.18-.79 4.51-2.03 5.44-4.2.81-1.89.73-3.62-1.04-5.7 0 0 3.08.15 4.4 5.23" transform="rotate(5 -1216.733 1925.816) scale(.6)" style="display:block"/><path stroke-linecap="round" stroke-linejoin="round" stroke="#FFF" stroke-width="1.51" d="M-26.167 24.086c-17.66 1.89-11.09-18.95-3.36-15.6.85-2.82.44-5.34 3.27-7.22 2.46-1.65 7-.72 7-.72-7.74-11.32 8.28-21.17 14.86-14.84.43-7.11 10.19-7.3 11.09-.21 4.04-8.71 15.1-13.83 24.25-5.39 7.89 7.29 4.3 14.01-.41 21.19 6.13-.26 9.41 6.49 4.48 9.91 0 0 5.28 8.41-4.52 10.71" fill="none" transform="rotate(5 -1314.293 1907.282) scale(.6)" style="display:block"/><path fill="#FDFDFD" d="M4.88 2.399h-9.76c-1.32 0-2.4-1.08-2.4-2.4 0-1.32 1.08-2.4 2.4-2.4h9.76c1.32 0 2.4 1.08 2.4 2.4 0 1.32-1.08 2.4-2.4 2.4" transform="translate(136.862 98.309)" style="display:block"/><path fill="#FDFDFD" d="M3.195 2.399h-6.39c-1.32 0-2.4-1.08-2.4-2.4 0-1.32 1.08-2.4 2.4-2.4h6.39c1.32 0 2.4 1.08 2.4 2.4 0 1.32-1.08 2.4-2.4 2.4" transform="translate(135.177 107.915)" style="display:block"/><path fill="#2B2421" d="M8.272.81h-16.55c-.32 0-.58-.36-.58-.81 0-.45.26-.81.58-.81h16.55c.33 0 .59.36.59.81 0 .45-.26.81-.59.81" transform="translate(137.858 95.909)" style="display:block"/><path fill="#2B2421" d="M3.529.81h-7.06c-.32 0-.58-.36-.58-.81 0-.45.26-.81.58-.81h7.06c.32 0 .58.36.58.81 0 .45-.26.81-.58.81" transform="translate(154.118 95.909)" style="display:block"/><path fill="#2B2421" d="M5.079.81h-10.16c-.32 0-.58-.36-.58-.81 0-.45.26-.81.58-.81h10.16c.32 0 .58.36.58.81 0 .45-.26.81-.58.81" transform="translate(137.158 110.316)" style="display:block"/><path fill="#2B2421" d="M8.272.81h-16.55c-.32 0-.58-.36-.58-.81 0-.45.26-.81.58-.81h16.55c.33 0 .59.36.59.81 0 .45-.26.81-.59.81" transform="translate(148.374 100.712)" style="display:block"/><path fill="#2B2421" d="M3.145.81h-6.29c-.32 0-.58-.36-.58-.81 0-.45.26-.81.58-.81h6.29c.32 0 .58.36.58.81 0 .45-.26.81-.58.81" transform="translate(141 105.514)" style="display:block"/></g></svg>