<svg xmlns="http://www.w3.org/2000/svg" width="84" height="65" style="width:100%;height:100%;transform:translate3d(0,0,0)"><defs><clipPath id="a"><path d="M0 0h84v65H0z"/></clipPath></defs><g clip-path="url(#a)"><path fill="#221F1F" d="M-2.692-11.522s8.1 4.39 8.1 12.44-6.15 11.89-10.82 10.22" transform="translate(70.422 39.897)" style="display:block"/><path fill="#221F1F" d="M-2.692-11.522s8.1 4.39 8.1 12.44-6.15 11.89-10.82 10.22" transform="matrix(-1 0 0 1 11.412 39.897)" style="display:block"/><path fill="#DDAA6B" d="M-18.585 22.711c-6.81-2.71-11.72-8.03-11.72-18.25 0-18.44 13.57-27.17 30.31-27.17 16.73 0 30.3 8.73 30.3 27.17 0 9.67-4.4 14.95-10.64 17.79" transform="translate(41.063 33.209)" style="display:block"/><path fill="#FFF" d="M-11.847 17.286c-9.05-1.99-15.59-7.61-15.59-20.72 0-18.41 27.44-16.85 27.44-5.31 0-11.54 27.43-13.1 27.43 5.31 0 13.29-6.07 18.87-15.32 20.8" transform="translate(41.064 38.583)" style="display:block"/><path fill="#CA9957" d="M10.895-.529c-1.11 6.74-7.8 12.06-13.08 12.07-5.3-.04-8.92-4.42-8.77-10.64-.24-6.62 4.57-12.3 10.86-12.44 6.22-.04 11.72 4.28 10.99 11.01" transform="translate(26.345 36.992)" style="display:block"/><path fill="#CA9957" d="M-10.893-.529c1.11 6.74 7.8 12.06 13.07 12.07 5.31-.04 8.93-4.42 8.78-10.64.24-6.62-4.57-12.3-10.87-12.44-6.21-.04-11.71 4.28-10.98 11.01" transform="translate(55.972 36.992)" style="display:block"/><path fill="#221F1F" d="M4.746-.476c.4 3.9-.54 7.19-4.04 7.54-3.5.35-5.07-2.68-5.46-6.59-.39-3.9.55-7.19 4.05-7.54 3.49-.35 5.06 2.69 5.45 6.59" transform="translate(29.214 36.939)" style="display:block"/><path fill="#FFF" d="M1.889-.001c0 1.35-.85 2.45-1.89 2.45s-1.89-1.1-1.89-2.45.85-2.45 1.89-2.45 1.89 1.1 1.89 2.45" transform="translate(27.86 34.971)" style="display:block"/><path fill="#221F1F" d="M4.752.453c-.37 3.91-1.93 6.95-5.43 6.62-3.5-.34-4.45-3.62-4.07-7.53.37-3.9 1.92-6.95 5.42-6.62 3.5.34 4.45 3.62 4.08 7.53" transform="translate(53.829 36.939)" style="display:block"/><path fill="#FFF" d="M1.889-.001c0 1.35-.85 2.45-1.89 2.45s-1.89-1.1-1.89-2.45.85-2.45 1.89-2.45 1.89 1.1 1.89 2.45" transform="translate(52.931 34.971)" style="display:block"/><path fill="#D11" d="M-3.758-3.546s-.27 7.09 3.76 7.09c4.02 0 3.75-7.09 3.75-7.09" transform="matrix(1 0 0 .9 41.079 49.046)" style="display:block"/><path stroke-linecap="round" stroke-linejoin="round" stroke="#221F1F" stroke-width="1.3" d="M-3.758-3.546s-.27 7.09 3.76 7.09c4.02 0 3.75-7.09 3.75-7.09" fill="none" transform="matrix(1 0 0 .9 41.079 49.046)" style="display:block"/><path fill="#FFF" d="M-3.281.002s-.3 3.07 3.47 2.92c3.76-.15 3.05-3.42 3.05-5.85" transform="translate(37.789 43.809)" style="display:block"/><path stroke-linecap="round" stroke-linejoin="round" stroke="#221F1F" stroke-width="1.3" d="M-3.281.002s-.3 3.07 3.47 2.92c3.76-.15 3.05-3.42 3.05-5.85" fill="none" transform="translate(37.789 43.809)" style="display:block"/><path fill="#FFF" d="M3.289.002s.29 3.07-3.47 2.92c-3.77-.15-3.06-3.42-3.06-5.85" transform="translate(44.334 43.809)" style="display:block"/><path stroke-linecap="round" stroke-linejoin="round" stroke="#221F1F" stroke-width="1.3" d="M3.289.002s.29 3.07-3.47 2.92c-3.77-.15-3.06-3.42-3.06-5.85" fill="none" transform="translate(44.334 43.809)" style="display:block"/><path fill="#221F1F" d="M3.353-.262c0 2.02-1.5 2.54-3.35 2.54-1.86 0-3.36-.52-3.36-2.54s1.5-2.02 3.36-2.02c1.85 0 3.35 0 3.35 2.02" transform="translate(41.064 39.296)" style="display:block"/><g style="display:block"><path fill="#F9F9F9" d="M85.73 55v12.488H-1.73V55h87.46z"/><path d="M85.73 55v12.488H-1.73V55h87.46z" fill="none"/></g><path fill="#BF8E69" d="M-.545 5.466c-3.03 0-5.23-2.44-4.97-5.46.26-3.02 2.93-5.47 5.99-5.47s5.33 2.44 5.03 5.46c-.29 3.02-3.02 5.46-6.05 5.47z" transform="matrix(-1 0 0 1 58.535 54.027)" style="display:block"/><path fill="#DDAA6B" d="M3.33-3.3C2.51-4.12 1.39-4.53.25-4.5c-1.13.04-2.27.51-3.15 1.34-.88.81-1.48 1.99-1.58 3.23-.12 1.23.3 2.5 1.14 3.31.83.81 1.96 1.19 3.07 1.11 1.12-.04 2.23-.54 3.12-1.33.89-.79 1.5-1.94 1.63-3.18.12-1.23-.31-2.48-1.15-3.28z" transform="matrix(-1 0 0 1 58.5 54)" style="display:block"/><path fill="#BF8E69" d="M-.545 5.466c-3.03 0-5.23-2.44-4.97-5.46.26-3.02 2.93-5.47 5.99-5.47s5.33 2.44 5.03 5.46c-.29 3.02-3.02 5.46-6.05 5.47z" transform="translate(26.535 54.027)" style="display:block"/><path fill="#DDAA6B" d="M3.33-3.3C2.51-4.12 1.39-4.53.25-4.5c-1.13.04-2.27.51-3.15 1.34-.88.81-1.48 1.99-1.58 3.23-.12 1.23.3 2.5 1.14 3.31.83.81 1.96 1.19 3.07 1.11 1.12-.04 2.23-.54 3.12-1.33.89-.79 1.5-1.94 1.63-3.18.12-1.23-.31-2.48-1.15-3.28z" transform="translate(26.5 54)" style="display:block"/></g></svg>