<svg xmlns="http://www.w3.org/2000/svg" width="750" height="250" style="width:100%;height:100%;transform:translate3d(0,0,0)"><defs><mask id="d" mask-type="alpha"><g style="display:block"><path fill="red" d="M-10.781-18.856h21.56v37.71h-21.56v-37.71z" transform="scale(-1 1) rotate(-51 -162.593 651.951)"/></g></mask><mask id="c" mask-type="alpha"><g style="display:block"><path fill="red" d="M-22.194-12.626h44.39v25.25h-44.39v-25.25z" transform="scale(-1 1) rotate(-51 -112.13 677.27)"/></g></mask><mask id="b" mask-type="alpha"><g style="display:block"><path fill="red" d="M-10.782-18.856h21.56v37.71h-21.56v-37.71z" transform="scale(-1 1) rotate(-51 -123.524 733.862)"/></g></mask><clipPath id="a"><path d="M0 0h750v250H0z"/></clipPath></defs><g clip-path="url(#a)"><g style="display:block"><path fill="#FFF" fill-opacity=".36" d="M604.704 134.982c15.907 19.66 34.143 38.08 59.085 14.06 19.604-18.886 18.08-43.22 1.776-63.37s-39.716-26.592-62.32-11.427c-28.753 19.282-14.424 41.108 1.459 60.737"/><path stroke="#FFF" d="M604.704 134.982c15.907 19.66 34.143 38.08 59.085 14.06 19.604-18.886 18.08-43.22 1.776-63.37s-39.716-26.592-62.32-11.427c-28.753 19.282-14.424 41.108 1.459 60.737" fill="none"/></g><path fill="#D11" d="M40.786 16.897c2.46-4.8 7.34-9.13 7.34-16.9 0-7.76-4.88-12.09-7.34-16.89-1.65-5.13-1.27-11.65-6.76-17.14-5.49-5.48-12-5.1-17.13-6.76-4.8-2.45-9.13-7.33-16.9-7.33-7.76 0-12.09 4.88-16.89 7.33-5.13 1.66-11.65 1.28-17.13 6.77-5.49 5.49-5.11 12-6.77 17.13-2.45 4.8-7.33 9.13-7.33 16.89 0 7.77 4.88 12.1 7.33 16.9 1.66 5.13 1.28 11.64 6.77 17.13 5.48 5.49 12 5.11 17.13 6.76 4.8 2.46 9.13 7.34 16.89 7.34 7.77 0 12.1-4.88 16.9-7.34 5.13-1.65 11.64-1.27 17.13-6.76 5.49-5.49 5.11-12 6.76-17.13" transform="scale(-1 1) rotate(-51 -192.52 716.493)" style="display:block"/><path fill="#FFD769" d="M-.301-21.896h-14.18s-4.03 14.281-4.69 26.291c-.66 12.01-3.81 17.5 14.14 17.5h10.07c17.94 0 14.79-5.49 14.13-17.5-.66-12.01-4.69-26.291-4.69-26.291H.299" transform="scale(-1 1) rotate(-51 -140.216 690.666)" style="display:block"/><path fill="#FFDD7C" d="M.006 31.819c-18.58 0-34.48-7.49-34.48-28.14s15.9-35.5 34.48-35.5c18.57 0 34.47 14.85 34.47 35.5s-15.9 28.14-34.47 28.14" transform="scale(-1 1) rotate(-51 -191.771 716.006)" style="display:block"/><path fill="#FFF" d="M5.771-6.467a6.46 6.46 0 0 0-5.77 3.56c-1.07-2.11-3.25-3.56-5.77-3.56-3.57 0-6.47 2.9-6.47 6.47s2.9 6.46 6.47 6.46c2.52 0 4.7-1.45 5.77-3.55a6.468 6.468 0 0 0 5.77 3.55c3.57 0 6.47-2.89 6.47-6.46s-2.9-6.47-6.47-6.47" transform="scale(-1 1) rotate(-51 -178.838 709.528)" style="display:block"/><path fill="#221F1F" d="M2.562.002c0 1.41-1.15 2.56-2.56 2.56-1.41 0-2.56-1.15-2.56-2.56 0-1.42 1.15-2.56 2.56-2.56 1.41 0 2.56 1.14 2.56 2.56" transform="scale(-1 1) rotate(-51 -180.992 730.517)" style="display:block"/><path fill="#221F1F" d="M2.52-.001A2.524 2.524 0 0 1-.001 2.52a2.523 2.523 0 0 1-2.52-2.521c0-1.39 1.13-2.52 2.52-2.52 1.39 0 2.521 1.13 2.521 2.52" transform="scale(-1 1) rotate(-51 -196.265 698.495)" style="display:block"/><path fill="#D11" d="M5.37 1.114c0 3.21-2.4 5.39-5.37 5.39s-5.37-2.18-5.37-5.39c0-3.21 2.4-7.62 5.37-7.62s5.37 4.41 5.37 7.62" transform="scale(-1 1) rotate(-51 -186.055 713.28)" style="display:block"/><path fill="#221F1F" d="M3.849-.223c0 1.19-1.72 2.8-3.85 2.8s-3.85-1.61-3.85-2.8c0-1.19 1.72-2.35 3.85-2.35s3.85 1.16 3.85 2.35" transform="scale(-1 1) rotate(-51 -183.2 711.917)" style="display:block"/><path fill="#AE784F" d="M.319-.001h-.64.64z" transform="scale(-1 1) rotate(-51 -111.8 677.966)" style="display:block"/><g mask="url(#b)" style="display:block"><path fill="#FFF" d="M626.96 159.473c.173 9.652-3.406 21.853-11.148 30.44-7.736 8.593-17.179-.064-11.505-8.185 5.66-7.916 7.426-10.105 6.948-15.637"/></g><g mask="url(#c)" style="display:block"><path fill="#FFF" d="M591.674 173.204s-5.625 5.224-19.68 9.065c0 0-.144 7.657-8.345-3.678-7.78-10.736 6.855-8.459 7.764-17.52-9.059-1.003-9.868 13.794-18.758 3.943-9.382-10.378-1.857-8.919-1.857-8.919 6.673-12.957 12.954-17.373 12.954-17.373"/></g><path fill="#E3E8EE" d="M.071-15.176c-2.43 1.9-.21 1.62-3.01 3.68-1.64 5.93-3.39 18.46.32 26.67 2.31-8.37 3.05-11.02 7.44-13.98l-4.75-16.37z" transform="scale(-1 1) rotate(-51 -130.363 729.451)" style="display:block"/><g mask="url(#d)" style="display:block"><path fill="#FFF" d="M585.38 108.127c-9.398-2.168-22.077-1.204-32.091 4.576-10.008 5.788-3.504 16.824 5.62 12.962 8.919-3.89 11.427-5.163 16.74-3.545"/></g><path fill="#E3E8EE" d="M-.068-15.176c2.43 1.9.21 1.62 3.01 3.68 1.63 5.93 3.39 18.46-.33 26.67-2.3-8.37-3.04-11.02-7.43-13.98l4.75-16.37z" transform="scale(-1 1) rotate(-51 -163.47 660.042)" style="display:block"/><path fill="#E3E8EE" d="M-22.124-7.036c.15 2.03.63 5.42 2.01 10.03 4.73 2.36 10.59 3.85 17.87 4.04-.01-.37.01-.74.04-1.11-.17-2.42.07-4.92 2.2-7.03 2.14 2.12 2.38 4.61 2.21 7.04.03.35.04.7.04 1.05 7.48-.36 13.41-2.15 18.11-4.84 1.2-4.17 1.62-7.28 1.77-9.18h-44.25z" transform="scale(-1 1) rotate(-51 -115.707 678.976)" style="display:block"/><path fill="#FFF" d="M35.823-23.854h-71.65s-7.55 47.71 35.83 47.71c43.37 0 35.82-47.71 35.82-47.71" transform="scale(-1 1) rotate(-51 -136.807 689.894)" style="display:block"/><path fill="#221F1F" d="M39.924-7.05S34.514-2.87.004-2.87c-34.52 0-39.93-4.18-39.93-4.18s-1.9.83-1.1 7.61c.79 6.75 19.43 6.49 41.03 6.49 21.59 0 40.23.26 41.02-6.49.81-6.78-1.1-7.61-1.1-7.61" transform="scale(-1 1) rotate(-51 -163.427 702.59)" style="display:block"/><path fill="#E3E8EE" d="M19.254 7.506c-.02 1.89-1.81 3.43-4.02 3.43h-30.46c-2.21 0-4-1.54-4.02-3.43l-1.01-15.01c-.14-1.89 1.61-3.43 3.9-3.43h32.62c2.34 0 4.13 1.53 3.99 3.43l-1 15.01z" transform="scale(-1 1) rotate(-51 -137.137 689.2)" style="display:block"/><path fill="#FFF" fill-opacity=".3" d="M30.297.237c-1.94 16.3-16.94 29.27-33.9 28.48-16.96-.79-28.49-13.65-26.57-29.25 1.91-15.61 17.38-28.22 34.07-28.22s27.6 12.77 26.4 28.99" transform="scale(-1 1) rotate(-51 -203.705 739.31)" style="display:block"/><path fill="#FFF" fill-opacity=".3" d="M17.216-1.812c-2.05 9.35-11.07 17.75-20.45 18.96-9.38 1.2-15.68-5.72-14.11-15.47 1.57-9.76 11.12-18.26 20.97-18.92 9.85-.65 15.51 6.4 13.59 15.43" transform="scale(-1 1) rotate(-51 -208.253 748.968)" style="display:block"/><path fill="#FFF" d="M2.806-.004c0 1.55-1.26 2.81-2.81 2.81a2.81 2.81 0 0 1-2.8-2.81c0-1.54 1.26-2.8 2.8-2.8a2.81 2.81 0 0 1 2.81 2.8" transform="scale(-1 1) rotate(-51 -217.17 755.122)" style="display:block"/><path fill="#FFF" d="M1.498-.002c0 .83-.67 1.5-1.5 1.5s-1.5-.67-1.5-1.5.67-1.5 1.5-1.5 1.5.67 1.5 1.5" transform="scale(-1 1) rotate(-51 -210.909 757.676)" style="display:block"/><path fill="#E3E8EE" d="M-2.558-2.453c.29.79.59 1.6.96 2.25.2.32.4.61.63.79.22.19.43.29.66.33.23.04.6.01.86-.08.29-.07.54-.23.8-.44.5-.42.93-1.14 1.27-1.88l.02-.05c.08-.18.3-.26.48-.18.12.06.2.18.21.31.08.98-.14 1.98-.82 2.86-.33.45-.82.8-1.36 1.03-.56.2-1.09.29-1.73.21-.63-.09-1.23-.44-1.62-.88-.39-.43-.66-.9-.82-1.38-.33-.96-.4-1.9-.26-2.85.02-.2.21-.33.41-.31.14.02.25.12.29.24l.02.03z" transform="scale(-1 1) rotate(-51 -107.572 732.257)" style="display:block"/><path fill="#E3E8EE" d="M3.282-2.413c.14.95.06 1.89-.27 2.85-.16.48-.42.95-.81 1.39-.39.43-.99.78-1.62.87-.65.08-1.18-.01-1.74-.21-.53-.23-1.02-.58-1.35-1.03-.68-.88-.9-1.88-.83-2.86.02-.2.2-.35.4-.34.13.01.25.1.3.21l.02.05c.34.74.76 1.46 1.27 1.88.25.21.51.37.79.44.27.09.64.12.86.08.24-.04.44-.14.67-.33.23-.18.42-.47.62-.79.38-.65.68-1.46.97-2.25l.01-.03c.07-.19.28-.29.47-.22.13.05.22.17.24.29" transform="scale(-1 1) rotate(-51 -151.087 641.025)" style="display:block"/><path fill="#221F1F" d="M2.336 9.97s-7.02-3.8-7.02-10.77c0-6.96 5.33-10.28 9.37-8.84" transform="scale(-1 1) rotate(63 -190.495 -11.714)" style="display:block"/><path fill="#221F1F" d="M-2.333 9.97s7.02-3.8 7.02-10.77c0-6.96-5.33-10.28-9.37-8.84" transform="scale(-1 1) rotate(63 -214.775 27.908)" style="display:block"/><path fill="#CA9957" d="M11.475 3.443c1.39 8.39-4.62 12.72-11.41 12.67-6.73-.04-12.77-4.43-11.59-12.82 1.18-8.4 6.24-19.43 11.4-19.41 5.17.02 10.2 11.17 11.6 19.56" transform="scale(-1 1) rotate(63 -225.644 -5.846)" style="display:block"/><path fill="#CA9957" d="M-6.625 1.366s9.44 1.37 5.83 6.19c-3.61 4.81 7.58-9.24 7.42-9.63-.16-.39-1.01-4.18-1.87-4.66-.86-.48-4.13-1.74-5.25-1.82" transform="scale(-1 1) rotate(63 -210.602 -5.242)" style="display:block"/><path fill="#CA9957" d="M6.625 1.366s-9.44 1.37-5.83 6.19c3.61 4.81-7.58-9.24-7.42-9.63.16-.39 1.01-4.18 1.87-4.66.86-.48 4.14-1.74 5.25-1.82" transform="scale(-1 1) rotate(63 -217.921 6.703)" style="display:block"/><path fill="#DDAA6B" d="M26.218 2.703c0 15.96-13.85 18.1-26.22 18.1s-26.22-2.14-26.22-18.1 11.74-23.51 26.22-23.51c14.48 0 26.22 7.55 26.22 23.51" transform="scale(-1 1) rotate(63 -199.942 9.89)" style="display:block"/><path fill="#FFF" d="M23.739-3.267c0 15.93-10.63 18.59-23.74 18.59-13.11 0-23.74-2.66-23.74-18.59 0-15.94 23.74-14.58 23.74-4.6 0-9.98 23.74-11.34 23.74 4.6" transform="scale(-1 1) rotate(63 -203.038 7.993)" style="display:block"/><path fill="#FFF" d="M.839-10.862h-11.28s5.23.59 5.52 5.2c.28 4.56-3.4 16.52 5.01 16.52s4.55-11.96 4.84-16.52c.28-4.61 5.51-5.2 5.51-5.2h-9.6z" transform="scale(-1 1) rotate(63 -223.692 -4.893)" style="display:block"/><path fill="#DDAA6B" d="M9.432-.465c-.96 5.84-6.76 10.44-11.32 10.45-4.59-.04-7.72-3.82-7.59-9.2-.21-5.74 3.95-10.65 9.4-10.77 5.38-.03 10.14 3.7 9.51 9.52" transform="scale(-1 1) rotate(63 -195.3 -1.56)" style="display:block"/><path fill="#DDAA6B" d="M-9.427-.465c.96 5.84 6.75 10.44 11.31 10.45 4.59-.04 7.73-3.82 7.6-9.2.2-5.74-3.96-10.65-9.41-10.77-5.37-.03-10.13 3.7-9.5 9.52" transform="scale(-1 1) rotate(63 -208.118 19.358)" style="display:block"/><path fill="#221F1F" d="M4.108-.409c.34 3.38-.47 6.22-3.5 6.52-3.02.31-4.38-2.32-4.72-5.7-.34-3.38.48-6.22 3.5-6.53 3.03-.3 4.39 2.33 4.72 5.71" transform="scale(-1 1) rotate(63 -196.504 .489)" style="display:block"/><path fill="#FFF" d="M1.634 0c0 1.17-.73 2.12-1.63 2.12-.91 0-1.64-.95-1.64-2.12 0-1.17.73-2.12 1.64-2.12.9 0 1.63.95 1.63 2.12" transform="scale(-1 1) rotate(63 -194.53 .383)" style="display:block"/><path fill="#221F1F" d="M4.112.39c-.32 3.38-1.67 6.02-4.7 5.73-3.02-.29-3.85-3.13-3.52-6.51.32-3.38 1.66-6.02 4.69-5.73 3.03.29 3.85 3.13 3.53 6.51" transform="scale(-1 1) rotate(63 -207.154 17.866)" style="display:block"/><path fill="#FFF" d="M1.634 0c0 1.17-.73 2.12-1.63 2.12-.91 0-1.64-.95-1.64-2.12 0-1.17.73-2.12 1.64-2.12.9 0 1.63.95 1.63 2.12" transform="scale(-1 1) rotate(63 -205.376 18.084)" style="display:block"/><path fill="#D11" d="M-3.252-3.484s-.23 6.97 3.25 6.97 3.25-6.97 3.25-6.97" transform="scale(-1 1) rotate(63 -210.295 3.56)" style="display:block"/><path fill="#FFF" d="M-2.847-.003s-.25 2.66 3.01 2.53c3.26-.13 2.64-2.96 2.64-5.06" transform="scale(-1 1) rotate(63 -205.064 3.57)" style="display:block"/><path stroke-linecap="round" stroke-linejoin="round" stroke="#221F1F" stroke-width="1.604" d="M-2.847-.003s-.25 2.66 3.01 2.53c3.26-.13 2.64-2.96 2.64-5.06" fill="none" transform="scale(-1 1) rotate(63 -205.064 3.57)" style="display:block"/><path fill="#FFF" d="M2.842-.003s.26 2.66-3 2.53c-3.26-.13-2.64-2.96-2.64-5.06" transform="scale(-1 1) rotate(63 -207.896 8.19)" style="display:block"/><path stroke-linecap="round" stroke-linejoin="round" stroke="#221F1F" stroke-width="1.604" d="M2.842-.003s.26 2.66-3 2.53c-3.26-.13-2.64-2.96-2.64-5.06" fill="none" transform="scale(-1 1) rotate(63 -207.896 8.19)" style="display:block"/><path fill="#221F1F" d="M2.905-.225c0 1.75-1.3 2.2-2.91 2.2-1.6 0-2.9-.45-2.9-2.2 0-1.75 1.3-1.75 2.9-1.75 1.61 0 2.91 0 2.91 1.75" transform="scale(-1 1) rotate(63 -203.294 7.835)" style="display:block"/><path fill="#FFF" d="M-4.279-3.309s.5 6.01 4.91 6.54c4.41.54 3.69-1.96 3.46-4.66" transform="scale(-1 1) rotate(63 -236.264 -18.605)" style="display:block"/><path fill="#FFF" d="M4.281-3.309s-.5 6.01-4.91 6.54c-4.41.54-3.7-1.96-3.46-4.66" transform="scale(-1 1) rotate(63 -241.97 -9.294)" style="display:block"/><path fill="#E3E8EE" d="m4.091-.442-8.37-1.88s.08 1 .48 2.21c2.22 1.42 5.05 2.23 8.06 2.43.07-.8-.09-1.77-.17-2.76" transform="scale(-1 1) rotate(63 -235.46 -18.112)" style="display:block"/><path fill="#E3E8EE" d="M-4.259 2.325c3.03-.19 5.87-1.01 8.06-2.44.39-1.21.48-2.21.48-2.21l-8.37 1.88c-.09 1-.24 1.97-.17 2.77" transform="scale(-1 1) rotate(63 -241.169 -8.801)" style="display:block"/><path fill="#FFF" d="M20.413-14.474h-40.82s-4.31 28.95 20.41 28.95c24.71 0 20.41-28.95 20.41-28.95" transform="scale(-1 1) rotate(63 -227.112 -6.901)" style="display:block"/><path fill="#221F1F" d="M22.752-4.216s-3.09 2.5-22.75 2.5c-19.67 0-22.75-2.5-22.75-2.5s-1.08.5-.63 4.55c.46 4.04 11.07 3.88 23.38 3.88 12.3 0 22.92.16 23.37-3.88.46-4.05-.62-4.55-.62-4.55" transform="scale(-1 1) rotate(63 -214.55 .796)" style="display:block"/><path fill="#E3E8EE" d="M8.916 4.089a1.871 1.871 0 0 1-1.87 1.86h-14.1a1.87 1.87 0 0 1-1.86-1.86l-.47-8.17c-.06-1.03.75-1.87 1.81-1.87h15.11c1.08 0 1.91.84 1.84 1.87l-.46 8.17z" transform="scale(-1 1) rotate(63 -229.985 -8.327)" style="display:block"/><g opacity=".3" style="display:block"><path fill="#FFF" d="M88.996 188.98c7.673 2.608 17.448-2.546 21.731-11.811 4.283-9.266 1.803-18.319-5.558-20.767-7.356-2.458-17.102 3.014-21.66 11.96-4.558 8.946-1.941 17.642 5.487 20.618" opacity="1"/></g><g opacity=".3" style="display:block"><path fill="#FFF" d="M90.15 176.805c4.648.988 10.794-1.975 13.88-6.732 3.095-4.753 1.777-9.678-2.918-11.015-4.708-1.333-11.038 1.884-14.015 7.022-2.973 5.13-1.43 9.743 3.053 10.725" opacity="1"/></g><path fill="#FFF" d="M1.683.002c0 .76-.75 1.38-1.68 1.38-.93 0-1.69-.62-1.69-1.38 0-.76.76-1.38 1.69-1.38.93 0 1.68.62 1.68 1.38" transform="scale(-1 1) rotate(63 -180.744 7.497)" style="display:block"/><path fill="#FFF" d="M.906.002c0 .41-.41.74-.91.74s-.9-.33-.9-.74.4-.74.9-.74.91.33.91.74" transform="scale(-1 1) rotate(63 -181.02 4.42)" style="display:block"/><path fill="#C5C9D1" d="M4.85-1.45c.95 2.55-.66 5.49-3.18 6.18-2.27.89-5.4-.38-6.53-3.23-.97-2.94.83-6.03 3.35-6.4 2.86-.55 5.8.98 6.36 3.45" transform="scale(-1 1) rotate(63 -216.913 -13.427)" style="display:block"/><path fill="#FFF" d="M2.092-3.105c2.31 6.06 5.07 9.28 1.76 11.17-3.31 1.89-9.2-4.12-9.23-12.56 0 0 .32-4.67 5.06-3.82 3.43 1.25 2.41 5.21 2.41 5.21" transform="scale(-1 1) rotate(63 -221.788 -14.77)" style="display:block"/><path fill="#C5C9D1" d="M2.339-3.028c.46 1.12.99 2.29 1.53 3.41.54 1.14 1.11 2.26 1.55 3.47.21.6.4 1.23.42 1.91.04.68-.21 1.43-.7 1.94-.24.26-.51.47-.79.65-.28.19-.63.34-.97.42-.7.16-1.42.08-2.06-.14-1.29-.46-2.33-1.33-3.21-2.29-.88-.97-1.59-2.07-2.17-3.23a16.947 16.947 0 0 1-1.78-7.53v-.05c.08-.72.27-1.33.56-1.96.3-.62.75-1.19 1.31-1.62.58-.43 1.26-.7 1.94-.77.68-.08 1.35-.03 1.98.11l.04.01c.01 0 .03 0 .04.01.54.22 1.05.54 1.46.96.41.42.72.94.9 1.48.18.53.23 1.1.22 1.64-.02.54-.1 1.1-.27 1.58m-.127.004c.06-.55.06-1.05 0-1.56a5.14 5.14 0 0 0-.41-1.43c-.21-.45-.5-.83-.86-1.12-.36-.3-.79-.49-1.24-.64l.08.02c-1.12-.17-2.25-.01-3.02.64-.39.32-.68.75-.9 1.22-.22.47-.38 1.04-.42 1.52v-.05c.04 2.42.46 4.86 1.45 7.08.49 1.11 1.13 2.16 1.9 3.09.78.91 1.71 1.73 2.79 2.15.53.21 1.11.29 1.64.18.52-.1 1.05-.43 1.44-.82.84-.78.67-2.11.3-3.26-.37-1.18-.89-2.33-1.37-3.49-.49-1.16-.95-2.31-1.38-3.53" transform="scale(-1 1) rotate(63 -221.632 -14.876)" style="display:block"/><path fill="#C5C9D1" d="M-4.85-1.45c-.95 2.55.66 5.49 3.18 6.18 2.27.89 5.4-.38 6.53-3.23.97-2.94-.83-6.03-3.35-6.4-2.86-.55-5.8.98-6.36 3.45" transform="scale(-1 1) rotate(63 -228.453 5.405)" style="display:block"/><path fill="#FFF" d="M-2.098-3.105c-2.3 6.06-5.06 9.28-1.75 11.17 3.3 1.89 9.19-4.12 9.23-12.56 0 0-.33-4.67-5.07-3.82-3.42 1.25-2.41 5.21-2.41 5.21" transform="scale(-1 1) rotate(63 -231.863 1.672)" style="display:block"/><path fill="#C5C9D1" d="M-2.21-3.023c-.43 1.22-.89 2.37-1.38 3.53-.48 1.16-1 2.31-1.37 3.49-.37 1.15-.55 2.48.3 3.26.39.39.92.72 1.44.82.53.11 1.1.03 1.64-.18 1.08-.42 2.01-1.24 2.79-2.15.77-.92 1.41-1.98 1.9-3.09.99-2.22 1.41-4.66 1.45-7.08v.05c-.05-.48-.2-1.05-.42-1.52-.22-.48-.52-.9-.9-1.22-.77-.65-1.9-.8-3.02-.64l.08-.02c-.45.15-.88.34-1.24.64-.36.29-.66.67-.86 1.12-.2.43-.35.92-.41 1.43a6.78 6.78 0 0 0 0 1.56m-.122-.005c-.17-.48-.26-1.04-.28-1.58-.01-.54.04-1.1.23-1.64.18-.54.48-1.06.9-1.48.41-.42.92-.74 1.45-.96.02-.01.03-.01.05-.01l.03-.01c.63-.14 1.3-.19 1.98-.11.68.07 1.37.34 1.94.77.57.43 1.01 1 1.31 1.62.3.63.48 1.24.56 1.96v.05c0 2.61-.62 5.2-1.78 7.53-.58 1.16-1.29 2.26-2.17 3.23-.87.96-1.92 1.83-3.21 2.29-.64.22-1.36.3-2.06.14-.34-.08-.68-.23-.96-.42a3.8 3.8 0 0 1-.8-.65c-.49-.51-.73-1.26-.7-1.94.02-.68.21-1.31.43-1.91.44-1.21 1.01-2.33 1.54-3.47.54-1.12 1.07-2.29 1.54-3.41" transform="scale(-1 1) rotate(63 -231.887 1.858)" style="display:block"/></g></svg>