<svg xmlns="http://www.w3.org/2000/svg" viewBox="0 0 2000 417.12"><defs><style>.cls-1{fill:#1d1d1b;}</style></defs><g id="Layer_2" data-name="Layer 2"><g id="new"><path class="cls-1" d="M1111.44,173l-1.71,2h142l10.74-50.18-2.73,2.53c-24,22.34-45.46,30.65-79,30.65h-24.89V30.48c0-13.63,2.38-20.61,9.44-27.66l2-2H1111.1l2,2c6.62,6.61,9.44,14.89,9.44,27.66V134.69C1122.54,158.37,1117.29,166.33,1111.44,173Z"/><path class="cls-1" d="M720.31,173l-2,2h57.79l-2-2c-7.68-7.67-10.23-14.4-10.23-39.07V30.48c0-8.29,1.33-18.91,11.77-27.59l2.5-2.08H730.2L662.51,134.54,595.19,1.45l-.33-.64H546.33l2.23,2c10,9.16,11.82,16.49,11.82,27.63V134.69c0,26.41-6,32.43-11.86,38.26l-2,2h44.2l-2.32-2.06c-6.92-6.14-10.18-11.91-10.18-38.21V37.87l68.6,136.44.33.65h14.46L730.54,40.25v93.63C730.54,158.53,728,165.26,720.31,173Z"/><path class="cls-1" d="M74.1,2.9c11.76,9.41,11.76,22.2,11.76,35.73v83.86c0,13.85-4.3,37.09-33,37.09-20,0-33-11.48-50.46-29L0,128.24l4.55,39.9.7.24a153.54,153.54,0,0,0,49.22,8.19c42.31,0,64.67-18.7,64.67-54.08V38.63c0-13.53,0-26.32,11.8-35.73L133.56.81H71.48Z"/><path class="cls-1" d="M307.33,0c-55.44,0-97.25,37.61-97.25,87.49,0,54.11,37.53,89.08,95.61,89.08,57.2,0,95.63-35.8,95.63-89.08C401.32,36,362.67,0,307.33,0Zm-.81,159.58c-35.82,0-59.89-29-59.89-72.09,0-42.82,23.51-70.49,59.89-70.49,35.38,0,58.25,27.67,58.25,70.49C364.77,130.61,341.36,159.58,306.52,159.58Z"/><path class="cls-1" d="M1997.36,130.58c-24.59,23-45.87,27.38-76.54,27.38h-29.75V91.1h61.49l6.62-17h-68.11V17.81h27.31c28.77,0,41.9,0,70.07,24.14l2.53,2.18L1982.86.81H1845.73l1.76,2c6.83,7.58,10.3,15.2,10.3,35.86v98.51c0,16.74-.94,25.75-9.51,35.88l-1.63,1.94H1991l9-46.85Z"/><path class="cls-1" d="M1419.47,0c-55.44,0-97.25,37.61-97.25,87.49,0,54.11,37.54,89.08,95.63,89.08,57.19,0,95.61-35.8,95.61-89.08C1513.46,36,1474.82,0,1419.47,0Zm-.83,159.58c-36.38,0-59.88-28.3-59.88-72.09,0-42.82,23.5-70.49,59.88-70.49,35.4,0,58.27,27.67,58.27,70.49C1476.91,130.61,1453.49,159.58,1418.64,159.58Z"/><path class="cls-1" d="M1728.07,2.82c8.19,8.19,11.85,15.42,11.85,36.62v88.89L1628,1.21l-.35-.4h-42.45l2,2c12.25,12.24,14.31,20.93,14.31,35.81v96.89c0,19.3-4.36,27.46-13.52,37.47l-1.8,2h46.86l-1.81-2c-8.25-9-11.93-16.54-11.93-37.47V36.89l119.26,137.66.35.41h18.82V39.44c0-20.83,4.17-28.95,11.87-36.62l2-2h-45.57Z"/><path class="cls-1" d="M1016.6,136.66,955.58,1.5l-.32-.69h-23.5L872,130.13c-9.27,20.09-19.83,35.27-29.76,42.72L839.43,175h53.36l-1.74-2c-6.87-7.73-7.09-20.3-.61-35.4l5.39-12.32h79.88l6.2,14c5,11.52,4.51,22.63-1.58,34L979.4,175h64.83l-2.73-2.11C1030.61,164.45,1022.47,149.08,1016.6,136.66ZM905,104.22l30.79-70.79,30.77,70.79Z"/><path class="cls-1" d="M667.49,405.36H650.15V352.21c0-11.44,1.64-15.25,5.55-20l.8-1h-26l.6.91c3,4.6,4.78,7.72,4.78,18.41v48.83c0,6.87-1.8,12.95-4.71,15.87l-1,1h67.12l4.49-26.84-1.34,1.45C691.13,401,681.27,405.36,667.49,405.36Z"/><path class="cls-1" d="M804.15,330.47c-12.47,0-24.1,4.13-32.74,11.64-9.33,8.1-14.25,19.19-14.25,32.08,0,28.19,22.82,42.93,45.37,42.93,27.67,0,47-18,47-43.74C849.52,348.52,830.44,330.47,804.15,330.47Zm-.81,75.7c-16.91,0-28.73-13.15-28.73-32,0-19.91,11.28-32.78,28.73-32.78,13.89,0,28.73,8.4,28.73,32C832.07,393,820.52,406.17,803.34,406.17Z"/><path class="cls-1" d="M1394.15,332.25c4.83,5.63,6.38,10.48,6.38,20v37.54l-51.08-58.27-.18-.2h-21.38l1.2,1c5.79,5,7.94,9.92,7.94,18.29v48.83a22.15,22.15,0,0,1-6.35,15.87l-1,1h24.83l-1-1c-3.66-3.64-5.52-9-5.52-15.87V353l55.13,63.13.18.2h8.18V352.21c0-9.58,1.56-15.19,5.58-20l.82-1h-24.55Z"/><path class="cls-1" d="M1082.33,331.28h-33l.81,1c3.76,4.52,5.55,8.9,5.55,21.62v44.76c0,8.89-3.24,15.16-5.43,16.6l-1.64,1.08h33.7c11.9,0,23.61-4,32.13-10.91,9.72-7.92,14.86-19,14.86-32C1129.32,344.46,1105,331.28,1082.33,331.28Zm0,74.89h-10V341.41h10c14,0,30.35,8.37,30.35,32C1112.68,396,1097.44,406.17,1082.33,406.17Z"/><path class="cls-1" d="M1230,330.47c-12.48,0-24.11,4.13-32.75,11.64-9.32,8.1-14.25,19.19-14.25,32.08,0,28.19,22.82,42.93,45.35,42.93,27.23,0,47-18.39,47-43.74C1275.31,345.21,1252.49,330.47,1230,330.47Zm-.82,75.7c-16.91,0-28.72-13.15-28.72-32,0-19.91,11.27-32.78,28.72-32.78,18.25,0,28.71,11.65,28.71,32C1257.85,393.3,1246.58,406.17,1229.14,406.17Z"/><path class="cls-1" d="M969.33,332.24c4.06,4.87,5.57,10.74,5.57,21.62v35.05l-50.25-57.43-.17-.2h-22.4l1.42,1.06c6.43,4.82,8.72,9.61,8.72,18.26v48.83a22.15,22.15,0,0,1-6.36,15.87l-1,1h24.85l-1-1c-3.67-3.67-5.54-9-5.54-15.87V353l54.35,63.11.17.21h8.17V353.86c0-11.05,1.46-16.71,5.57-21.61l.81-1H968.53Z"/></g></g></svg>