<?xml version="1.0" encoding="UTF-8"?>
<svg width="264px" height="68px" viewBox="0 0 264 68" version="1.1" xmlns="http://www.w3.org/2000/svg" xmlns:xlink="http://www.w3.org/1999/xlink">
    <title>0. Identity/BI-type-1</title>
    <defs>
        <polygon id="path-1" points="0 23.246 219.255 23.246 219.255 0 0 0"></polygon>
    </defs>
    <g id="0.-Identity/BI-type-1" stroke="none" stroke-width="1" fill="none" fill-rule="evenodd">
        <g id="Group">
            <g id="Group-15" transform="translate(22.000000, 22.000000)">
                <path d="M31.3455,3.9683 L34.5065,3.9683 C37.1875,3.9683 38.5475,5.1443 38.5475,7.4633 C38.5475,9.7533 37.2265,10.8673 34.5065,10.8673 L31.3455,10.8673 L31.3455,3.9683 Z M34.6285,0.4003 L27.5645,0.4003 L27.5645,22.8453 L31.3455,22.8453 L31.3455,14.4043 L34.5665,14.4043 L34.5685,14.4043 L40.1955,22.8453 L44.4485,22.8453 L38.4455,13.6713 C40.9525,12.5803 42.4185,10.3203 42.4185,7.4633 C42.4185,3.2393 39.2875,0.4003 34.6285,0.4003 L34.6285,0.4003 Z" id="Fill-1" fill="#173B33"></path>
                <path d="M62.1366,19.5974 C57.7306,19.5974 54.4086,16.1694 54.4086,11.6224 C54.4086,7.0774 57.7306,3.6484 62.1366,3.6484 C66.5426,3.6484 69.8646,7.0774 69.8646,11.6224 C69.8646,16.1694 66.5426,19.5974 62.1366,19.5974 M62.1366,0.0004 C55.6016,0.0004 50.4826,5.1054 50.4826,11.6224 C50.4826,18.1404 55.6016,23.2454 62.1366,23.2454 C68.6716,23.2454 73.7906,18.1404 73.7906,11.6224 C73.7906,5.1054 68.6716,0.0004 62.1366,0.0004" id="Fill-3" fill="#173B33"></path>
                <polygon id="Fill-5" fill="#173B33" points="93.8019 16.5076 100.3769 8.1486 100.3769 22.8456 104.1579 22.8456 104.1579 0.4006 102.0429 0.4006 93.2359 11.2996 84.4279 0.4006 82.3129 0.4006 82.3129 22.8456 86.0939 22.8456 86.0939 8.1486 92.6689 16.5076"></polygon>
                <polygon id="Fill-7" fill="#173B33" points="144.8693 22.8452 144.8693 3.9692 151.2723 3.9692 151.2723 0.4002 134.6843 0.4002 134.6843 3.9692 141.0873 3.9692 141.0873 22.8452"></polygon>
                <mask id="mask-2" fill="white">
                    <use xlink:href="#path-1"></use>
                </mask>
                <g id="Clip-10"></g>
                <polygon id="Fill-9" fill="#173B33" mask="url(#mask-2)" points="160.169 22.845 163.949 22.845 163.949 0.4 160.169 0.4"></polygon>
                <path d="M183.9723,-0.0004 C177.4153,-0.0004 172.471157,4.9966 172.471157,11.6226 C172.4563,14.8206 173.6223,17.7636 175.7533,19.9066 C177.8963,22.0596 180.8373,23.2456 184.0333,23.2456 C188.0183,23.2456 191.2033,21.7166 193.5003,18.7006 L193.6103,18.5566 L194.0763,17.9446 L191.0023,15.7746 L190.5703,16.3516 L190.4683,16.4876 C188.9423,18.5216 186.7383,19.5976 184.0953,19.5976 C179.6343,19.5976 176.3973,16.2436 176.3973,11.6226 C176.3973,7.0766 179.6403,3.6486 183.9413,3.6486 C186.4523,3.6486 188.4653,4.6046 189.9223,6.4916 L190.0263,6.6256 L190.4653,7.1926 L193.4863,5.0166 L193.0243,4.4106 L192.9153,4.2676 C190.7853,1.4756 187.6943,-0.0004 183.9723,-0.0004" id="Fill-11" fill="#173B33" mask="url(#mask-2)"></path>
                <path d="M121.5256,7.4861 L124.3106,14.4051 L118.7406,14.4051 C118.9146,13.9731 121.5256,7.4861 121.5256,7.4861 L121.5256,7.4861 Z M127.4726,22.8381 L131.7226,22.8381 L122.5026,0.4001 L120.5486,0.4001 L111.3286,22.8381 L115.5786,22.8381 L117.4816,17.7511 L125.5696,17.7511 L127.4726,22.8381 Z" id="Fill-12" fill="#173B33" mask="url(#mask-2)"></path>
                <path d="M10.1965,15.6081 C9.0465,15.6081 8.0595,15.1441 7.4155,14.3951 C7.5955,13.9461 10.1965,7.4861 10.1965,7.4861 L12.9775,14.3941 C12.3335,15.1431 11.3465,15.6081 10.1965,15.6081 L10.1965,15.6081 Z M20.3935,22.8381 L11.1735,0.4001 L9.2195,0.4001 L-0.0005,22.8381 L4.2495,22.8381 L6.1535,17.7471 C7.2855,18.5231 8.6765,18.9761 10.1965,18.9761 C11.7165,18.9761 13.1075,18.5221 14.2385,17.7461 L16.1435,22.8381 L20.3935,22.8381 Z" id="Fill-13" fill="#173B33" mask="url(#mask-2)"></path>
                <path d="M209.0581,15.6081 C207.9081,15.6081 206.9211,15.1441 206.2771,14.3951 C206.4571,13.9461 209.0581,7.4861 209.0581,7.4861 L211.8391,14.3941 C211.1951,15.1431 210.2081,15.6081 209.0581,15.6081 L209.0581,15.6081 Z M219.2551,22.8381 L210.0351,0.4001 L208.0811,0.4001 L198.8611,22.8381 L203.1111,22.8381 L205.0151,17.7471 C206.1471,18.5231 207.5381,18.9761 209.0581,18.9761 C210.5781,18.9761 211.9691,18.5221 213.1001,17.7461 L215.0051,22.8381 L219.2551,22.8381 Z" id="Fill-14" fill="#173B33" mask="url(#mask-2)"></path>
            </g>
            <polygon id="Stroke-1" points="0 67.668 264.131 67.668 264.131 0 0 0"></polygon>
        </g>
    </g>
</svg>